<?xml version="1.0" encoding="UTF-8" standalone="no"?>
<!DOCTYPE svg PUBLIC "-//W3C//DTD SVG 1.1//EN"
 "http://www.w3.org/Graphics/SVG/1.1/DTD/svg11.dtd">
<!-- Generated by graphviz version 10.0.1 (20240210.2158)
 -->
<!-- Title: Tree Pages: 1 -->
<svg width="2261pt" height="588pt"
 viewBox="0.00 0.00 2260.50 588.00" xmlns="http://www.w3.org/2000/svg" xmlns:xlink="http://www.w3.org/1999/xlink">
<g id="graph0" class="graph" transform="scale(1 1) rotate(0) translate(4 584)">
<title>Tree</title>
<polygon fill="white" stroke="none" points="-4,4 -4,-584 2256.5,-584 2256.5,4 -4,4"/>
<!-- 0 -->
<g id="node1" class="node">
<title>0</title>
<polygon fill="none" stroke="black" points="1273.88,-580 1066.62,-580 1066.62,-489.5 1273.88,-489.5 1273.88,-580"/>
<text text-anchor="middle" x="1170.25" y="-562.7" font-family="Helvetica,sans-Serif" font-size="14.00">debt_to_income_ratio &lt;= 16.5</text>
<text text-anchor="middle" x="1170.25" y="-546.2" font-family="Helvetica,sans-Serif" font-size="14.00">gini = 0.248</text>
<text text-anchor="middle" x="1170.25" y="-529.7" font-family="Helvetica,sans-Serif" font-size="14.00">samples = 162656</text>
<text text-anchor="middle" x="1170.25" y="-513.2" font-family="Helvetica,sans-Serif" font-size="14.00">value = [23538, 139118]</text>
<text text-anchor="middle" x="1170.25" y="-496.7" font-family="Helvetica,sans-Serif" font-size="14.00">class = approve</text>
</g>
<!-- 1 -->
<g id="node2" class="node">
<title>1</title>
<polygon fill="none" stroke="black" points="948.5,-453.5 778,-453.5 778,-363 948.5,-363 948.5,-453.5"/>
<text text-anchor="middle" x="863.25" y="-436.2" font-family="Helvetica,sans-Serif" font-size="14.00">income &lt;= 1.5</text>
<text text-anchor="middle" x="863.25" y="-419.7" font-family="Helvetica,sans-Serif" font-size="14.00">gini = 0.168</text>
<text text-anchor="middle" x="863.25" y="-403.2" font-family="Helvetica,sans-Serif" font-size="14.00">samples = 151003</text>
<text text-anchor="middle" x="863.25" y="-386.7" font-family="Helvetica,sans-Serif" font-size="14.00">value = [13972, 137031]</text>
<text text-anchor="middle" x="863.25" y="-370.2" font-family="Helvetica,sans-Serif" font-size="14.00">class = approve</text>
</g>
<!-- 0&#45;&gt;1 -->
<g id="edge1" class="edge">
<title>0&#45;&gt;1</title>
<path fill="none" stroke="black" d="M1066.31,-491.6C1031.63,-477.54 993.17,-461.94 959.13,-448.13"/>
<polygon fill="black" stroke="black" points="960.7,-444.99 950.12,-444.48 958.07,-451.48 960.7,-444.99"/>
<text text-anchor="middle" x="958.45" y="-461.88" font-family="Helvetica,sans-Serif" font-size="14.00">True</text>
</g>
<!-- 16 -->
<g id="node17" class="node">
<title>16</title>
<polygon fill="none" stroke="black" points="1540.12,-453.5 1394.38,-453.5 1394.38,-363 1540.12,-363 1540.12,-453.5"/>
<text text-anchor="middle" x="1467.25" y="-436.2" font-family="Helvetica,sans-Serif" font-size="14.00">interest_rate &lt;= 2.5</text>
<text text-anchor="middle" x="1467.25" y="-419.7" font-family="Helvetica,sans-Serif" font-size="14.00">gini = 0.294</text>
<text text-anchor="middle" x="1467.25" y="-403.2" font-family="Helvetica,sans-Serif" font-size="14.00">samples = 11653</text>
<text text-anchor="middle" x="1467.25" y="-386.7" font-family="Helvetica,sans-Serif" font-size="14.00">value = [9566, 2087]</text>
<text text-anchor="middle" x="1467.25" y="-370.2" font-family="Helvetica,sans-Serif" font-size="14.00">class = deny</text>
</g>
<!-- 0&#45;&gt;16 -->
<g id="edge16" class="edge">
<title>0&#45;&gt;16</title>
<path fill="none" stroke="black" d="M1274.13,-490.21C1310.05,-475.15 1349.82,-458.47 1383.89,-444.19"/>
<polygon fill="black" stroke="black" points="1385,-447.52 1392.87,-440.43 1382.3,-441.07 1385,-447.52"/>
<text text-anchor="middle" x="1384.8" y="-457.93" font-family="Helvetica,sans-Serif" font-size="14.00">False</text>
</g>
<!-- 2 -->
<g id="node3" class="node">
<title>2</title>
<polygon fill="none" stroke="black" points="494.88,-327 365.62,-327 365.62,-236.5 494.88,-236.5 494.88,-327"/>
<text text-anchor="middle" x="430.25" y="-309.7" font-family="Helvetica,sans-Serif" font-size="14.00">income &lt;= 0.5</text>
<text text-anchor="middle" x="430.25" y="-293.2" font-family="Helvetica,sans-Serif" font-size="14.00">gini = 0.452</text>
<text text-anchor="middle" x="430.25" y="-276.7" font-family="Helvetica,sans-Serif" font-size="14.00">samples = 1383</text>
<text text-anchor="middle" x="430.25" y="-260.2" font-family="Helvetica,sans-Serif" font-size="14.00">value = [906, 477]</text>
<text text-anchor="middle" x="430.25" y="-243.7" font-family="Helvetica,sans-Serif" font-size="14.00">class = deny</text>
</g>
<!-- 1&#45;&gt;2 -->
<g id="edge2" class="edge">
<title>1&#45;&gt;2</title>
<path fill="none" stroke="black" d="M777.7,-382.65C698.54,-359.89 581.96,-326.37 506.06,-304.55"/>
<polygon fill="black" stroke="black" points="507.2,-301.23 496.62,-301.83 505.26,-307.96 507.2,-301.23"/>
</g>
<!-- 9 -->
<g id="node10" class="node">
<title>9</title>
<polygon fill="none" stroke="black" points="948.5,-327 778,-327 778,-236.5 948.5,-236.5 948.5,-327"/>
<text text-anchor="middle" x="863.25" y="-309.7" font-family="Helvetica,sans-Serif" font-size="14.00">interest_rate &lt;= 2.5</text>
<text text-anchor="middle" x="863.25" y="-293.2" font-family="Helvetica,sans-Serif" font-size="14.00">gini = 0.159</text>
<text text-anchor="middle" x="863.25" y="-276.7" font-family="Helvetica,sans-Serif" font-size="14.00">samples = 149620</text>
<text text-anchor="middle" x="863.25" y="-260.2" font-family="Helvetica,sans-Serif" font-size="14.00">value = [13066, 136554]</text>
<text text-anchor="middle" x="863.25" y="-243.7" font-family="Helvetica,sans-Serif" font-size="14.00">class = approve</text>
</g>
<!-- 1&#45;&gt;9 -->
<g id="edge9" class="edge">
<title>1&#45;&gt;9</title>
<path fill="none" stroke="black" d="M863.25,-362.65C863.25,-354.97 863.25,-346.89 863.25,-338.94"/>
<polygon fill="black" stroke="black" points="866.75,-338.97 863.25,-328.97 859.75,-338.97 866.75,-338.97"/>
</g>
<!-- 3 -->
<g id="node4" class="node">
<title>3</title>
<polygon fill="none" stroke="black" points="291,-200.5 75.5,-200.5 75.5,-110 291,-110 291,-200.5"/>
<text text-anchor="middle" x="183.25" y="-183.2" font-family="Helvetica,sans-Serif" font-size="14.00">open&#45;end_line_of_credit &lt;= 0.5</text>
<text text-anchor="middle" x="183.25" y="-166.7" font-family="Helvetica,sans-Serif" font-size="14.00">gini = 0.224</text>
<text text-anchor="middle" x="183.25" y="-150.2" font-family="Helvetica,sans-Serif" font-size="14.00">samples = 404</text>
<text text-anchor="middle" x="183.25" y="-133.7" font-family="Helvetica,sans-Serif" font-size="14.00">value = [52, 352]</text>
<text text-anchor="middle" x="183.25" y="-117.2" font-family="Helvetica,sans-Serif" font-size="14.00">class = approve</text>
</g>
<!-- 2&#45;&gt;3 -->
<g id="edge3" class="edge">
<title>2&#45;&gt;3</title>
<path fill="none" stroke="black" d="M365.35,-248.04C339.89,-235.21 310.11,-220.19 282.09,-206.07"/>
<polygon fill="black" stroke="black" points="283.71,-202.97 273.21,-201.59 280.56,-209.22 283.71,-202.97"/>
</g>
<!-- 6 -->
<g id="node7" class="node">
<title>6</title>
<polygon fill="none" stroke="black" points="529.75,-200.5 330.75,-200.5 330.75,-110 529.75,-110 529.75,-200.5"/>
<text text-anchor="middle" x="430.25" y="-183.2" font-family="Helvetica,sans-Serif" font-size="14.00">debt_to_income_ratio &lt;= 0.5</text>
<text text-anchor="middle" x="430.25" y="-166.7" font-family="Helvetica,sans-Serif" font-size="14.00">gini = 0.223</text>
<text text-anchor="middle" x="430.25" y="-150.2" font-family="Helvetica,sans-Serif" font-size="14.00">samples = 979</text>
<text text-anchor="middle" x="430.25" y="-133.7" font-family="Helvetica,sans-Serif" font-size="14.00">value = [854, 125]</text>
<text text-anchor="middle" x="430.25" y="-117.2" font-family="Helvetica,sans-Serif" font-size="14.00">class = deny</text>
</g>
<!-- 2&#45;&gt;6 -->
<g id="edge6" class="edge">
<title>2&#45;&gt;6</title>
<path fill="none" stroke="black" d="M430.25,-236.15C430.25,-228.47 430.25,-220.39 430.25,-212.44"/>
<polygon fill="black" stroke="black" points="433.75,-212.47 430.25,-202.47 426.75,-212.47 433.75,-212.47"/>
</g>
<!-- 4 -->
<g id="node5" class="node">
<title>4</title>
<polygon fill="none" stroke="black" points="104.5,-74 0,-74 0,0 104.5,0 104.5,-74"/>
<text text-anchor="middle" x="52.25" y="-56.7" font-family="Helvetica,sans-Serif" font-size="14.00">gini = 0.219</text>
<text text-anchor="middle" x="52.25" y="-40.2" font-family="Helvetica,sans-Serif" font-size="14.00">samples = 16</text>
<text text-anchor="middle" x="52.25" y="-23.7" font-family="Helvetica,sans-Serif" font-size="14.00">value = [14, 2]</text>
<text text-anchor="middle" x="52.25" y="-7.2" font-family="Helvetica,sans-Serif" font-size="14.00">class = deny</text>
</g>
<!-- 3&#45;&gt;4 -->
<g id="edge4" class="edge">
<title>3&#45;&gt;4</title>
<path fill="none" stroke="black" d="M132.98,-109.64C122.72,-100.53 111.93,-90.96 101.7,-81.88"/>
<polygon fill="black" stroke="black" points="104.2,-79.42 94.39,-75.4 99.55,-84.65 104.2,-79.42"/>
</g>
<!-- 5 -->
<g id="node6" class="node">
<title>5</title>
<polygon fill="none" stroke="black" points="243.75,-74 122.75,-74 122.75,0 243.75,0 243.75,-74"/>
<text text-anchor="middle" x="183.25" y="-56.7" font-family="Helvetica,sans-Serif" font-size="14.00">gini = 0.177</text>
<text text-anchor="middle" x="183.25" y="-40.2" font-family="Helvetica,sans-Serif" font-size="14.00">samples = 388</text>
<text text-anchor="middle" x="183.25" y="-23.7" font-family="Helvetica,sans-Serif" font-size="14.00">value = [38, 350]</text>
<text text-anchor="middle" x="183.25" y="-7.2" font-family="Helvetica,sans-Serif" font-size="14.00">class = approve</text>
</g>
<!-- 3&#45;&gt;5 -->
<g id="edge5" class="edge">
<title>3&#45;&gt;5</title>
<path fill="none" stroke="black" d="M183.25,-109.64C183.25,-101.81 183.25,-93.63 183.25,-85.72"/>
<polygon fill="black" stroke="black" points="186.75,-85.91 183.25,-75.91 179.75,-85.91 186.75,-85.91"/>
</g>
<!-- 7 -->
<g id="node8" class="node">
<title>7</title>
<polygon fill="none" stroke="black" points="374.62,-74 261.88,-74 261.88,0 374.62,0 374.62,-74"/>
<text text-anchor="middle" x="318.25" y="-56.7" font-family="Helvetica,sans-Serif" font-size="14.00">gini = 0.021</text>
<text text-anchor="middle" x="318.25" y="-40.2" font-family="Helvetica,sans-Serif" font-size="14.00">samples = 850</text>
<text text-anchor="middle" x="318.25" y="-23.7" font-family="Helvetica,sans-Serif" font-size="14.00">value = [841, 9]</text>
<text text-anchor="middle" x="318.25" y="-7.2" font-family="Helvetica,sans-Serif" font-size="14.00">class = deny</text>
</g>
<!-- 6&#45;&gt;7 -->
<g id="edge7" class="edge">
<title>6&#45;&gt;7</title>
<path fill="none" stroke="black" d="M387.27,-109.64C378.67,-100.72 369.64,-91.34 361.05,-82.43"/>
<polygon fill="black" stroke="black" points="363.82,-80.26 354.36,-75.48 358.78,-85.11 363.82,-80.26"/>
</g>
<!-- 8 -->
<g id="node9" class="node">
<title>8</title>
<polygon fill="none" stroke="black" points="513.75,-74 392.75,-74 392.75,0 513.75,0 513.75,-74"/>
<text text-anchor="middle" x="453.25" y="-56.7" font-family="Helvetica,sans-Serif" font-size="14.00">gini = 0.181</text>
<text text-anchor="middle" x="453.25" y="-40.2" font-family="Helvetica,sans-Serif" font-size="14.00">samples = 129</text>
<text text-anchor="middle" x="453.25" y="-23.7" font-family="Helvetica,sans-Serif" font-size="14.00">value = [13, 116]</text>
<text text-anchor="middle" x="453.25" y="-7.2" font-family="Helvetica,sans-Serif" font-size="14.00">class = approve</text>
</g>
<!-- 6&#45;&gt;8 -->
<g id="edge8" class="edge">
<title>6&#45;&gt;8</title>
<path fill="none" stroke="black" d="M439.08,-109.64C440.64,-101.72 442.28,-93.44 443.86,-85.45"/>
<polygon fill="black" stroke="black" points="447.25,-86.37 445.76,-75.88 440.38,-85.01 447.25,-86.37"/>
</g>
<!-- 10 -->
<g id="node11" class="node">
<title>10</title>
<polygon fill="none" stroke="black" points="846.75,-200.5 665.75,-200.5 665.75,-110 846.75,-110 846.75,-200.5"/>
<text text-anchor="middle" x="756.25" y="-183.2" font-family="Helvetica,sans-Serif" font-size="14.00">aus_Not applicable &lt;= 0.5</text>
<text text-anchor="middle" x="756.25" y="-166.7" font-family="Helvetica,sans-Serif" font-size="14.00">gini = 0.203</text>
<text text-anchor="middle" x="756.25" y="-150.2" font-family="Helvetica,sans-Serif" font-size="14.00">samples = 113731</text>
<text text-anchor="middle" x="756.25" y="-133.7" font-family="Helvetica,sans-Serif" font-size="14.00">value = [13059, 100672]</text>
<text text-anchor="middle" x="756.25" y="-117.2" font-family="Helvetica,sans-Serif" font-size="14.00">class = approve</text>
</g>
<!-- 9&#45;&gt;10 -->
<g id="edge10" class="edge">
<title>9&#45;&gt;10</title>
<path fill="none" stroke="black" d="M824.92,-236.15C817.55,-227.57 809.75,-218.5 802.16,-209.67"/>
<polygon fill="black" stroke="black" points="804.83,-207.4 795.66,-202.1 799.52,-211.97 804.83,-207.4"/>
</g>
<!-- 13 -->
<g id="node14" class="node">
<title>13</title>
<polygon fill="none" stroke="black" points="1075.38,-200.5 865.12,-200.5 865.12,-110 1075.38,-110 1075.38,-200.5"/>
<text text-anchor="middle" x="970.25" y="-183.2" font-family="Helvetica,sans-Serif" font-size="14.00">aus_Internal Proprietary &lt;= 0.5</text>
<text text-anchor="middle" x="970.25" y="-166.7" font-family="Helvetica,sans-Serif" font-size="14.00">gini = 0.0</text>
<text text-anchor="middle" x="970.25" y="-150.2" font-family="Helvetica,sans-Serif" font-size="14.00">samples = 35889</text>
<text text-anchor="middle" x="970.25" y="-133.7" font-family="Helvetica,sans-Serif" font-size="14.00">value = [7, 35882]</text>
<text text-anchor="middle" x="970.25" y="-117.2" font-family="Helvetica,sans-Serif" font-size="14.00">class = approve</text>
</g>
<!-- 9&#45;&gt;13 -->
<g id="edge13" class="edge">
<title>9&#45;&gt;13</title>
<path fill="none" stroke="black" d="M901.58,-236.15C908.95,-227.57 916.75,-218.5 924.34,-209.67"/>
<polygon fill="black" stroke="black" points="926.98,-211.97 930.84,-202.1 921.67,-207.4 926.98,-211.97"/>
</g>
<!-- 11 -->
<g id="node12" class="node">
<title>11</title>
<polygon fill="none" stroke="black" points="694.38,-74 532.12,-74 532.12,0 694.38,0 694.38,-74"/>
<text text-anchor="middle" x="613.25" y="-56.7" font-family="Helvetica,sans-Serif" font-size="14.00">gini = 0.186</text>
<text text-anchor="middle" x="613.25" y="-40.2" font-family="Helvetica,sans-Serif" font-size="14.00">samples = 110039</text>
<text text-anchor="middle" x="613.25" y="-23.7" font-family="Helvetica,sans-Serif" font-size="14.00">value = [11419, 98620]</text>
<text text-anchor="middle" x="613.25" y="-7.2" font-family="Helvetica,sans-Serif" font-size="14.00">class = approve</text>
</g>
<!-- 10&#45;&gt;11 -->
<g id="edge11" class="edge">
<title>10&#45;&gt;11</title>
<path fill="none" stroke="black" d="M701.37,-109.64C690.06,-100.44 678.16,-90.77 666.89,-81.61"/>
<polygon fill="black" stroke="black" points="669.16,-78.94 659.19,-75.35 664.74,-84.37 669.16,-78.94"/>
</g>
<!-- 12 -->
<g id="node13" class="node">
<title>12</title>
<polygon fill="none" stroke="black" points="858.12,-74 712.38,-74 712.38,0 858.12,0 858.12,-74"/>
<text text-anchor="middle" x="785.25" y="-56.7" font-family="Helvetica,sans-Serif" font-size="14.00">gini = 0.494</text>
<text text-anchor="middle" x="785.25" y="-40.2" font-family="Helvetica,sans-Serif" font-size="14.00">samples = 3692</text>
<text text-anchor="middle" x="785.25" y="-23.7" font-family="Helvetica,sans-Serif" font-size="14.00">value = [1640, 2052]</text>
<text text-anchor="middle" x="785.25" y="-7.2" font-family="Helvetica,sans-Serif" font-size="14.00">class = approve</text>
</g>
<!-- 10&#45;&gt;12 -->
<g id="edge12" class="edge">
<title>10&#45;&gt;12</title>
<path fill="none" stroke="black" d="M767.38,-109.64C769.36,-101.72 771.42,-93.44 773.41,-85.45"/>
<polygon fill="black" stroke="black" points="776.78,-86.41 775.8,-75.86 769.99,-84.72 776.78,-86.41"/>
</g>
<!-- 14 -->
<g id="node15" class="node">
<title>14</title>
<polygon fill="none" stroke="black" points="1005.88,-74 876.62,-74 876.62,0 1005.88,0 1005.88,-74"/>
<text text-anchor="middle" x="941.25" y="-56.7" font-family="Helvetica,sans-Serif" font-size="14.00">gini = 0.0</text>
<text text-anchor="middle" x="941.25" y="-40.2" font-family="Helvetica,sans-Serif" font-size="14.00">samples = 31663</text>
<text text-anchor="middle" x="941.25" y="-23.7" font-family="Helvetica,sans-Serif" font-size="14.00">value = [1, 31662]</text>
<text text-anchor="middle" x="941.25" y="-7.2" font-family="Helvetica,sans-Serif" font-size="14.00">class = approve</text>
</g>
<!-- 13&#45;&gt;14 -->
<g id="edge14" class="edge">
<title>13&#45;&gt;14</title>
<path fill="none" stroke="black" d="M959.12,-109.64C957.14,-101.72 955.08,-93.44 953.09,-85.45"/>
<polygon fill="black" stroke="black" points="956.51,-84.72 950.7,-75.86 949.72,-86.41 956.51,-84.72"/>
</g>
<!-- 15 -->
<g id="node16" class="node">
<title>15</title>
<polygon fill="none" stroke="black" points="1144.75,-74 1023.75,-74 1023.75,0 1144.75,0 1144.75,-74"/>
<text text-anchor="middle" x="1084.25" y="-56.7" font-family="Helvetica,sans-Serif" font-size="14.00">gini = 0.003</text>
<text text-anchor="middle" x="1084.25" y="-40.2" font-family="Helvetica,sans-Serif" font-size="14.00">samples = 4226</text>
<text text-anchor="middle" x="1084.25" y="-23.7" font-family="Helvetica,sans-Serif" font-size="14.00">value = [6, 4220]</text>
<text text-anchor="middle" x="1084.25" y="-7.2" font-family="Helvetica,sans-Serif" font-size="14.00">class = approve</text>
</g>
<!-- 13&#45;&gt;15 -->
<g id="edge15" class="edge">
<title>13&#45;&gt;15</title>
<path fill="none" stroke="black" d="M1014,-109.64C1022.75,-100.72 1031.94,-91.34 1040.68,-82.43"/>
<polygon fill="black" stroke="black" points="1043,-85.06 1047.5,-75.47 1038,-80.16 1043,-85.06"/>
</g>
<!-- 17 -->
<g id="node18" class="node">
<title>17</title>
<polygon fill="none" stroke="black" points="1570.88,-327 1363.62,-327 1363.62,-236.5 1570.88,-236.5 1570.88,-327"/>
<text text-anchor="middle" x="1467.25" y="-309.7" font-family="Helvetica,sans-Serif" font-size="14.00">debt_to_income_ratio &lt;= 17.5</text>
<text text-anchor="middle" x="1467.25" y="-293.2" font-family="Helvetica,sans-Serif" font-size="14.00">gini = 0.236</text>
<text text-anchor="middle" x="1467.25" y="-276.7" font-family="Helvetica,sans-Serif" font-size="14.00">samples = 11053</text>
<text text-anchor="middle" x="1467.25" y="-260.2" font-family="Helvetica,sans-Serif" font-size="14.00">value = [9542, 1511]</text>
<text text-anchor="middle" x="1467.25" y="-243.7" font-family="Helvetica,sans-Serif" font-size="14.00">class = deny</text>
</g>
<!-- 16&#45;&gt;17 -->
<g id="edge17" class="edge">
<title>16&#45;&gt;17</title>
<path fill="none" stroke="black" d="M1467.25,-362.65C1467.25,-354.97 1467.25,-346.89 1467.25,-338.94"/>
<polygon fill="black" stroke="black" points="1470.75,-338.97 1467.25,-328.97 1463.75,-338.97 1470.75,-338.97"/>
</g>
<!-- 24 -->
<g id="node25" class="node">
<title>24</title>
<polygon fill="none" stroke="black" points="1970.88,-327 1763.62,-327 1763.62,-236.5 1970.88,-236.5 1970.88,-327"/>
<text text-anchor="middle" x="1867.25" y="-309.7" font-family="Helvetica,sans-Serif" font-size="14.00">debt_to_income_ratio &lt;= 17.5</text>
<text text-anchor="middle" x="1867.25" y="-293.2" font-family="Helvetica,sans-Serif" font-size="14.00">gini = 0.077</text>
<text text-anchor="middle" x="1867.25" y="-276.7" font-family="Helvetica,sans-Serif" font-size="14.00">samples = 600</text>
<text text-anchor="middle" x="1867.25" y="-260.2" font-family="Helvetica,sans-Serif" font-size="14.00">value = [24, 576]</text>
<text text-anchor="middle" x="1867.25" y="-243.7" font-family="Helvetica,sans-Serif" font-size="14.00">class = approve</text>
</g>
<!-- 16&#45;&gt;24 -->
<g id="edge24" class="edge">
<title>16&#45;&gt;24</title>
<path fill="none" stroke="black" d="M1540.62,-384.41C1599.92,-365.96 1684.45,-339.65 1752.67,-318.41"/>
<polygon fill="black" stroke="black" points="1753.51,-321.82 1762.02,-315.5 1751.43,-315.13 1753.51,-321.82"/>
</g>
<!-- 18 -->
<g id="node19" class="node">
<title>18</title>
<polygon fill="none" stroke="black" points="1478.25,-200.5 1258.25,-200.5 1258.25,-110 1478.25,-110 1478.25,-200.5"/>
<text text-anchor="middle" x="1368.25" y="-183.2" font-family="Helvetica,sans-Serif" font-size="14.00">aus_Desktop Underwriter &lt;= 0.5</text>
<text text-anchor="middle" x="1368.25" y="-166.7" font-family="Helvetica,sans-Serif" font-size="14.00">gini = 0.409</text>
<text text-anchor="middle" x="1368.25" y="-150.2" font-family="Helvetica,sans-Serif" font-size="14.00">samples = 5164</text>
<text text-anchor="middle" x="1368.25" y="-133.7" font-family="Helvetica,sans-Serif" font-size="14.00">value = [3685, 1479]</text>
<text text-anchor="middle" x="1368.25" y="-117.2" font-family="Helvetica,sans-Serif" font-size="14.00">class = deny</text>
</g>
<!-- 17&#45;&gt;18 -->
<g id="edge18" class="edge">
<title>17&#45;&gt;18</title>
<path fill="none" stroke="black" d="M1431.79,-236.15C1425.04,-227.66 1417.9,-218.69 1410.95,-209.95"/>
<polygon fill="black" stroke="black" points="1413.7,-207.79 1404.74,-202.14 1408.22,-212.14 1413.7,-207.79"/>
</g>
<!-- 21 -->
<g id="node22" class="node">
<title>21</title>
<polygon fill="none" stroke="black" points="1635.75,-200.5 1496.75,-200.5 1496.75,-110 1635.75,-110 1635.75,-200.5"/>
<text text-anchor="middle" x="1566.25" y="-183.2" font-family="Helvetica,sans-Serif" font-size="14.00">interest_rate &lt;= 1.5</text>
<text text-anchor="middle" x="1566.25" y="-166.7" font-family="Helvetica,sans-Serif" font-size="14.00">gini = 0.011</text>
<text text-anchor="middle" x="1566.25" y="-150.2" font-family="Helvetica,sans-Serif" font-size="14.00">samples = 5889</text>
<text text-anchor="middle" x="1566.25" y="-133.7" font-family="Helvetica,sans-Serif" font-size="14.00">value = [5857, 32]</text>
<text text-anchor="middle" x="1566.25" y="-117.2" font-family="Helvetica,sans-Serif" font-size="14.00">class = deny</text>
</g>
<!-- 17&#45;&gt;21 -->
<g id="edge21" class="edge">
<title>17&#45;&gt;21</title>
<path fill="none" stroke="black" d="M1502.71,-236.15C1509.46,-227.66 1516.6,-218.69 1523.55,-209.95"/>
<polygon fill="black" stroke="black" points="1526.28,-212.14 1529.76,-202.14 1520.8,-207.79 1526.28,-212.14"/>
</g>
<!-- 19 -->
<g id="node20" class="node">
<title>19</title>
<polygon fill="none" stroke="black" points="1308.12,-74 1162.38,-74 1162.38,0 1308.12,0 1308.12,-74"/>
<text text-anchor="middle" x="1235.25" y="-56.7" font-family="Helvetica,sans-Serif" font-size="14.00">gini = 0.496</text>
<text text-anchor="middle" x="1235.25" y="-40.2" font-family="Helvetica,sans-Serif" font-size="14.00">samples = 2955</text>
<text text-anchor="middle" x="1235.25" y="-23.7" font-family="Helvetica,sans-Serif" font-size="14.00">value = [1614, 1341]</text>
<text text-anchor="middle" x="1235.25" y="-7.2" font-family="Helvetica,sans-Serif" font-size="14.00">class = deny</text>
</g>
<!-- 18&#45;&gt;19 -->
<g id="edge19" class="edge">
<title>18&#45;&gt;19</title>
<path fill="none" stroke="black" d="M1317.21,-109.64C1306.79,-100.53 1295.84,-90.96 1285.45,-81.88"/>
<polygon fill="black" stroke="black" points="1287.86,-79.34 1278.03,-75.39 1283.25,-84.61 1287.86,-79.34"/>
</g>
<!-- 20 -->
<g id="node21" class="node">
<title>20</title>
<polygon fill="none" stroke="black" points="1464,-74 1326.5,-74 1326.5,0 1464,0 1464,-74"/>
<text text-anchor="middle" x="1395.25" y="-56.7" font-family="Helvetica,sans-Serif" font-size="14.00">gini = 0.117</text>
<text text-anchor="middle" x="1395.25" y="-40.2" font-family="Helvetica,sans-Serif" font-size="14.00">samples = 2209</text>
<text text-anchor="middle" x="1395.25" y="-23.7" font-family="Helvetica,sans-Serif" font-size="14.00">value = [2071, 138]</text>
<text text-anchor="middle" x="1395.25" y="-7.2" font-family="Helvetica,sans-Serif" font-size="14.00">class = deny</text>
</g>
<!-- 18&#45;&gt;20 -->
<g id="edge20" class="edge">
<title>18&#45;&gt;20</title>
<path fill="none" stroke="black" d="M1378.61,-109.64C1380.45,-101.72 1382.37,-93.44 1384.23,-85.45"/>
<polygon fill="black" stroke="black" points="1387.6,-86.4 1386.45,-75.87 1380.78,-84.82 1387.6,-86.4"/>
</g>
<!-- 22 -->
<g id="node23" class="node">
<title>22</title>
<polygon fill="none" stroke="black" points="1598.5,-74 1482,-74 1482,0 1598.5,0 1598.5,-74"/>
<text text-anchor="middle" x="1540.25" y="-56.7" font-family="Helvetica,sans-Serif" font-size="14.00">gini = 0.0</text>
<text text-anchor="middle" x="1540.25" y="-40.2" font-family="Helvetica,sans-Serif" font-size="14.00">samples = 7</text>
<text text-anchor="middle" x="1540.25" y="-23.7" font-family="Helvetica,sans-Serif" font-size="14.00">value = [0, 7]</text>
<text text-anchor="middle" x="1540.25" y="-7.2" font-family="Helvetica,sans-Serif" font-size="14.00">class = approve</text>
</g>
<!-- 21&#45;&gt;22 -->
<g id="edge22" class="edge">
<title>21&#45;&gt;22</title>
<path fill="none" stroke="black" d="M1556.27,-109.64C1554.5,-101.72 1552.65,-93.44 1550.86,-85.45"/>
<polygon fill="black" stroke="black" points="1554.32,-84.87 1548.72,-75.87 1547.49,-86.39 1554.32,-84.87"/>
</g>
<!-- 23 -->
<g id="node24" class="node">
<title>23</title>
<polygon fill="none" stroke="black" points="1745.88,-74 1616.62,-74 1616.62,0 1745.88,0 1745.88,-74"/>
<text text-anchor="middle" x="1681.25" y="-56.7" font-family="Helvetica,sans-Serif" font-size="14.00">gini = 0.008</text>
<text text-anchor="middle" x="1681.25" y="-40.2" font-family="Helvetica,sans-Serif" font-size="14.00">samples = 5882</text>
<text text-anchor="middle" x="1681.25" y="-23.7" font-family="Helvetica,sans-Serif" font-size="14.00">value = [5857, 25]</text>
<text text-anchor="middle" x="1681.25" y="-7.2" font-family="Helvetica,sans-Serif" font-size="14.00">class = deny</text>
</g>
<!-- 21&#45;&gt;23 -->
<g id="edge23" class="edge">
<title>21&#45;&gt;23</title>
<path fill="none" stroke="black" d="M1610.38,-109.64C1619.21,-100.72 1628.48,-91.34 1637.3,-82.43"/>
<polygon fill="black" stroke="black" points="1639.64,-85.04 1644.18,-75.47 1634.66,-80.12 1639.64,-85.04"/>
</g>
<!-- 25 -->
<g id="node26" class="node">
<title>25</title>
<polygon fill="none" stroke="black" points="1928.88,-200.5 1805.62,-200.5 1805.62,-110 1928.88,-110 1928.88,-200.5"/>
<text text-anchor="middle" x="1867.25" y="-183.2" font-family="Helvetica,sans-Serif" font-size="14.00">loan_term &lt;= 0.5</text>
<text text-anchor="middle" x="1867.25" y="-166.7" font-family="Helvetica,sans-Serif" font-size="14.00">gini = 0.017</text>
<text text-anchor="middle" x="1867.25" y="-150.2" font-family="Helvetica,sans-Serif" font-size="14.00">samples = 579</text>
<text text-anchor="middle" x="1867.25" y="-133.7" font-family="Helvetica,sans-Serif" font-size="14.00">value = [5, 574]</text>
<text text-anchor="middle" x="1867.25" y="-117.2" font-family="Helvetica,sans-Serif" font-size="14.00">class = approve</text>
</g>
<!-- 24&#45;&gt;25 -->
<g id="edge25" class="edge">
<title>24&#45;&gt;25</title>
<path fill="none" stroke="black" d="M1867.25,-236.15C1867.25,-228.47 1867.25,-220.39 1867.25,-212.44"/>
<polygon fill="black" stroke="black" points="1870.75,-212.47 1867.25,-202.47 1863.75,-212.47 1870.75,-212.47"/>
</g>
<!-- 28 -->
<g id="node29" class="node">
<title>28</title>
<polygon fill="none" stroke="black" points="2140.75,-200.5 2001.75,-200.5 2001.75,-110 2140.75,-110 2140.75,-200.5"/>
<text text-anchor="middle" x="2071.25" y="-183.2" font-family="Helvetica,sans-Serif" font-size="14.00">interest_rate &lt;= 3.5</text>
<text text-anchor="middle" x="2071.25" y="-166.7" font-family="Helvetica,sans-Serif" font-size="14.00">gini = 0.172</text>
<text text-anchor="middle" x="2071.25" y="-150.2" font-family="Helvetica,sans-Serif" font-size="14.00">samples = 21</text>
<text text-anchor="middle" x="2071.25" y="-133.7" font-family="Helvetica,sans-Serif" font-size="14.00">value = [19, 2]</text>
<text text-anchor="middle" x="2071.25" y="-117.2" font-family="Helvetica,sans-Serif" font-size="14.00">class = deny</text>
</g>
<!-- 24&#45;&gt;28 -->
<g id="edge28" class="edge">
<title>24&#45;&gt;28</title>
<path fill="none" stroke="black" d="M1940.32,-236.15C1957.11,-225.91 1975.03,-214.97 1992.06,-204.58"/>
<polygon fill="black" stroke="black" points="1993.41,-207.85 2000.13,-199.66 1989.77,-201.88 1993.41,-207.85"/>
</g>
<!-- 26 -->
<g id="node27" class="node">
<title>26</title>
<polygon fill="none" stroke="black" points="1860.38,-74 1764.12,-74 1764.12,0 1860.38,0 1860.38,-74"/>
<text text-anchor="middle" x="1812.25" y="-56.7" font-family="Helvetica,sans-Serif" font-size="14.00">gini = 0.0</text>
<text text-anchor="middle" x="1812.25" y="-40.2" font-family="Helvetica,sans-Serif" font-size="14.00">samples = 1</text>
<text text-anchor="middle" x="1812.25" y="-23.7" font-family="Helvetica,sans-Serif" font-size="14.00">value = [1, 0]</text>
<text text-anchor="middle" x="1812.25" y="-7.2" font-family="Helvetica,sans-Serif" font-size="14.00">class = deny</text>
</g>
<!-- 25&#45;&gt;26 -->
<g id="edge26" class="edge">
<title>25&#45;&gt;26</title>
<path fill="none" stroke="black" d="M1846.14,-109.64C1842.27,-101.44 1838.21,-92.87 1834.31,-84.62"/>
<polygon fill="black" stroke="black" points="1837.56,-83.3 1830.12,-75.76 1831.23,-86.3 1837.56,-83.3"/>
</g>
<!-- 27 -->
<g id="node28" class="node">
<title>27</title>
<polygon fill="none" stroke="black" points="1994.5,-74 1878,-74 1878,0 1994.5,0 1994.5,-74"/>
<text text-anchor="middle" x="1936.25" y="-56.7" font-family="Helvetica,sans-Serif" font-size="14.00">gini = 0.014</text>
<text text-anchor="middle" x="1936.25" y="-40.2" font-family="Helvetica,sans-Serif" font-size="14.00">samples = 578</text>
<text text-anchor="middle" x="1936.25" y="-23.7" font-family="Helvetica,sans-Serif" font-size="14.00">value = [4, 574]</text>
<text text-anchor="middle" x="1936.25" y="-7.2" font-family="Helvetica,sans-Serif" font-size="14.00">class = approve</text>
</g>
<!-- 25&#45;&gt;27 -->
<g id="edge27" class="edge">
<title>25&#45;&gt;27</title>
<path fill="none" stroke="black" d="M1893.73,-109.64C1898.7,-101.26 1903.91,-92.49 1908.91,-84.07"/>
<polygon fill="black" stroke="black" points="1911.78,-86.08 1913.88,-75.7 1905.76,-82.51 1911.78,-86.08"/>
</g>
<!-- 29 -->
<g id="node30" class="node">
<title>29</title>
<polygon fill="none" stroke="black" points="2129.5,-74 2013,-74 2013,0 2129.5,0 2129.5,-74"/>
<text text-anchor="middle" x="2071.25" y="-56.7" font-family="Helvetica,sans-Serif" font-size="14.00">gini = 0.0</text>
<text text-anchor="middle" x="2071.25" y="-40.2" font-family="Helvetica,sans-Serif" font-size="14.00">samples = 2</text>
<text text-anchor="middle" x="2071.25" y="-23.7" font-family="Helvetica,sans-Serif" font-size="14.00">value = [0, 2]</text>
<text text-anchor="middle" x="2071.25" y="-7.2" font-family="Helvetica,sans-Serif" font-size="14.00">class = approve</text>
</g>
<!-- 28&#45;&gt;29 -->
<g id="edge29" class="edge">
<title>28&#45;&gt;29</title>
<path fill="none" stroke="black" d="M2071.25,-109.64C2071.25,-101.81 2071.25,-93.63 2071.25,-85.72"/>
<polygon fill="black" stroke="black" points="2074.75,-85.91 2071.25,-75.91 2067.75,-85.91 2074.75,-85.91"/>
</g>
<!-- 30 -->
<g id="node31" class="node">
<title>30</title>
<polygon fill="none" stroke="black" points="2252.5,-74 2148,-74 2148,0 2252.5,0 2252.5,-74"/>
<text text-anchor="middle" x="2200.25" y="-56.7" font-family="Helvetica,sans-Serif" font-size="14.00">gini = 0.0</text>
<text text-anchor="middle" x="2200.25" y="-40.2" font-family="Helvetica,sans-Serif" font-size="14.00">samples = 19</text>
<text text-anchor="middle" x="2200.25" y="-23.7" font-family="Helvetica,sans-Serif" font-size="14.00">value = [19, 0]</text>
<text text-anchor="middle" x="2200.25" y="-7.2" font-family="Helvetica,sans-Serif" font-size="14.00">class = deny</text>
</g>
<!-- 28&#45;&gt;30 -->
<g id="edge30" class="edge">
<title>28&#45;&gt;30</title>
<path fill="none" stroke="black" d="M2120.76,-109.64C2130.86,-100.53 2141.48,-90.96 2151.55,-81.88"/>
<polygon fill="black" stroke="black" points="2153.65,-84.7 2158.74,-75.41 2148.97,-79.5 2153.65,-84.7"/>
</g>
</g>
</svg>
