<?xml version="1.0" encoding="UTF-8" standalone="no"?>
<!DOCTYPE svg PUBLIC "-//W3C//DTD SVG 1.1//EN"
 "http://www.w3.org/Graphics/SVG/1.1/DTD/svg11.dtd">
<!-- Generated by graphviz version 10.0.1 (20240210.2158)
 -->
<!-- Title: Tree Pages: 1 -->
<svg width="1778pt" height="588pt"
 viewBox="0.00 0.00 1777.88 588.00" xmlns="http://www.w3.org/2000/svg" xmlns:xlink="http://www.w3.org/1999/xlink">
<g id="graph0" class="graph" transform="scale(1 1) rotate(0) translate(4 584)">
<title>Tree</title>
<polygon fill="white" stroke="none" points="-4,4 -4,-584 1773.88,-584 1773.88,4 -4,4"/>
<!-- 0 -->
<g id="node1" class="node">
<title>0</title>
<polygon fill="none" stroke="black" points="944.12,-580 763.12,-580 763.12,-489.5 944.12,-489.5 944.12,-580"/>
<text text-anchor="middle" x="853.62" y="-562.7" font-family="Helvetica,sans-Serif" font-size="14.00">aus_Not applicable &lt;= 0.5</text>
<text text-anchor="middle" x="853.62" y="-546.2" font-family="Helvetica,sans-Serif" font-size="14.00">gini = 0.248</text>
<text text-anchor="middle" x="853.62" y="-529.7" font-family="Helvetica,sans-Serif" font-size="14.00">samples = 162656</text>
<text text-anchor="middle" x="853.62" y="-513.2" font-family="Helvetica,sans-Serif" font-size="14.00">value = [23538, 139118]</text>
<text text-anchor="middle" x="853.62" y="-496.7" font-family="Helvetica,sans-Serif" font-size="14.00">class = approve</text>
</g>
<!-- 1 -->
<g id="node2" class="node">
<title>1</title>
<polygon fill="none" stroke="black" points="839.88,-453.5 669.38,-453.5 669.38,-363 839.88,-363 839.88,-453.5"/>
<text text-anchor="middle" x="754.62" y="-436.2" font-family="Helvetica,sans-Serif" font-size="14.00">interest_rate &lt;= 2.5</text>
<text text-anchor="middle" x="754.62" y="-419.7" font-family="Helvetica,sans-Serif" font-size="14.00">gini = 0.221</text>
<text text-anchor="middle" x="754.62" y="-403.2" font-family="Helvetica,sans-Serif" font-size="14.00">samples = 155311</text>
<text text-anchor="middle" x="754.62" y="-386.7" font-family="Helvetica,sans-Serif" font-size="14.00">value = [19628, 135683]</text>
<text text-anchor="middle" x="754.62" y="-370.2" font-family="Helvetica,sans-Serif" font-size="14.00">class = approve</text>
</g>
<!-- 0&#45;&gt;1 -->
<g id="edge1" class="edge">
<title>0&#45;&gt;1</title>
<path fill="none" stroke="black" d="M818.16,-489.15C811.41,-480.66 804.28,-471.69 797.33,-462.95"/>
<polygon fill="black" stroke="black" points="800.08,-460.79 791.11,-455.14 794.6,-465.14 800.08,-460.79"/>
<text text-anchor="middle" x="787.34" y="-473.74" font-family="Helvetica,sans-Serif" font-size="14.00">True</text>
</g>
<!-- 14 -->
<g id="node15" class="node">
<title>14</title>
<polygon fill="none" stroke="black" points="1039.5,-453.5 893.75,-453.5 893.75,-363 1039.5,-363 1039.5,-453.5"/>
<text text-anchor="middle" x="966.62" y="-436.2" font-family="Helvetica,sans-Serif" font-size="14.00">interest_rate &lt;= 2.5</text>
<text text-anchor="middle" x="966.62" y="-419.7" font-family="Helvetica,sans-Serif" font-size="14.00">gini = 0.498</text>
<text text-anchor="middle" x="966.62" y="-403.2" font-family="Helvetica,sans-Serif" font-size="14.00">samples = 7345</text>
<text text-anchor="middle" x="966.62" y="-386.7" font-family="Helvetica,sans-Serif" font-size="14.00">value = [3910, 3435]</text>
<text text-anchor="middle" x="966.62" y="-370.2" font-family="Helvetica,sans-Serif" font-size="14.00">class = deny</text>
</g>
<!-- 0&#45;&gt;14 -->
<g id="edge14" class="edge">
<title>0&#45;&gt;14</title>
<path fill="none" stroke="black" d="M894.1,-489.15C901.97,-480.48 910.29,-471.31 918.39,-462.4"/>
<polygon fill="black" stroke="black" points="920.91,-464.83 925.03,-455.07 915.72,-460.13 920.91,-464.83"/>
<text text-anchor="middle" x="927.26" y="-473.87" font-family="Helvetica,sans-Serif" font-size="14.00">False</text>
</g>
<!-- 2 -->
<g id="node3" class="node">
<title>2</title>
<polygon fill="none" stroke="black" points="567.75,-327 357.5,-327 357.5,-236.5 567.75,-236.5 567.75,-327"/>
<text text-anchor="middle" x="462.62" y="-309.7" font-family="Helvetica,sans-Serif" font-size="14.00">aus_Internal Proprietary &lt;= 0.5</text>
<text text-anchor="middle" x="462.62" y="-293.2" font-family="Helvetica,sans-Serif" font-size="14.00">gini = 0.274</text>
<text text-anchor="middle" x="462.62" y="-276.7" font-family="Helvetica,sans-Serif" font-size="14.00">samples = 119725</text>
<text text-anchor="middle" x="462.62" y="-260.2" font-family="Helvetica,sans-Serif" font-size="14.00">value = [19600, 100125]</text>
<text text-anchor="middle" x="462.62" y="-243.7" font-family="Helvetica,sans-Serif" font-size="14.00">class = approve</text>
</g>
<!-- 1&#45;&gt;2 -->
<g id="edge2" class="edge">
<title>1&#45;&gt;2</title>
<path fill="none" stroke="black" d="M668.99,-370.74C640.41,-358.55 608.09,-344.77 577.66,-331.8"/>
<polygon fill="black" stroke="black" points="579.38,-328.73 568.81,-328.02 576.63,-335.16 579.38,-328.73"/>
</g>
<!-- 9 -->
<g id="node10" class="node">
<title>9</title>
<polygon fill="none" stroke="black" points="862.38,-327 646.88,-327 646.88,-236.5 862.38,-236.5 862.38,-327"/>
<text text-anchor="middle" x="754.62" y="-309.7" font-family="Helvetica,sans-Serif" font-size="14.00">open&#45;end_line_of_credit &lt;= 0.5</text>
<text text-anchor="middle" x="754.62" y="-293.2" font-family="Helvetica,sans-Serif" font-size="14.00">gini = 0.002</text>
<text text-anchor="middle" x="754.62" y="-276.7" font-family="Helvetica,sans-Serif" font-size="14.00">samples = 35586</text>
<text text-anchor="middle" x="754.62" y="-260.2" font-family="Helvetica,sans-Serif" font-size="14.00">value = [28, 35558]</text>
<text text-anchor="middle" x="754.62" y="-243.7" font-family="Helvetica,sans-Serif" font-size="14.00">class = approve</text>
</g>
<!-- 1&#45;&gt;9 -->
<g id="edge9" class="edge">
<title>1&#45;&gt;9</title>
<path fill="none" stroke="black" d="M754.62,-362.65C754.62,-354.97 754.62,-346.89 754.62,-338.94"/>
<polygon fill="black" stroke="black" points="758.13,-338.97 754.63,-328.97 751.13,-338.97 758.13,-338.97"/>
</g>
<!-- 3 -->
<g id="node4" class="node">
<title>3</title>
<polygon fill="none" stroke="black" points="309.75,-200.5 147.5,-200.5 147.5,-110 309.75,-110 309.75,-200.5"/>
<text text-anchor="middle" x="228.62" y="-183.2" font-family="Helvetica,sans-Serif" font-size="14.00">income &lt;= 1.5</text>
<text text-anchor="middle" x="228.62" y="-166.7" font-family="Helvetica,sans-Serif" font-size="14.00">gini = 0.232</text>
<text text-anchor="middle" x="228.62" y="-150.2" font-family="Helvetica,sans-Serif" font-size="14.00">samples = 106319</text>
<text text-anchor="middle" x="228.62" y="-133.7" font-family="Helvetica,sans-Serif" font-size="14.00">value = [14265, 92054]</text>
<text text-anchor="middle" x="228.62" y="-117.2" font-family="Helvetica,sans-Serif" font-size="14.00">class = approve</text>
</g>
<!-- 2&#45;&gt;3 -->
<g id="edge3" class="edge">
<title>2&#45;&gt;3</title>
<path fill="none" stroke="black" d="M378.81,-236.15C359.71,-225.99 339.33,-215.15 319.94,-204.83"/>
<polygon fill="black" stroke="black" points="321.71,-201.81 311.23,-200.2 318.42,-207.99 321.71,-201.81"/>
</g>
<!-- 6 -->
<g id="node7" class="node">
<title>6</title>
<polygon fill="none" stroke="black" points="572.62,-200.5 352.62,-200.5 352.62,-110 572.62,-110 572.62,-200.5"/>
<text text-anchor="middle" x="462.62" y="-183.2" font-family="Helvetica,sans-Serif" font-size="14.00">aus_Desktop Underwriter &lt;= 0.5</text>
<text text-anchor="middle" x="462.62" y="-166.7" font-family="Helvetica,sans-Serif" font-size="14.00">gini = 0.479</text>
<text text-anchor="middle" x="462.62" y="-150.2" font-family="Helvetica,sans-Serif" font-size="14.00">samples = 13406</text>
<text text-anchor="middle" x="462.62" y="-133.7" font-family="Helvetica,sans-Serif" font-size="14.00">value = [5335, 8071]</text>
<text text-anchor="middle" x="462.62" y="-117.2" font-family="Helvetica,sans-Serif" font-size="14.00">class = approve</text>
</g>
<!-- 2&#45;&gt;6 -->
<g id="edge6" class="edge">
<title>2&#45;&gt;6</title>
<path fill="none" stroke="black" d="M462.62,-236.15C462.62,-228.47 462.62,-220.39 462.62,-212.44"/>
<polygon fill="black" stroke="black" points="466.13,-212.47 462.63,-202.47 459.13,-212.47 466.13,-212.47"/>
</g>
<!-- 4 -->
<g id="node5" class="node">
<title>4</title>
<polygon fill="none" stroke="black" points="129.25,-74 0,-74 0,0 129.25,0 129.25,-74"/>
<text text-anchor="middle" x="64.62" y="-56.7" font-family="Helvetica,sans-Serif" font-size="14.00">gini = 0.294</text>
<text text-anchor="middle" x="64.62" y="-40.2" font-family="Helvetica,sans-Serif" font-size="14.00">samples = 1104</text>
<text text-anchor="middle" x="64.62" y="-23.7" font-family="Helvetica,sans-Serif" font-size="14.00">value = [906, 198]</text>
<text text-anchor="middle" x="64.62" y="-7.2" font-family="Helvetica,sans-Serif" font-size="14.00">class = deny</text>
</g>
<!-- 3&#45;&gt;4 -->
<g id="edge4" class="edge">
<title>3&#45;&gt;4</title>
<path fill="none" stroke="black" d="M165.69,-109.64C152.33,-100.17 138.26,-90.19 125,-80.8"/>
<polygon fill="black" stroke="black" points="127.38,-78.2 117.2,-75.27 123.34,-83.91 127.38,-78.2"/>
</g>
<!-- 5 -->
<g id="node6" class="node">
<title>5</title>
<polygon fill="none" stroke="black" points="309.75,-74 147.5,-74 147.5,0 309.75,0 309.75,-74"/>
<text text-anchor="middle" x="228.62" y="-56.7" font-family="Helvetica,sans-Serif" font-size="14.00">gini = 0.222</text>
<text text-anchor="middle" x="228.62" y="-40.2" font-family="Helvetica,sans-Serif" font-size="14.00">samples = 105215</text>
<text text-anchor="middle" x="228.62" y="-23.7" font-family="Helvetica,sans-Serif" font-size="14.00">value = [13359, 91856]</text>
<text text-anchor="middle" x="228.62" y="-7.2" font-family="Helvetica,sans-Serif" font-size="14.00">class = approve</text>
</g>
<!-- 3&#45;&gt;5 -->
<g id="edge5" class="edge">
<title>3&#45;&gt;5</title>
<path fill="none" stroke="black" d="M228.62,-109.64C228.62,-101.81 228.62,-93.63 228.62,-85.72"/>
<polygon fill="black" stroke="black" points="232.13,-85.91 228.63,-75.91 225.13,-85.91 232.13,-85.91"/>
</g>
<!-- 7 -->
<g id="node8" class="node">
<title>7</title>
<polygon fill="none" stroke="black" points="473.5,-74 327.75,-74 327.75,0 473.5,0 473.5,-74"/>
<text text-anchor="middle" x="400.62" y="-56.7" font-family="Helvetica,sans-Serif" font-size="14.00">gini = 0.388</text>
<text text-anchor="middle" x="400.62" y="-40.2" font-family="Helvetica,sans-Serif" font-size="14.00">samples = 9504</text>
<text text-anchor="middle" x="400.62" y="-23.7" font-family="Helvetica,sans-Serif" font-size="14.00">value = [2498, 7006]</text>
<text text-anchor="middle" x="400.62" y="-7.2" font-family="Helvetica,sans-Serif" font-size="14.00">class = approve</text>
</g>
<!-- 6&#45;&gt;7 -->
<g id="edge7" class="edge">
<title>6&#45;&gt;7</title>
<path fill="none" stroke="black" d="M438.83,-109.64C434.41,-101.35 429.79,-92.68 425.34,-84.34"/>
<polygon fill="black" stroke="black" points="428.54,-82.91 420.75,-75.73 422.36,-86.2 428.54,-82.91"/>
</g>
<!-- 8 -->
<g id="node9" class="node">
<title>8</title>
<polygon fill="none" stroke="black" points="637.5,-74 491.75,-74 491.75,0 637.5,0 637.5,-74"/>
<text text-anchor="middle" x="564.62" y="-56.7" font-family="Helvetica,sans-Serif" font-size="14.00">gini = 0.397</text>
<text text-anchor="middle" x="564.62" y="-40.2" font-family="Helvetica,sans-Serif" font-size="14.00">samples = 3902</text>
<text text-anchor="middle" x="564.62" y="-23.7" font-family="Helvetica,sans-Serif" font-size="14.00">value = [2837, 1065]</text>
<text text-anchor="middle" x="564.62" y="-7.2" font-family="Helvetica,sans-Serif" font-size="14.00">class = deny</text>
</g>
<!-- 6&#45;&gt;8 -->
<g id="edge8" class="edge">
<title>6&#45;&gt;8</title>
<path fill="none" stroke="black" d="M501.77,-109.64C509.44,-100.9 517.49,-91.73 525.16,-82.97"/>
<polygon fill="black" stroke="black" points="527.73,-85.36 531.69,-75.53 522.47,-80.74 527.73,-85.36"/>
</g>
<!-- 10 -->
<g id="node11" class="node">
<title>10</title>
<polygon fill="none" stroke="black" points="698.75,-192.25 602.5,-192.25 602.5,-118.25 698.75,-118.25 698.75,-192.25"/>
<text text-anchor="middle" x="650.62" y="-174.95" font-family="Helvetica,sans-Serif" font-size="14.00">gini = 0.0</text>
<text text-anchor="middle" x="650.62" y="-158.45" font-family="Helvetica,sans-Serif" font-size="14.00">samples = 1</text>
<text text-anchor="middle" x="650.62" y="-141.95" font-family="Helvetica,sans-Serif" font-size="14.00">value = [1, 0]</text>
<text text-anchor="middle" x="650.62" y="-125.45" font-family="Helvetica,sans-Serif" font-size="14.00">class = deny</text>
</g>
<!-- 9&#45;&gt;10 -->
<g id="edge10" class="edge">
<title>9&#45;&gt;10</title>
<path fill="none" stroke="black" d="M717.37,-236.15C707.8,-224.7 697.51,-212.38 687.94,-200.92"/>
<polygon fill="black" stroke="black" points="690.85,-198.95 681.76,-193.52 685.48,-203.44 690.85,-198.95"/>
</g>
<!-- 11 -->
<g id="node12" class="node">
<title>11</title>
<polygon fill="none" stroke="black" points="854.38,-200.5 716.88,-200.5 716.88,-110 854.38,-110 854.38,-200.5"/>
<text text-anchor="middle" x="785.62" y="-183.2" font-family="Helvetica,sans-Serif" font-size="14.00">income &lt;= 1.5</text>
<text text-anchor="middle" x="785.62" y="-166.7" font-family="Helvetica,sans-Serif" font-size="14.00">gini = 0.002</text>
<text text-anchor="middle" x="785.62" y="-150.2" font-family="Helvetica,sans-Serif" font-size="14.00">samples = 35585</text>
<text text-anchor="middle" x="785.62" y="-133.7" font-family="Helvetica,sans-Serif" font-size="14.00">value = [27, 35558]</text>
<text text-anchor="middle" x="785.62" y="-117.2" font-family="Helvetica,sans-Serif" font-size="14.00">class = approve</text>
</g>
<!-- 9&#45;&gt;11 -->
<g id="edge11" class="edge">
<title>9&#45;&gt;11</title>
<path fill="none" stroke="black" d="M765.73,-236.15C767.69,-228.29 769.75,-220.01 771.77,-211.89"/>
<polygon fill="black" stroke="black" points="775.11,-212.97 774.13,-202.42 768.32,-211.28 775.11,-212.97"/>
</g>
<!-- 12 -->
<g id="node13" class="node">
<title>12</title>
<polygon fill="none" stroke="black" points="771.88,-74 655.38,-74 655.38,0 771.88,0 771.88,-74"/>
<text text-anchor="middle" x="713.62" y="-56.7" font-family="Helvetica,sans-Serif" font-size="14.00">gini = 0.064</text>
<text text-anchor="middle" x="713.62" y="-40.2" font-family="Helvetica,sans-Serif" font-size="14.00">samples = 121</text>
<text text-anchor="middle" x="713.62" y="-23.7" font-family="Helvetica,sans-Serif" font-size="14.00">value = [4, 117]</text>
<text text-anchor="middle" x="713.62" y="-7.2" font-family="Helvetica,sans-Serif" font-size="14.00">class = approve</text>
</g>
<!-- 11&#45;&gt;12 -->
<g id="edge12" class="edge">
<title>11&#45;&gt;12</title>
<path fill="none" stroke="black" d="M757.99,-109.64C752.81,-101.26 747.37,-92.49 742.16,-84.07"/>
<polygon fill="black" stroke="black" points="745.2,-82.34 736.96,-75.68 739.25,-86.02 745.2,-82.34"/>
</g>
<!-- 13 -->
<g id="node14" class="node">
<title>13</title>
<polygon fill="none" stroke="black" points="927.38,-74 789.88,-74 789.88,0 927.38,0 927.38,-74"/>
<text text-anchor="middle" x="858.62" y="-56.7" font-family="Helvetica,sans-Serif" font-size="14.00">gini = 0.001</text>
<text text-anchor="middle" x="858.62" y="-40.2" font-family="Helvetica,sans-Serif" font-size="14.00">samples = 35464</text>
<text text-anchor="middle" x="858.62" y="-23.7" font-family="Helvetica,sans-Serif" font-size="14.00">value = [23, 35441]</text>
<text text-anchor="middle" x="858.62" y="-7.2" font-family="Helvetica,sans-Serif" font-size="14.00">class = approve</text>
</g>
<!-- 11&#45;&gt;13 -->
<g id="edge13" class="edge">
<title>11&#45;&gt;13</title>
<path fill="none" stroke="black" d="M813.64,-109.64C818.9,-101.26 824.41,-92.49 829.7,-84.07"/>
<polygon fill="black" stroke="black" points="832.61,-86.01 834.97,-75.68 826.68,-82.28 832.61,-86.01"/>
</g>
<!-- 15 -->
<g id="node16" class="node">
<title>15</title>
<polygon fill="none" stroke="black" points="1039.5,-327 893.75,-327 893.75,-236.5 1039.5,-236.5 1039.5,-327"/>
<text text-anchor="middle" x="966.62" y="-309.7" font-family="Helvetica,sans-Serif" font-size="14.00">interest_rate &lt;= 1.5</text>
<text text-anchor="middle" x="966.62" y="-293.2" font-family="Helvetica,sans-Serif" font-size="14.00">gini = 0.471</text>
<text text-anchor="middle" x="966.62" y="-276.7" font-family="Helvetica,sans-Serif" font-size="14.00">samples = 6302</text>
<text text-anchor="middle" x="966.62" y="-260.2" font-family="Helvetica,sans-Serif" font-size="14.00">value = [3907, 2395]</text>
<text text-anchor="middle" x="966.62" y="-243.7" font-family="Helvetica,sans-Serif" font-size="14.00">class = deny</text>
</g>
<!-- 14&#45;&gt;15 -->
<g id="edge15" class="edge">
<title>14&#45;&gt;15</title>
<path fill="none" stroke="black" d="M966.62,-362.65C966.62,-354.97 966.62,-346.89 966.62,-338.94"/>
<polygon fill="black" stroke="black" points="970.13,-338.97 966.63,-328.97 963.13,-338.97 970.13,-338.97"/>
</g>
<!-- 20 -->
<g id="node21" class="node">
<title>20</title>
<polygon fill="none" stroke="black" points="1388.12,-327 1267.12,-327 1267.12,-236.5 1388.12,-236.5 1388.12,-327"/>
<text text-anchor="middle" x="1327.62" y="-309.7" font-family="Helvetica,sans-Serif" font-size="14.00">income &lt;= 3.5</text>
<text text-anchor="middle" x="1327.62" y="-293.2" font-family="Helvetica,sans-Serif" font-size="14.00">gini = 0.006</text>
<text text-anchor="middle" x="1327.62" y="-276.7" font-family="Helvetica,sans-Serif" font-size="14.00">samples = 1043</text>
<text text-anchor="middle" x="1327.62" y="-260.2" font-family="Helvetica,sans-Serif" font-size="14.00">value = [3, 1040]</text>
<text text-anchor="middle" x="1327.62" y="-243.7" font-family="Helvetica,sans-Serif" font-size="14.00">class = approve</text>
</g>
<!-- 14&#45;&gt;20 -->
<g id="edge20" class="edge">
<title>14&#45;&gt;20</title>
<path fill="none" stroke="black" d="M1039.68,-382.06C1102.78,-360.29 1193.43,-329.03 1256.08,-307.42"/>
<polygon fill="black" stroke="black" points="1256.92,-310.84 1265.24,-304.27 1254.64,-304.22 1256.92,-310.84"/>
</g>
<!-- 16 -->
<g id="node17" class="node">
<title>16</title>
<polygon fill="none" stroke="black" points="994.88,-192.25 878.38,-192.25 878.38,-118.25 994.88,-118.25 994.88,-192.25"/>
<text text-anchor="middle" x="936.62" y="-174.95" font-family="Helvetica,sans-Serif" font-size="14.00">gini = 0.0</text>
<text text-anchor="middle" x="936.62" y="-158.45" font-family="Helvetica,sans-Serif" font-size="14.00">samples = 951</text>
<text text-anchor="middle" x="936.62" y="-141.95" font-family="Helvetica,sans-Serif" font-size="14.00">value = [0, 951]</text>
<text text-anchor="middle" x="936.62" y="-125.45" font-family="Helvetica,sans-Serif" font-size="14.00">class = approve</text>
</g>
<!-- 15&#45;&gt;16 -->
<g id="edge16" class="edge">
<title>15&#45;&gt;16</title>
<path fill="none" stroke="black" d="M955.88,-236.15C953.31,-225.49 950.56,-214.06 947.96,-203.29"/>
<polygon fill="black" stroke="black" points="951.43,-202.73 945.68,-193.83 944.62,-204.37 951.43,-202.73"/>
</g>
<!-- 17 -->
<g id="node18" class="node">
<title>17</title>
<polygon fill="none" stroke="black" points="1176.5,-200.5 1012.75,-200.5 1012.75,-110 1176.5,-110 1176.5,-200.5"/>
<text text-anchor="middle" x="1094.62" y="-183.2" font-family="Helvetica,sans-Serif" font-size="14.00">total_loan_costs &lt;= 1.5</text>
<text text-anchor="middle" x="1094.62" y="-166.7" font-family="Helvetica,sans-Serif" font-size="14.00">gini = 0.394</text>
<text text-anchor="middle" x="1094.62" y="-150.2" font-family="Helvetica,sans-Serif" font-size="14.00">samples = 5351</text>
<text text-anchor="middle" x="1094.62" y="-133.7" font-family="Helvetica,sans-Serif" font-size="14.00">value = [3907, 1444]</text>
<text text-anchor="middle" x="1094.62" y="-117.2" font-family="Helvetica,sans-Serif" font-size="14.00">class = deny</text>
</g>
<!-- 15&#45;&gt;17 -->
<g id="edge17" class="edge">
<title>15&#45;&gt;17</title>
<path fill="none" stroke="black" d="M1012.47,-236.15C1021.57,-227.3 1031.21,-217.93 1040.55,-208.85"/>
<polygon fill="black" stroke="black" points="1042.85,-211.49 1047.58,-202.01 1037.97,-206.47 1042.85,-211.49"/>
</g>
<!-- 18 -->
<g id="node19" class="node">
<title>18</title>
<polygon fill="none" stroke="black" points="1091.5,-74 945.75,-74 945.75,0 1091.5,0 1091.5,-74"/>
<text text-anchor="middle" x="1018.62" y="-56.7" font-family="Helvetica,sans-Serif" font-size="14.00">gini = 0.369</text>
<text text-anchor="middle" x="1018.62" y="-40.2" font-family="Helvetica,sans-Serif" font-size="14.00">samples = 5045</text>
<text text-anchor="middle" x="1018.62" y="-23.7" font-family="Helvetica,sans-Serif" font-size="14.00">value = [3815, 1230]</text>
<text text-anchor="middle" x="1018.62" y="-7.2" font-family="Helvetica,sans-Serif" font-size="14.00">class = deny</text>
</g>
<!-- 17&#45;&gt;18 -->
<g id="edge18" class="edge">
<title>17&#45;&gt;18</title>
<path fill="none" stroke="black" d="M1065.46,-109.64C1059.92,-101.17 1054.12,-92.3 1048.56,-83.8"/>
<polygon fill="black" stroke="black" points="1051.65,-82.12 1043.25,-75.66 1045.79,-85.95 1051.65,-82.12"/>
</g>
<!-- 19 -->
<g id="node20" class="node">
<title>19</title>
<polygon fill="none" stroke="black" points="1230.12,-74 1109.12,-74 1109.12,0 1230.12,0 1230.12,-74"/>
<text text-anchor="middle" x="1169.62" y="-56.7" font-family="Helvetica,sans-Serif" font-size="14.00">gini = 0.421</text>
<text text-anchor="middle" x="1169.62" y="-40.2" font-family="Helvetica,sans-Serif" font-size="14.00">samples = 306</text>
<text text-anchor="middle" x="1169.62" y="-23.7" font-family="Helvetica,sans-Serif" font-size="14.00">value = [92, 214]</text>
<text text-anchor="middle" x="1169.62" y="-7.2" font-family="Helvetica,sans-Serif" font-size="14.00">class = approve</text>
</g>
<!-- 17&#45;&gt;19 -->
<g id="edge19" class="edge">
<title>17&#45;&gt;19</title>
<path fill="none" stroke="black" d="M1123.41,-109.64C1128.87,-101.17 1134.59,-92.3 1140.08,-83.8"/>
<polygon fill="black" stroke="black" points="1142.84,-85.97 1145.32,-75.67 1136.96,-82.17 1142.84,-85.97"/>
</g>
<!-- 21 -->
<g id="node22" class="node">
<title>21</title>
<polygon fill="none" stroke="black" points="1457.5,-200.5 1197.75,-200.5 1197.75,-110 1457.5,-110 1457.5,-200.5"/>
<text text-anchor="middle" x="1327.62" y="-183.2" font-family="Helvetica,sans-Serif" font-size="14.00">co&#45;applicant_credit_score_type &lt;= 0.5</text>
<text text-anchor="middle" x="1327.62" y="-166.7" font-family="Helvetica,sans-Serif" font-size="14.00">gini = 0.002</text>
<text text-anchor="middle" x="1327.62" y="-150.2" font-family="Helvetica,sans-Serif" font-size="14.00">samples = 1014</text>
<text text-anchor="middle" x="1327.62" y="-133.7" font-family="Helvetica,sans-Serif" font-size="14.00">value = [1, 1013]</text>
<text text-anchor="middle" x="1327.62" y="-117.2" font-family="Helvetica,sans-Serif" font-size="14.00">class = approve</text>
</g>
<!-- 20&#45;&gt;21 -->
<g id="edge21" class="edge">
<title>20&#45;&gt;21</title>
<path fill="none" stroke="black" d="M1327.62,-236.15C1327.62,-228.47 1327.62,-220.39 1327.62,-212.44"/>
<polygon fill="black" stroke="black" points="1331.13,-212.47 1327.63,-202.47 1324.13,-212.47 1331.13,-212.47"/>
</g>
<!-- 24 -->
<g id="node25" class="node">
<title>24</title>
<polygon fill="none" stroke="black" points="1657,-200.5 1496.25,-200.5 1496.25,-110 1657,-110 1657,-200.5"/>
<text text-anchor="middle" x="1576.62" y="-183.2" font-family="Helvetica,sans-Serif" font-size="14.00">tract_population &lt;= 3.5</text>
<text text-anchor="middle" x="1576.62" y="-166.7" font-family="Helvetica,sans-Serif" font-size="14.00">gini = 0.128</text>
<text text-anchor="middle" x="1576.62" y="-150.2" font-family="Helvetica,sans-Serif" font-size="14.00">samples = 29</text>
<text text-anchor="middle" x="1576.62" y="-133.7" font-family="Helvetica,sans-Serif" font-size="14.00">value = [2, 27]</text>
<text text-anchor="middle" x="1576.62" y="-117.2" font-family="Helvetica,sans-Serif" font-size="14.00">class = approve</text>
</g>
<!-- 20&#45;&gt;24 -->
<g id="edge24" class="edge">
<title>20&#45;&gt;24</title>
<path fill="none" stroke="black" d="M1388.54,-250.29C1417.9,-235.61 1453.7,-217.71 1486.16,-201.48"/>
<polygon fill="black" stroke="black" points="1487.39,-204.78 1494.77,-197.18 1484.26,-198.52 1487.39,-204.78"/>
</g>
<!-- 22 -->
<g id="node23" class="node">
<title>22</title>
<polygon fill="none" stroke="black" points="1364.88,-74 1248.38,-74 1248.38,0 1364.88,0 1364.88,-74"/>
<text text-anchor="middle" x="1306.62" y="-56.7" font-family="Helvetica,sans-Serif" font-size="14.00">gini = 0.03</text>
<text text-anchor="middle" x="1306.62" y="-40.2" font-family="Helvetica,sans-Serif" font-size="14.00">samples = 66</text>
<text text-anchor="middle" x="1306.62" y="-23.7" font-family="Helvetica,sans-Serif" font-size="14.00">value = [1, 65]</text>
<text text-anchor="middle" x="1306.62" y="-7.2" font-family="Helvetica,sans-Serif" font-size="14.00">class = approve</text>
</g>
<!-- 21&#45;&gt;22 -->
<g id="edge22" class="edge">
<title>21&#45;&gt;22</title>
<path fill="none" stroke="black" d="M1319.57,-109.64C1318.15,-101.81 1316.67,-93.63 1315.25,-85.72"/>
<polygon fill="black" stroke="black" points="1318.69,-85.1 1313.47,-75.88 1311.8,-86.35 1318.69,-85.1"/>
</g>
<!-- 23 -->
<g id="node24" class="node">
<title>23</title>
<polygon fill="none" stroke="black" points="1499.88,-74 1383.38,-74 1383.38,0 1499.88,0 1499.88,-74"/>
<text text-anchor="middle" x="1441.62" y="-56.7" font-family="Helvetica,sans-Serif" font-size="14.00">gini = 0.0</text>
<text text-anchor="middle" x="1441.62" y="-40.2" font-family="Helvetica,sans-Serif" font-size="14.00">samples = 948</text>
<text text-anchor="middle" x="1441.62" y="-23.7" font-family="Helvetica,sans-Serif" font-size="14.00">value = [0, 948]</text>
<text text-anchor="middle" x="1441.62" y="-7.2" font-family="Helvetica,sans-Serif" font-size="14.00">class = approve</text>
</g>
<!-- 21&#45;&gt;23 -->
<g id="edge23" class="edge">
<title>21&#45;&gt;23</title>
<path fill="none" stroke="black" d="M1371.37,-109.64C1380.12,-100.72 1389.31,-91.34 1398.06,-82.43"/>
<polygon fill="black" stroke="black" points="1400.37,-85.06 1404.88,-75.47 1395.38,-80.16 1400.37,-85.06"/>
</g>
<!-- 25 -->
<g id="node26" class="node">
<title>25</title>
<polygon fill="none" stroke="black" points="1634.88,-74 1518.38,-74 1518.38,0 1634.88,0 1634.88,-74"/>
<text text-anchor="middle" x="1576.62" y="-56.7" font-family="Helvetica,sans-Serif" font-size="14.00">gini = 0.0</text>
<text text-anchor="middle" x="1576.62" y="-40.2" font-family="Helvetica,sans-Serif" font-size="14.00">samples = 24</text>
<text text-anchor="middle" x="1576.62" y="-23.7" font-family="Helvetica,sans-Serif" font-size="14.00">value = [0, 24]</text>
<text text-anchor="middle" x="1576.62" y="-7.2" font-family="Helvetica,sans-Serif" font-size="14.00">class = approve</text>
</g>
<!-- 24&#45;&gt;25 -->
<g id="edge25" class="edge">
<title>24&#45;&gt;25</title>
<path fill="none" stroke="black" d="M1576.62,-109.64C1576.62,-101.81 1576.62,-93.63 1576.62,-85.72"/>
<polygon fill="black" stroke="black" points="1580.13,-85.91 1576.63,-75.91 1573.13,-85.91 1580.13,-85.91"/>
</g>
<!-- 26 -->
<g id="node27" class="node">
<title>26</title>
<polygon fill="none" stroke="black" points="1769.88,-74 1653.38,-74 1653.38,0 1769.88,0 1769.88,-74"/>
<text text-anchor="middle" x="1711.62" y="-56.7" font-family="Helvetica,sans-Serif" font-size="14.00">gini = 0.48</text>
<text text-anchor="middle" x="1711.62" y="-40.2" font-family="Helvetica,sans-Serif" font-size="14.00">samples = 5</text>
<text text-anchor="middle" x="1711.62" y="-23.7" font-family="Helvetica,sans-Serif" font-size="14.00">value = [2, 3]</text>
<text text-anchor="middle" x="1711.62" y="-7.2" font-family="Helvetica,sans-Serif" font-size="14.00">class = approve</text>
</g>
<!-- 24&#45;&gt;26 -->
<g id="edge26" class="edge">
<title>24&#45;&gt;26</title>
<path fill="none" stroke="black" d="M1628.43,-109.64C1639.01,-100.53 1650.12,-90.96 1660.67,-81.88"/>
<polygon fill="black" stroke="black" points="1662.92,-84.56 1668.21,-75.38 1658.35,-79.25 1662.92,-84.56"/>
</g>
</g>
</svg>
