<?xml version="1.0" encoding="UTF-8" standalone="no"?>
<!DOCTYPE svg PUBLIC "-//W3C//DTD SVG 1.1//EN"
 "http://www.w3.org/Graphics/SVG/1.1/DTD/svg11.dtd">
<!-- Generated by graphviz version 10.0.1 (20240210.2158)
 -->
<!-- Title: Tree Pages: 1 -->
<svg width="1831pt" height="588pt"
 viewBox="0.00 0.00 1831.25 588.00" xmlns="http://www.w3.org/2000/svg" xmlns:xlink="http://www.w3.org/1999/xlink">
<g id="graph0" class="graph" transform="scale(1 1) rotate(0) translate(4 584)">
<title>Tree</title>
<polygon fill="white" stroke="none" points="-4,4 -4,-584 1827.25,-584 1827.25,4 -4,4"/>
<!-- 0 -->
<g id="node1" class="node">
<title>0</title>
<polygon fill="none" stroke="black" points="888.88,-580 718.38,-580 718.38,-489.5 888.88,-489.5 888.88,-580"/>
<text text-anchor="middle" x="803.62" y="-562.7" font-family="Helvetica,sans-Serif" font-size="14.00">interest_rate &lt;= 2.5</text>
<text text-anchor="middle" x="803.62" y="-546.2" font-family="Helvetica,sans-Serif" font-size="14.00">gini = 0.248</text>
<text text-anchor="middle" x="803.62" y="-529.7" font-family="Helvetica,sans-Serif" font-size="14.00">samples = 162656</text>
<text text-anchor="middle" x="803.62" y="-513.2" font-family="Helvetica,sans-Serif" font-size="14.00">value = [23538, 139118]</text>
<text text-anchor="middle" x="803.62" y="-496.7" font-family="Helvetica,sans-Serif" font-size="14.00">class = approve</text>
</g>
<!-- 1 -->
<g id="node2" class="node">
<title>1</title>
<polygon fill="none" stroke="black" points="673.88,-453.5 503.38,-453.5 503.38,-363 673.88,-363 673.88,-453.5"/>
<text text-anchor="middle" x="588.62" y="-436.2" font-family="Helvetica,sans-Serif" font-size="14.00">total_loan_costs &lt;= 1.5</text>
<text text-anchor="middle" x="588.62" y="-419.7" font-family="Helvetica,sans-Serif" font-size="14.00">gini = 0.303</text>
<text text-anchor="middle" x="588.62" y="-403.2" font-family="Helvetica,sans-Serif" font-size="14.00">samples = 126027</text>
<text text-anchor="middle" x="588.62" y="-386.7" font-family="Helvetica,sans-Serif" font-size="14.00">value = [23507, 102520]</text>
<text text-anchor="middle" x="588.62" y="-370.2" font-family="Helvetica,sans-Serif" font-size="14.00">class = approve</text>
</g>
<!-- 0&#45;&gt;1 -->
<g id="edge1" class="edge">
<title>0&#45;&gt;1</title>
<path fill="none" stroke="black" d="M726.61,-489.15C710.09,-479.59 692.53,-469.42 675.66,-459.65"/>
<polygon fill="black" stroke="black" points="677.54,-456.69 667.13,-454.71 674.03,-462.75 677.54,-456.69"/>
<text text-anchor="middle" x="672.26" y="-473.06" font-family="Helvetica,sans-Serif" font-size="14.00">True</text>
</g>
<!-- 14 -->
<g id="node15" class="node">
<title>14</title>
<polygon fill="none" stroke="black" points="1091.38,-453.5 953.88,-453.5 953.88,-363 1091.38,-363 1091.38,-453.5"/>
<text text-anchor="middle" x="1022.62" y="-436.2" font-family="Helvetica,sans-Serif" font-size="14.00">income &lt;= 1.5</text>
<text text-anchor="middle" x="1022.62" y="-419.7" font-family="Helvetica,sans-Serif" font-size="14.00">gini = 0.002</text>
<text text-anchor="middle" x="1022.62" y="-403.2" font-family="Helvetica,sans-Serif" font-size="14.00">samples = 36629</text>
<text text-anchor="middle" x="1022.62" y="-386.7" font-family="Helvetica,sans-Serif" font-size="14.00">value = [31, 36598]</text>
<text text-anchor="middle" x="1022.62" y="-370.2" font-family="Helvetica,sans-Serif" font-size="14.00">class = approve</text>
</g>
<!-- 0&#45;&gt;14 -->
<g id="edge14" class="edge">
<title>0&#45;&gt;14</title>
<path fill="none" stroke="black" d="M882.07,-489.15C902.02,-477.81 923.47,-465.62 943.45,-454.26"/>
<polygon fill="black" stroke="black" points="945.16,-457.31 952.13,-449.33 941.7,-451.23 945.16,-457.31"/>
<text text-anchor="middle" x="946.81" y="-467.63" font-family="Helvetica,sans-Serif" font-size="14.00">False</text>
</g>
<!-- 2 -->
<g id="node3" class="node">
<title>2</title>
<polygon fill="none" stroke="black" points="309.75,-327 147.5,-327 147.5,-236.5 309.75,-236.5 309.75,-327"/>
<text text-anchor="middle" x="228.62" y="-309.7" font-family="Helvetica,sans-Serif" font-size="14.00">preapproval &lt;= 0.5</text>
<text text-anchor="middle" x="228.62" y="-293.2" font-family="Helvetica,sans-Serif" font-size="14.00">gini = 0.348</text>
<text text-anchor="middle" x="228.62" y="-276.7" font-family="Helvetica,sans-Serif" font-size="14.00">samples = 103646</text>
<text text-anchor="middle" x="228.62" y="-260.2" font-family="Helvetica,sans-Serif" font-size="14.00">value = [23257, 80389]</text>
<text text-anchor="middle" x="228.62" y="-243.7" font-family="Helvetica,sans-Serif" font-size="14.00">class = approve</text>
</g>
<!-- 1&#45;&gt;2 -->
<g id="edge2" class="edge">
<title>1&#45;&gt;2</title>
<path fill="none" stroke="black" d="M503.31,-377.75C448.42,-358.76 377.11,-334.1 320.9,-314.66"/>
<polygon fill="black" stroke="black" points="322.26,-311.43 311.66,-311.47 319.97,-318.04 322.26,-311.43"/>
</g>
<!-- 7 -->
<g id="node8" class="node">
<title>7</title>
<polygon fill="none" stroke="black" points="696.38,-327 480.88,-327 480.88,-236.5 696.38,-236.5 696.38,-327"/>
<text text-anchor="middle" x="588.62" y="-309.7" font-family="Helvetica,sans-Serif" font-size="14.00">open&#45;end_line_of_credit &lt;= 0.5</text>
<text text-anchor="middle" x="588.62" y="-293.2" font-family="Helvetica,sans-Serif" font-size="14.00">gini = 0.022</text>
<text text-anchor="middle" x="588.62" y="-276.7" font-family="Helvetica,sans-Serif" font-size="14.00">samples = 22381</text>
<text text-anchor="middle" x="588.62" y="-260.2" font-family="Helvetica,sans-Serif" font-size="14.00">value = [250, 22131]</text>
<text text-anchor="middle" x="588.62" y="-243.7" font-family="Helvetica,sans-Serif" font-size="14.00">class = approve</text>
</g>
<!-- 1&#45;&gt;7 -->
<g id="edge7" class="edge">
<title>1&#45;&gt;7</title>
<path fill="none" stroke="black" d="M588.62,-362.65C588.62,-354.97 588.62,-346.89 588.62,-338.94"/>
<polygon fill="black" stroke="black" points="592.13,-338.97 588.63,-328.97 585.13,-338.97 592.13,-338.97"/>
</g>
<!-- 3 -->
<g id="node4" class="node">
<title>3</title>
<polygon fill="none" stroke="black" points="129.25,-192.25 0,-192.25 0,-118.25 129.25,-118.25 129.25,-192.25"/>
<text text-anchor="middle" x="64.62" y="-174.95" font-family="Helvetica,sans-Serif" font-size="14.00">gini = 0.0</text>
<text text-anchor="middle" x="64.62" y="-158.45" font-family="Helvetica,sans-Serif" font-size="14.00">samples = 13417</text>
<text text-anchor="middle" x="64.62" y="-141.95" font-family="Helvetica,sans-Serif" font-size="14.00">value = [0, 13417]</text>
<text text-anchor="middle" x="64.62" y="-125.45" font-family="Helvetica,sans-Serif" font-size="14.00">class = approve</text>
</g>
<!-- 2&#45;&gt;3 -->
<g id="edge3" class="edge">
<title>2&#45;&gt;3</title>
<path fill="none" stroke="black" d="M169.88,-236.15C154.13,-224.2 137.13,-211.29 121.49,-199.42"/>
<polygon fill="black" stroke="black" points="123.74,-196.73 113.65,-193.47 119.5,-202.3 123.74,-196.73"/>
</g>
<!-- 4 -->
<g id="node5" class="node">
<title>4</title>
<polygon fill="none" stroke="black" points="309.75,-200.5 147.5,-200.5 147.5,-110 309.75,-110 309.75,-200.5"/>
<text text-anchor="middle" x="228.62" y="-183.2" font-family="Helvetica,sans-Serif" font-size="14.00">income &lt;= 1.5</text>
<text text-anchor="middle" x="228.62" y="-166.7" font-family="Helvetica,sans-Serif" font-size="14.00">gini = 0.383</text>
<text text-anchor="middle" x="228.62" y="-150.2" font-family="Helvetica,sans-Serif" font-size="14.00">samples = 90229</text>
<text text-anchor="middle" x="228.62" y="-133.7" font-family="Helvetica,sans-Serif" font-size="14.00">value = [23257, 66972]</text>
<text text-anchor="middle" x="228.62" y="-117.2" font-family="Helvetica,sans-Serif" font-size="14.00">class = approve</text>
</g>
<!-- 2&#45;&gt;4 -->
<g id="edge4" class="edge">
<title>2&#45;&gt;4</title>
<path fill="none" stroke="black" d="M228.62,-236.15C228.62,-228.47 228.62,-220.39 228.62,-212.44"/>
<polygon fill="black" stroke="black" points="232.13,-212.47 228.63,-202.47 225.13,-212.47 232.13,-212.47"/>
</g>
<!-- 5 -->
<g id="node6" class="node">
<title>5</title>
<polygon fill="none" stroke="black" points="153.38,-74 15.88,-74 15.88,0 153.38,0 153.38,-74"/>
<text text-anchor="middle" x="84.62" y="-56.7" font-family="Helvetica,sans-Serif" font-size="14.00">gini = 0.257</text>
<text text-anchor="middle" x="84.62" y="-40.2" font-family="Helvetica,sans-Serif" font-size="14.00">samples = 1735</text>
<text text-anchor="middle" x="84.62" y="-23.7" font-family="Helvetica,sans-Serif" font-size="14.00">value = [1472, 263]</text>
<text text-anchor="middle" x="84.62" y="-7.2" font-family="Helvetica,sans-Serif" font-size="14.00">class = deny</text>
</g>
<!-- 4&#45;&gt;5 -->
<g id="edge5" class="edge">
<title>4&#45;&gt;5</title>
<path fill="none" stroke="black" d="M173.36,-109.64C161.97,-100.44 149.99,-90.77 138.65,-81.61"/>
<polygon fill="black" stroke="black" points="140.86,-78.9 130.88,-75.34 136.47,-84.35 140.86,-78.9"/>
</g>
<!-- 6 -->
<g id="node7" class="node">
<title>6</title>
<polygon fill="none" stroke="black" points="333.75,-74 171.5,-74 171.5,0 333.75,0 333.75,-74"/>
<text text-anchor="middle" x="252.62" y="-56.7" font-family="Helvetica,sans-Serif" font-size="14.00">gini = 0.371</text>
<text text-anchor="middle" x="252.62" y="-40.2" font-family="Helvetica,sans-Serif" font-size="14.00">samples = 88494</text>
<text text-anchor="middle" x="252.62" y="-23.7" font-family="Helvetica,sans-Serif" font-size="14.00">value = [21785, 66709]</text>
<text text-anchor="middle" x="252.62" y="-7.2" font-family="Helvetica,sans-Serif" font-size="14.00">class = approve</text>
</g>
<!-- 4&#45;&gt;6 -->
<g id="edge6" class="edge">
<title>4&#45;&gt;6</title>
<path fill="none" stroke="black" d="M237.84,-109.64C239.47,-101.72 241.18,-93.44 242.83,-85.45"/>
<polygon fill="black" stroke="black" points="246.21,-86.38 244.81,-75.88 239.36,-84.96 246.21,-86.38"/>
</g>
<!-- 8 -->
<g id="node9" class="node">
<title>8</title>
<polygon fill="none" stroke="black" points="633.75,-200.5 327.5,-200.5 327.5,-110 633.75,-110 633.75,-200.5"/>
<text text-anchor="middle" x="480.62" y="-183.2" font-family="Helvetica,sans-Serif" font-size="14.00">ffiec_msa_md_median_family_income &lt;= 3.0</text>
<text text-anchor="middle" x="480.62" y="-166.7" font-family="Helvetica,sans-Serif" font-size="14.00">gini = 0.368</text>
<text text-anchor="middle" x="480.62" y="-150.2" font-family="Helvetica,sans-Serif" font-size="14.00">samples = 70</text>
<text text-anchor="middle" x="480.62" y="-133.7" font-family="Helvetica,sans-Serif" font-size="14.00">value = [53, 17]</text>
<text text-anchor="middle" x="480.62" y="-117.2" font-family="Helvetica,sans-Serif" font-size="14.00">class = deny</text>
</g>
<!-- 7&#45;&gt;8 -->
<g id="edge8" class="edge">
<title>7&#45;&gt;8</title>
<path fill="none" stroke="black" d="M549.94,-236.15C542.42,-227.48 534.46,-218.31 526.73,-209.4"/>
<polygon fill="black" stroke="black" points="529.59,-207.36 520.4,-202.1 524.3,-211.94 529.59,-207.36"/>
</g>
<!-- 11 -->
<g id="node12" class="node">
<title>11</title>
<polygon fill="none" stroke="black" points="835.25,-200.5 652,-200.5 652,-110 835.25,-110 835.25,-200.5"/>
<text text-anchor="middle" x="743.62" y="-183.2" font-family="Helvetica,sans-Serif" font-size="14.00">loan_to_value_ratio &lt;= 0.5</text>
<text text-anchor="middle" x="743.62" y="-166.7" font-family="Helvetica,sans-Serif" font-size="14.00">gini = 0.018</text>
<text text-anchor="middle" x="743.62" y="-150.2" font-family="Helvetica,sans-Serif" font-size="14.00">samples = 22311</text>
<text text-anchor="middle" x="743.62" y="-133.7" font-family="Helvetica,sans-Serif" font-size="14.00">value = [197, 22114]</text>
<text text-anchor="middle" x="743.62" y="-117.2" font-family="Helvetica,sans-Serif" font-size="14.00">class = approve</text>
</g>
<!-- 7&#45;&gt;11 -->
<g id="edge11" class="edge">
<title>7&#45;&gt;11</title>
<path fill="none" stroke="black" d="M644.15,-236.15C655.5,-227.04 667.54,-217.37 679.17,-208.02"/>
<polygon fill="black" stroke="black" points="681.19,-210.89 686.79,-201.9 676.8,-205.43 681.19,-210.89"/>
</g>
<!-- 9 -->
<g id="node10" class="node">
<title>9</title>
<polygon fill="none" stroke="black" points="513,-74 400.25,-74 400.25,0 513,0 513,-74"/>
<text text-anchor="middle" x="456.62" y="-56.7" font-family="Helvetica,sans-Serif" font-size="14.00">gini = 0.444</text>
<text text-anchor="middle" x="456.62" y="-40.2" font-family="Helvetica,sans-Serif" font-size="14.00">samples = 51</text>
<text text-anchor="middle" x="456.62" y="-23.7" font-family="Helvetica,sans-Serif" font-size="14.00">value = [34, 17]</text>
<text text-anchor="middle" x="456.62" y="-7.2" font-family="Helvetica,sans-Serif" font-size="14.00">class = deny</text>
</g>
<!-- 8&#45;&gt;9 -->
<g id="edge9" class="edge">
<title>8&#45;&gt;9</title>
<path fill="none" stroke="black" d="M471.41,-109.64C469.78,-101.72 468.07,-93.44 466.42,-85.45"/>
<polygon fill="black" stroke="black" points="469.89,-84.96 464.44,-75.88 463.04,-86.38 469.89,-84.96"/>
</g>
<!-- 10 -->
<g id="node11" class="node">
<title>10</title>
<polygon fill="none" stroke="black" points="635.88,-74 531.38,-74 531.38,0 635.88,0 635.88,-74"/>
<text text-anchor="middle" x="583.62" y="-56.7" font-family="Helvetica,sans-Serif" font-size="14.00">gini = 0.0</text>
<text text-anchor="middle" x="583.62" y="-40.2" font-family="Helvetica,sans-Serif" font-size="14.00">samples = 19</text>
<text text-anchor="middle" x="583.62" y="-23.7" font-family="Helvetica,sans-Serif" font-size="14.00">value = [19, 0]</text>
<text text-anchor="middle" x="583.62" y="-7.2" font-family="Helvetica,sans-Serif" font-size="14.00">class = deny</text>
</g>
<!-- 8&#45;&gt;10 -->
<g id="edge10" class="edge">
<title>8&#45;&gt;10</title>
<path fill="none" stroke="black" d="M520.15,-109.64C527.9,-100.9 536.02,-91.73 543.78,-82.97"/>
<polygon fill="black" stroke="black" points="546.36,-85.33 550.38,-75.53 541.12,-80.69 546.36,-85.33"/>
</g>
<!-- 12 -->
<g id="node13" class="node">
<title>12</title>
<polygon fill="none" stroke="black" points="783.75,-74 687.5,-74 687.5,0 783.75,0 783.75,-74"/>
<text text-anchor="middle" x="735.62" y="-56.7" font-family="Helvetica,sans-Serif" font-size="14.00">gini = 0.0</text>
<text text-anchor="middle" x="735.62" y="-40.2" font-family="Helvetica,sans-Serif" font-size="14.00">samples = 5</text>
<text text-anchor="middle" x="735.62" y="-23.7" font-family="Helvetica,sans-Serif" font-size="14.00">value = [5, 0]</text>
<text text-anchor="middle" x="735.62" y="-7.2" font-family="Helvetica,sans-Serif" font-size="14.00">class = deny</text>
</g>
<!-- 11&#45;&gt;12 -->
<g id="edge12" class="edge">
<title>11&#45;&gt;12</title>
<path fill="none" stroke="black" d="M740.55,-109.64C740.02,-101.81 739.45,-93.63 738.91,-85.72"/>
<polygon fill="black" stroke="black" points="742.41,-85.64 738.23,-75.9 735.43,-86.12 742.41,-85.64"/>
</g>
<!-- 13 -->
<g id="node14" class="node">
<title>13</title>
<polygon fill="none" stroke="black" points="947.5,-74 801.75,-74 801.75,0 947.5,0 947.5,-74"/>
<text text-anchor="middle" x="874.62" y="-56.7" font-family="Helvetica,sans-Serif" font-size="14.00">gini = 0.017</text>
<text text-anchor="middle" x="874.62" y="-40.2" font-family="Helvetica,sans-Serif" font-size="14.00">samples = 22306</text>
<text text-anchor="middle" x="874.62" y="-23.7" font-family="Helvetica,sans-Serif" font-size="14.00">value = [192, 22114]</text>
<text text-anchor="middle" x="874.62" y="-7.2" font-family="Helvetica,sans-Serif" font-size="14.00">class = approve</text>
</g>
<!-- 11&#45;&gt;13 -->
<g id="edge13" class="edge">
<title>11&#45;&gt;13</title>
<path fill="none" stroke="black" d="M793.9,-109.64C804.16,-100.53 814.94,-90.96 825.18,-81.88"/>
<polygon fill="black" stroke="black" points="827.33,-84.65 832.48,-75.4 822.68,-79.42 827.33,-84.65"/>
</g>
<!-- 15 -->
<g id="node16" class="node">
<title>15</title>
<polygon fill="none" stroke="black" points="1081.62,-327 963.62,-327 963.62,-236.5 1081.62,-236.5 1081.62,-327"/>
<text text-anchor="middle" x="1022.62" y="-309.7" font-family="Helvetica,sans-Serif" font-size="14.00">company &lt;= 3.5</text>
<text text-anchor="middle" x="1022.62" y="-293.2" font-family="Helvetica,sans-Serif" font-size="14.00">gini = 0.053</text>
<text text-anchor="middle" x="1022.62" y="-276.7" font-family="Helvetica,sans-Serif" font-size="14.00">samples = 148</text>
<text text-anchor="middle" x="1022.62" y="-260.2" font-family="Helvetica,sans-Serif" font-size="14.00">value = [4, 144]</text>
<text text-anchor="middle" x="1022.62" y="-243.7" font-family="Helvetica,sans-Serif" font-size="14.00">class = approve</text>
</g>
<!-- 14&#45;&gt;15 -->
<g id="edge15" class="edge">
<title>14&#45;&gt;15</title>
<path fill="none" stroke="black" d="M1022.62,-362.65C1022.62,-354.97 1022.62,-346.89 1022.62,-338.94"/>
<polygon fill="black" stroke="black" points="1026.13,-338.97 1022.63,-328.97 1019.13,-338.97 1026.13,-338.97"/>
</g>
<!-- 20 -->
<g id="node21" class="node">
<title>20</title>
<polygon fill="none" stroke="black" points="1485.38,-327 1347.88,-327 1347.88,-236.5 1485.38,-236.5 1485.38,-327"/>
<text text-anchor="middle" x="1416.62" y="-309.7" font-family="Helvetica,sans-Serif" font-size="14.00">loan_term &lt;= 0.5</text>
<text text-anchor="middle" x="1416.62" y="-293.2" font-family="Helvetica,sans-Serif" font-size="14.00">gini = 0.001</text>
<text text-anchor="middle" x="1416.62" y="-276.7" font-family="Helvetica,sans-Serif" font-size="14.00">samples = 36481</text>
<text text-anchor="middle" x="1416.62" y="-260.2" font-family="Helvetica,sans-Serif" font-size="14.00">value = [27, 36454]</text>
<text text-anchor="middle" x="1416.62" y="-243.7" font-family="Helvetica,sans-Serif" font-size="14.00">class = approve</text>
</g>
<!-- 14&#45;&gt;20 -->
<g id="edge20" class="edge">
<title>14&#45;&gt;20</title>
<path fill="none" stroke="black" d="M1091.71,-385.42C1160.14,-363.8 1264.86,-330.71 1336.81,-307.97"/>
<polygon fill="black" stroke="black" points="1337.7,-311.36 1346.18,-305.01 1335.59,-304.69 1337.7,-311.36"/>
</g>
<!-- 16 -->
<g id="node17" class="node">
<title>16</title>
<polygon fill="none" stroke="black" points="969.88,-192.25 853.38,-192.25 853.38,-118.25 969.88,-118.25 969.88,-192.25"/>
<text text-anchor="middle" x="911.62" y="-174.95" font-family="Helvetica,sans-Serif" font-size="14.00">gini = 0.0</text>
<text text-anchor="middle" x="911.62" y="-158.45" font-family="Helvetica,sans-Serif" font-size="14.00">samples = 115</text>
<text text-anchor="middle" x="911.62" y="-141.95" font-family="Helvetica,sans-Serif" font-size="14.00">value = [0, 115]</text>
<text text-anchor="middle" x="911.62" y="-125.45" font-family="Helvetica,sans-Serif" font-size="14.00">class = approve</text>
</g>
<!-- 15&#45;&gt;16 -->
<g id="edge16" class="edge">
<title>15&#45;&gt;16</title>
<path fill="none" stroke="black" d="M982.86,-236.15C972.65,-224.7 961.67,-212.38 951.45,-200.92"/>
<polygon fill="black" stroke="black" points="954.09,-198.62 944.82,-193.49 948.87,-203.28 954.09,-198.62"/>
</g>
<!-- 17 -->
<g id="node18" class="node">
<title>17</title>
<polygon fill="none" stroke="black" points="1278.88,-200.5 988.38,-200.5 988.38,-110 1278.88,-110 1278.88,-200.5"/>
<text text-anchor="middle" x="1133.62" y="-183.2" font-family="Helvetica,sans-Serif" font-size="14.00">tract_median_age_of_housing_units &lt;= 0.5</text>
<text text-anchor="middle" x="1133.62" y="-166.7" font-family="Helvetica,sans-Serif" font-size="14.00">gini = 0.213</text>
<text text-anchor="middle" x="1133.62" y="-150.2" font-family="Helvetica,sans-Serif" font-size="14.00">samples = 33</text>
<text text-anchor="middle" x="1133.62" y="-133.7" font-family="Helvetica,sans-Serif" font-size="14.00">value = [4, 29]</text>
<text text-anchor="middle" x="1133.62" y="-117.2" font-family="Helvetica,sans-Serif" font-size="14.00">class = approve</text>
</g>
<!-- 15&#45;&gt;17 -->
<g id="edge17" class="edge">
<title>15&#45;&gt;17</title>
<path fill="none" stroke="black" d="M1062.39,-236.15C1070.12,-227.48 1078.29,-218.31 1086.24,-209.4"/>
<polygon fill="black" stroke="black" points="1088.72,-211.88 1092.76,-202.08 1083.49,-207.22 1088.72,-211.88"/>
</g>
<!-- 18 -->
<g id="node19" class="node">
<title>18</title>
<polygon fill="none" stroke="black" points="1064.75,-74 968.5,-74 968.5,0 1064.75,0 1064.75,-74"/>
<text text-anchor="middle" x="1016.62" y="-56.7" font-family="Helvetica,sans-Serif" font-size="14.00">gini = 0.0</text>
<text text-anchor="middle" x="1016.62" y="-40.2" font-family="Helvetica,sans-Serif" font-size="14.00">samples = 1</text>
<text text-anchor="middle" x="1016.62" y="-23.7" font-family="Helvetica,sans-Serif" font-size="14.00">value = [1, 0]</text>
<text text-anchor="middle" x="1016.62" y="-7.2" font-family="Helvetica,sans-Serif" font-size="14.00">class = deny</text>
</g>
<!-- 17&#45;&gt;18 -->
<g id="edge18" class="edge">
<title>17&#45;&gt;18</title>
<path fill="none" stroke="black" d="M1088.72,-109.64C1079.74,-100.72 1070.31,-91.34 1061.34,-82.43"/>
<polygon fill="black" stroke="black" points="1063.89,-80.03 1054.33,-75.46 1058.95,-84.99 1063.89,-80.03"/>
</g>
<!-- 19 -->
<g id="node20" class="node">
<title>19</title>
<polygon fill="none" stroke="black" points="1198.88,-74 1082.38,-74 1082.38,0 1198.88,0 1198.88,-74"/>
<text text-anchor="middle" x="1140.62" y="-56.7" font-family="Helvetica,sans-Serif" font-size="14.00">gini = 0.17</text>
<text text-anchor="middle" x="1140.62" y="-40.2" font-family="Helvetica,sans-Serif" font-size="14.00">samples = 32</text>
<text text-anchor="middle" x="1140.62" y="-23.7" font-family="Helvetica,sans-Serif" font-size="14.00">value = [3, 29]</text>
<text text-anchor="middle" x="1140.62" y="-7.2" font-family="Helvetica,sans-Serif" font-size="14.00">class = approve</text>
</g>
<!-- 17&#45;&gt;19 -->
<g id="edge19" class="edge">
<title>17&#45;&gt;19</title>
<path fill="none" stroke="black" d="M1136.31,-109.64C1136.78,-101.81 1137.28,-93.63 1137.75,-85.72"/>
<polygon fill="black" stroke="black" points="1141.24,-86.1 1138.34,-75.9 1134.25,-85.68 1141.24,-86.1"/>
</g>
<!-- 21 -->
<g id="node22" class="node">
<title>21</title>
<polygon fill="none" stroke="black" points="1536.38,-200.5 1296.88,-200.5 1296.88,-110 1536.38,-110 1536.38,-200.5"/>
<text text-anchor="middle" x="1416.62" y="-183.2" font-family="Helvetica,sans-Serif" font-size="14.00">applicant_credit_score_type &lt;= 2.0</text>
<text text-anchor="middle" x="1416.62" y="-166.7" font-family="Helvetica,sans-Serif" font-size="14.00">gini = 0.153</text>
<text text-anchor="middle" x="1416.62" y="-150.2" font-family="Helvetica,sans-Serif" font-size="14.00">samples = 12</text>
<text text-anchor="middle" x="1416.62" y="-133.7" font-family="Helvetica,sans-Serif" font-size="14.00">value = [1, 11]</text>
<text text-anchor="middle" x="1416.62" y="-117.2" font-family="Helvetica,sans-Serif" font-size="14.00">class = approve</text>
</g>
<!-- 20&#45;&gt;21 -->
<g id="edge21" class="edge">
<title>20&#45;&gt;21</title>
<path fill="none" stroke="black" d="M1416.62,-236.15C1416.62,-228.47 1416.62,-220.39 1416.62,-212.44"/>
<polygon fill="black" stroke="black" points="1420.13,-212.47 1416.63,-202.47 1413.13,-212.47 1420.13,-212.47"/>
</g>
<!-- 24 -->
<g id="node25" class="node">
<title>24</title>
<polygon fill="none" stroke="black" points="1692.38,-200.5 1554.88,-200.5 1554.88,-110 1692.38,-110 1692.38,-200.5"/>
<text text-anchor="middle" x="1623.62" y="-183.2" font-family="Helvetica,sans-Serif" font-size="14.00">company &lt;= 3.5</text>
<text text-anchor="middle" x="1623.62" y="-166.7" font-family="Helvetica,sans-Serif" font-size="14.00">gini = 0.001</text>
<text text-anchor="middle" x="1623.62" y="-150.2" font-family="Helvetica,sans-Serif" font-size="14.00">samples = 36469</text>
<text text-anchor="middle" x="1623.62" y="-133.7" font-family="Helvetica,sans-Serif" font-size="14.00">value = [26, 36443]</text>
<text text-anchor="middle" x="1623.62" y="-117.2" font-family="Helvetica,sans-Serif" font-size="14.00">class = approve</text>
</g>
<!-- 20&#45;&gt;24 -->
<g id="edge24" class="edge">
<title>20&#45;&gt;24</title>
<path fill="none" stroke="black" d="M1485.84,-239.12C1504.74,-227.75 1525.37,-215.35 1544.76,-203.68"/>
<polygon fill="black" stroke="black" points="1546.41,-206.77 1553.18,-198.62 1542.8,-200.78 1546.41,-206.77"/>
</g>
<!-- 22 -->
<g id="node23" class="node">
<title>22</title>
<polygon fill="none" stroke="black" points="1355.75,-74 1259.5,-74 1259.5,0 1355.75,0 1355.75,-74"/>
<text text-anchor="middle" x="1307.62" y="-56.7" font-family="Helvetica,sans-Serif" font-size="14.00">gini = 0.0</text>
<text text-anchor="middle" x="1307.62" y="-40.2" font-family="Helvetica,sans-Serif" font-size="14.00">samples = 1</text>
<text text-anchor="middle" x="1307.62" y="-23.7" font-family="Helvetica,sans-Serif" font-size="14.00">value = [1, 0]</text>
<text text-anchor="middle" x="1307.62" y="-7.2" font-family="Helvetica,sans-Serif" font-size="14.00">class = deny</text>
</g>
<!-- 21&#45;&gt;22 -->
<g id="edge22" class="edge">
<title>21&#45;&gt;22</title>
<path fill="none" stroke="black" d="M1374.79,-109.64C1366.51,-100.81 1357.82,-91.53 1349.54,-82.7"/>
<polygon fill="black" stroke="black" points="1352.18,-80.4 1342.78,-75.5 1347.07,-85.19 1352.18,-80.4"/>
</g>
<!-- 23 -->
<g id="node24" class="node">
<title>23</title>
<polygon fill="none" stroke="black" points="1489.88,-74 1373.38,-74 1373.38,0 1489.88,0 1489.88,-74"/>
<text text-anchor="middle" x="1431.62" y="-56.7" font-family="Helvetica,sans-Serif" font-size="14.00">gini = 0.0</text>
<text text-anchor="middle" x="1431.62" y="-40.2" font-family="Helvetica,sans-Serif" font-size="14.00">samples = 11</text>
<text text-anchor="middle" x="1431.62" y="-23.7" font-family="Helvetica,sans-Serif" font-size="14.00">value = [0, 11]</text>
<text text-anchor="middle" x="1431.62" y="-7.2" font-family="Helvetica,sans-Serif" font-size="14.00">class = approve</text>
</g>
<!-- 21&#45;&gt;23 -->
<g id="edge23" class="edge">
<title>21&#45;&gt;23</title>
<path fill="none" stroke="black" d="M1422.38,-109.64C1423.39,-101.81 1424.45,-93.63 1425.47,-85.72"/>
<polygon fill="black" stroke="black" points="1428.93,-86.26 1426.74,-75.89 1421.98,-85.36 1428.93,-86.26"/>
</g>
<!-- 25 -->
<g id="node26" class="node">
<title>25</title>
<polygon fill="none" stroke="black" points="1676.38,-74 1538.88,-74 1538.88,0 1676.38,0 1676.38,-74"/>
<text text-anchor="middle" x="1607.62" y="-56.7" font-family="Helvetica,sans-Serif" font-size="14.00">gini = 0.001</text>
<text text-anchor="middle" x="1607.62" y="-40.2" font-family="Helvetica,sans-Serif" font-size="14.00">samples = 31795</text>
<text text-anchor="middle" x="1607.62" y="-23.7" font-family="Helvetica,sans-Serif" font-size="14.00">value = [10, 31785]</text>
<text text-anchor="middle" x="1607.62" y="-7.2" font-family="Helvetica,sans-Serif" font-size="14.00">class = approve</text>
</g>
<!-- 24&#45;&gt;25 -->
<g id="edge25" class="edge">
<title>24&#45;&gt;25</title>
<path fill="none" stroke="black" d="M1617.48,-109.64C1616.41,-101.81 1615.28,-93.63 1614.19,-85.72"/>
<polygon fill="black" stroke="black" points="1617.67,-85.32 1612.84,-75.89 1610.74,-86.28 1617.67,-85.32"/>
</g>
<!-- 26 -->
<g id="node27" class="node">
<title>26</title>
<polygon fill="none" stroke="black" points="1823.25,-74 1694,-74 1694,0 1823.25,0 1823.25,-74"/>
<text text-anchor="middle" x="1758.62" y="-56.7" font-family="Helvetica,sans-Serif" font-size="14.00">gini = 0.007</text>
<text text-anchor="middle" x="1758.62" y="-40.2" font-family="Helvetica,sans-Serif" font-size="14.00">samples = 4674</text>
<text text-anchor="middle" x="1758.62" y="-23.7" font-family="Helvetica,sans-Serif" font-size="14.00">value = [16, 4658]</text>
<text text-anchor="middle" x="1758.62" y="-7.2" font-family="Helvetica,sans-Serif" font-size="14.00">class = approve</text>
</g>
<!-- 24&#45;&gt;26 -->
<g id="edge26" class="edge">
<title>24&#45;&gt;26</title>
<path fill="none" stroke="black" d="M1675.43,-109.64C1686.01,-100.53 1697.12,-90.96 1707.67,-81.88"/>
<polygon fill="black" stroke="black" points="1709.92,-84.56 1715.21,-75.38 1705.35,-79.25 1709.92,-84.56"/>
</g>
</g>
</svg>
