<?xml version="1.0" encoding="UTF-8" standalone="no"?>
<!DOCTYPE svg PUBLIC "-//W3C//DTD SVG 1.1//EN"
 "http://www.w3.org/Graphics/SVG/1.1/DTD/svg11.dtd">
<!-- Generated by graphviz version 10.0.1 (20240210.2158)
 -->
<!-- Title: Tree Pages: 1 -->
<svg width="1765pt" height="588pt"
 viewBox="0.00 0.00 1765.25 588.00" xmlns="http://www.w3.org/2000/svg" xmlns:xlink="http://www.w3.org/1999/xlink">
<g id="graph0" class="graph" transform="scale(1 1) rotate(0) translate(4 584)">
<title>Tree</title>
<polygon fill="white" stroke="none" points="-4,4 -4,-584 1761.25,-584 1761.25,4 -4,4"/>
<!-- 0 -->
<g id="node1" class="node">
<title>0</title>
<polygon fill="none" stroke="black" points="888.88,-580 718.38,-580 718.38,-489.5 888.88,-489.5 888.88,-580"/>
<text text-anchor="middle" x="803.62" y="-562.7" font-family="Helvetica,sans-Serif" font-size="14.00">interest_rate &lt;= 2.5</text>
<text text-anchor="middle" x="803.62" y="-546.2" font-family="Helvetica,sans-Serif" font-size="14.00">gini = 0.248</text>
<text text-anchor="middle" x="803.62" y="-529.7" font-family="Helvetica,sans-Serif" font-size="14.00">samples = 162656</text>
<text text-anchor="middle" x="803.62" y="-513.2" font-family="Helvetica,sans-Serif" font-size="14.00">value = [23538, 139118]</text>
<text text-anchor="middle" x="803.62" y="-496.7" font-family="Helvetica,sans-Serif" font-size="14.00">class = approve</text>
</g>
<!-- 1 -->
<g id="node2" class="node">
<title>1</title>
<polygon fill="none" stroke="black" points="673.88,-453.5 503.38,-453.5 503.38,-363 673.88,-363 673.88,-453.5"/>
<text text-anchor="middle" x="588.62" y="-436.2" font-family="Helvetica,sans-Serif" font-size="14.00">total_loan_costs &lt;= 1.5</text>
<text text-anchor="middle" x="588.62" y="-419.7" font-family="Helvetica,sans-Serif" font-size="14.00">gini = 0.303</text>
<text text-anchor="middle" x="588.62" y="-403.2" font-family="Helvetica,sans-Serif" font-size="14.00">samples = 126027</text>
<text text-anchor="middle" x="588.62" y="-386.7" font-family="Helvetica,sans-Serif" font-size="14.00">value = [23507, 102520]</text>
<text text-anchor="middle" x="588.62" y="-370.2" font-family="Helvetica,sans-Serif" font-size="14.00">class = approve</text>
</g>
<!-- 0&#45;&gt;1 -->
<g id="edge1" class="edge">
<title>0&#45;&gt;1</title>
<path fill="none" stroke="black" d="M726.61,-489.15C710.09,-479.59 692.53,-469.42 675.66,-459.65"/>
<polygon fill="black" stroke="black" points="677.54,-456.69 667.13,-454.71 674.03,-462.75 677.54,-456.69"/>
<text text-anchor="middle" x="672.26" y="-473.06" font-family="Helvetica,sans-Serif" font-size="14.00">True</text>
</g>
<!-- 14 -->
<g id="node15" class="node">
<title>14</title>
<polygon fill="none" stroke="black" points="1091.38,-453.5 953.88,-453.5 953.88,-363 1091.38,-363 1091.38,-453.5"/>
<text text-anchor="middle" x="1022.62" y="-436.2" font-family="Helvetica,sans-Serif" font-size="14.00">income &lt;= 1.5</text>
<text text-anchor="middle" x="1022.62" y="-419.7" font-family="Helvetica,sans-Serif" font-size="14.00">gini = 0.002</text>
<text text-anchor="middle" x="1022.62" y="-403.2" font-family="Helvetica,sans-Serif" font-size="14.00">samples = 36629</text>
<text text-anchor="middle" x="1022.62" y="-386.7" font-family="Helvetica,sans-Serif" font-size="14.00">value = [31, 36598]</text>
<text text-anchor="middle" x="1022.62" y="-370.2" font-family="Helvetica,sans-Serif" font-size="14.00">class = approve</text>
</g>
<!-- 0&#45;&gt;14 -->
<g id="edge14" class="edge">
<title>0&#45;&gt;14</title>
<path fill="none" stroke="black" d="M882.07,-489.15C902.02,-477.81 923.47,-465.62 943.45,-454.26"/>
<polygon fill="black" stroke="black" points="945.16,-457.31 952.13,-449.33 941.7,-451.23 945.16,-457.31"/>
<text text-anchor="middle" x="946.81" y="-467.63" font-family="Helvetica,sans-Serif" font-size="14.00">False</text>
</g>
<!-- 2 -->
<g id="node3" class="node">
<title>2</title>
<polygon fill="none" stroke="black" points="309.75,-327 147.5,-327 147.5,-236.5 309.75,-236.5 309.75,-327"/>
<text text-anchor="middle" x="228.62" y="-309.7" font-family="Helvetica,sans-Serif" font-size="14.00">preapproval &lt;= 0.5</text>
<text text-anchor="middle" x="228.62" y="-293.2" font-family="Helvetica,sans-Serif" font-size="14.00">gini = 0.348</text>
<text text-anchor="middle" x="228.62" y="-276.7" font-family="Helvetica,sans-Serif" font-size="14.00">samples = 103646</text>
<text text-anchor="middle" x="228.62" y="-260.2" font-family="Helvetica,sans-Serif" font-size="14.00">value = [23257, 80389]</text>
<text text-anchor="middle" x="228.62" y="-243.7" font-family="Helvetica,sans-Serif" font-size="14.00">class = approve</text>
</g>
<!-- 1&#45;&gt;2 -->
<g id="edge2" class="edge">
<title>1&#45;&gt;2</title>
<path fill="none" stroke="black" d="M503.31,-377.75C448.42,-358.76 377.11,-334.1 320.9,-314.66"/>
<polygon fill="black" stroke="black" points="322.26,-311.43 311.66,-311.47 319.97,-318.04 322.26,-311.43"/>
</g>
<!-- 7 -->
<g id="node8" class="node">
<title>7</title>
<polygon fill="none" stroke="black" points="696.38,-327 480.88,-327 480.88,-236.5 696.38,-236.5 696.38,-327"/>
<text text-anchor="middle" x="588.62" y="-309.7" font-family="Helvetica,sans-Serif" font-size="14.00">open&#45;end_line_of_credit &lt;= 0.5</text>
<text text-anchor="middle" x="588.62" y="-293.2" font-family="Helvetica,sans-Serif" font-size="14.00">gini = 0.022</text>
<text text-anchor="middle" x="588.62" y="-276.7" font-family="Helvetica,sans-Serif" font-size="14.00">samples = 22381</text>
<text text-anchor="middle" x="588.62" y="-260.2" font-family="Helvetica,sans-Serif" font-size="14.00">value = [250, 22131]</text>
<text text-anchor="middle" x="588.62" y="-243.7" font-family="Helvetica,sans-Serif" font-size="14.00">class = approve</text>
</g>
<!-- 1&#45;&gt;7 -->
<g id="edge7" class="edge">
<title>1&#45;&gt;7</title>
<path fill="none" stroke="black" d="M588.62,-362.65C588.62,-354.97 588.62,-346.89 588.62,-338.94"/>
<polygon fill="black" stroke="black" points="592.13,-338.97 588.63,-328.97 585.13,-338.97 592.13,-338.97"/>
</g>
<!-- 3 -->
<g id="node4" class="node">
<title>3</title>
<polygon fill="none" stroke="black" points="129.25,-192.25 0,-192.25 0,-118.25 129.25,-118.25 129.25,-192.25"/>
<text text-anchor="middle" x="64.62" y="-174.95" font-family="Helvetica,sans-Serif" font-size="14.00">gini = 0.0</text>
<text text-anchor="middle" x="64.62" y="-158.45" font-family="Helvetica,sans-Serif" font-size="14.00">samples = 13417</text>
<text text-anchor="middle" x="64.62" y="-141.95" font-family="Helvetica,sans-Serif" font-size="14.00">value = [0, 13417]</text>
<text text-anchor="middle" x="64.62" y="-125.45" font-family="Helvetica,sans-Serif" font-size="14.00">class = approve</text>
</g>
<!-- 2&#45;&gt;3 -->
<g id="edge3" class="edge">
<title>2&#45;&gt;3</title>
<path fill="none" stroke="black" d="M169.88,-236.15C154.13,-224.2 137.13,-211.29 121.49,-199.42"/>
<polygon fill="black" stroke="black" points="123.74,-196.73 113.65,-193.47 119.5,-202.3 123.74,-196.73"/>
</g>
<!-- 4 -->
<g id="node5" class="node">
<title>4</title>
<polygon fill="none" stroke="black" points="309.75,-200.5 147.5,-200.5 147.5,-110 309.75,-110 309.75,-200.5"/>
<text text-anchor="middle" x="228.62" y="-183.2" font-family="Helvetica,sans-Serif" font-size="14.00">income &lt;= 1.5</text>
<text text-anchor="middle" x="228.62" y="-166.7" font-family="Helvetica,sans-Serif" font-size="14.00">gini = 0.383</text>
<text text-anchor="middle" x="228.62" y="-150.2" font-family="Helvetica,sans-Serif" font-size="14.00">samples = 90229</text>
<text text-anchor="middle" x="228.62" y="-133.7" font-family="Helvetica,sans-Serif" font-size="14.00">value = [23257, 66972]</text>
<text text-anchor="middle" x="228.62" y="-117.2" font-family="Helvetica,sans-Serif" font-size="14.00">class = approve</text>
</g>
<!-- 2&#45;&gt;4 -->
<g id="edge4" class="edge">
<title>2&#45;&gt;4</title>
<path fill="none" stroke="black" d="M228.62,-236.15C228.62,-228.47 228.62,-220.39 228.62,-212.44"/>
<polygon fill="black" stroke="black" points="232.13,-212.47 228.63,-202.47 225.13,-212.47 232.13,-212.47"/>
</g>
<!-- 5 -->
<g id="node6" class="node">
<title>5</title>
<polygon fill="none" stroke="black" points="153.38,-74 15.88,-74 15.88,0 153.38,0 153.38,-74"/>
<text text-anchor="middle" x="84.62" y="-56.7" font-family="Helvetica,sans-Serif" font-size="14.00">gini = 0.257</text>
<text text-anchor="middle" x="84.62" y="-40.2" font-family="Helvetica,sans-Serif" font-size="14.00">samples = 1735</text>
<text text-anchor="middle" x="84.62" y="-23.7" font-family="Helvetica,sans-Serif" font-size="14.00">value = [1472, 263]</text>
<text text-anchor="middle" x="84.62" y="-7.2" font-family="Helvetica,sans-Serif" font-size="14.00">class = deny</text>
</g>
<!-- 4&#45;&gt;5 -->
<g id="edge5" class="edge">
<title>4&#45;&gt;5</title>
<path fill="none" stroke="black" d="M173.36,-109.64C161.97,-100.44 149.99,-90.77 138.65,-81.61"/>
<polygon fill="black" stroke="black" points="140.86,-78.9 130.88,-75.34 136.47,-84.35 140.86,-78.9"/>
</g>
<!-- 6 -->
<g id="node7" class="node">
<title>6</title>
<polygon fill="none" stroke="black" points="333.75,-74 171.5,-74 171.5,0 333.75,0 333.75,-74"/>
<text text-anchor="middle" x="252.62" y="-56.7" font-family="Helvetica,sans-Serif" font-size="14.00">gini = 0.371</text>
<text text-anchor="middle" x="252.62" y="-40.2" font-family="Helvetica,sans-Serif" font-size="14.00">samples = 88494</text>
<text text-anchor="middle" x="252.62" y="-23.7" font-family="Helvetica,sans-Serif" font-size="14.00">value = [21785, 66709]</text>
<text text-anchor="middle" x="252.62" y="-7.2" font-family="Helvetica,sans-Serif" font-size="14.00">class = approve</text>
</g>
<!-- 4&#45;&gt;6 -->
<g id="edge6" class="edge">
<title>4&#45;&gt;6</title>
<path fill="none" stroke="black" d="M237.84,-109.64C239.47,-101.72 241.18,-93.44 242.83,-85.45"/>
<polygon fill="black" stroke="black" points="246.21,-86.38 244.81,-75.88 239.36,-84.96 246.21,-86.38"/>
</g>
<!-- 8 -->
<g id="node9" class="node">
<title>8</title>
<polygon fill="none" stroke="black" points="633.75,-200.5 327.5,-200.5 327.5,-110 633.75,-110 633.75,-200.5"/>
<text text-anchor="middle" x="480.62" y="-183.2" font-family="Helvetica,sans-Serif" font-size="14.00">ffiec_msa_md_median_family_income &lt;= 3.0</text>
<text text-anchor="middle" x="480.62" y="-166.7" font-family="Helvetica,sans-Serif" font-size="14.00">gini = 0.368</text>
<text text-anchor="middle" x="480.62" y="-150.2" font-family="Helvetica,sans-Serif" font-size="14.00">samples = 70</text>
<text text-anchor="middle" x="480.62" y="-133.7" font-family="Helvetica,sans-Serif" font-size="14.00">value = [53, 17]</text>
<text text-anchor="middle" x="480.62" y="-117.2" font-family="Helvetica,sans-Serif" font-size="14.00">class = deny</text>
</g>
<!-- 7&#45;&gt;8 -->
<g id="edge8" class="edge">
<title>7&#45;&gt;8</title>
<path fill="none" stroke="black" d="M549.94,-236.15C542.42,-227.48 534.46,-218.31 526.73,-209.4"/>
<polygon fill="black" stroke="black" points="529.59,-207.36 520.4,-202.1 524.3,-211.94 529.59,-207.36"/>
</g>
<!-- 11 -->
<g id="node12" class="node">
<title>11</title>
<polygon fill="none" stroke="black" points="835.25,-200.5 652,-200.5 652,-110 835.25,-110 835.25,-200.5"/>
<text text-anchor="middle" x="743.62" y="-183.2" font-family="Helvetica,sans-Serif" font-size="14.00">loan_to_value_ratio &lt;= 0.5</text>
<text text-anchor="middle" x="743.62" y="-166.7" font-family="Helvetica,sans-Serif" font-size="14.00">gini = 0.018</text>
<text text-anchor="middle" x="743.62" y="-150.2" font-family="Helvetica,sans-Serif" font-size="14.00">samples = 22311</text>
<text text-anchor="middle" x="743.62" y="-133.7" font-family="Helvetica,sans-Serif" font-size="14.00">value = [197, 22114]</text>
<text text-anchor="middle" x="743.62" y="-117.2" font-family="Helvetica,sans-Serif" font-size="14.00">class = approve</text>
</g>
<!-- 7&#45;&gt;11 -->
<g id="edge11" class="edge">
<title>7&#45;&gt;11</title>
<path fill="none" stroke="black" d="M644.15,-236.15C655.5,-227.04 667.54,-217.37 679.17,-208.02"/>
<polygon fill="black" stroke="black" points="681.19,-210.89 686.79,-201.9 676.8,-205.43 681.19,-210.89"/>
</g>
<!-- 9 -->
<g id="node10" class="node">
<title>9</title>
<polygon fill="none" stroke="black" points="489,-74 376.25,-74 376.25,0 489,0 489,-74"/>
<text text-anchor="middle" x="432.62" y="-56.7" font-family="Helvetica,sans-Serif" font-size="14.00">gini = 0.444</text>
<text text-anchor="middle" x="432.62" y="-40.2" font-family="Helvetica,sans-Serif" font-size="14.00">samples = 51</text>
<text text-anchor="middle" x="432.62" y="-23.7" font-family="Helvetica,sans-Serif" font-size="14.00">value = [34, 17]</text>
<text text-anchor="middle" x="432.62" y="-7.2" font-family="Helvetica,sans-Serif" font-size="14.00">class = deny</text>
</g>
<!-- 8&#45;&gt;9 -->
<g id="edge9" class="edge">
<title>8&#45;&gt;9</title>
<path fill="none" stroke="black" d="M462.2,-109.64C458.86,-101.53 455.36,-93.06 451.99,-84.89"/>
<polygon fill="black" stroke="black" points="455.28,-83.7 448.23,-75.79 448.81,-86.37 455.28,-83.7"/>
</g>
<!-- 10 -->
<g id="node11" class="node">
<title>10</title>
<polygon fill="none" stroke="black" points="611.88,-74 507.38,-74 507.38,0 611.88,0 611.88,-74"/>
<text text-anchor="middle" x="559.62" y="-56.7" font-family="Helvetica,sans-Serif" font-size="14.00">gini = 0.0</text>
<text text-anchor="middle" x="559.62" y="-40.2" font-family="Helvetica,sans-Serif" font-size="14.00">samples = 19</text>
<text text-anchor="middle" x="559.62" y="-23.7" font-family="Helvetica,sans-Serif" font-size="14.00">value = [19, 0]</text>
<text text-anchor="middle" x="559.62" y="-7.2" font-family="Helvetica,sans-Serif" font-size="14.00">class = deny</text>
</g>
<!-- 8&#45;&gt;10 -->
<g id="edge10" class="edge">
<title>8&#45;&gt;10</title>
<path fill="none" stroke="black" d="M510.94,-109.64C516.7,-101.17 522.73,-92.3 528.5,-83.8"/>
<polygon fill="black" stroke="black" points="531.32,-85.88 534.04,-75.65 525.53,-81.95 531.32,-85.88"/>
</g>
<!-- 12 -->
<g id="node13" class="node">
<title>12</title>
<polygon fill="none" stroke="black" points="754.75,-74 658.5,-74 658.5,0 754.75,0 754.75,-74"/>
<text text-anchor="middle" x="706.62" y="-56.7" font-family="Helvetica,sans-Serif" font-size="14.00">gini = 0.0</text>
<text text-anchor="middle" x="706.62" y="-40.2" font-family="Helvetica,sans-Serif" font-size="14.00">samples = 5</text>
<text text-anchor="middle" x="706.62" y="-23.7" font-family="Helvetica,sans-Serif" font-size="14.00">value = [5, 0]</text>
<text text-anchor="middle" x="706.62" y="-7.2" font-family="Helvetica,sans-Serif" font-size="14.00">class = deny</text>
</g>
<!-- 11&#45;&gt;12 -->
<g id="edge12" class="edge">
<title>11&#45;&gt;12</title>
<path fill="none" stroke="black" d="M729.43,-109.64C726.88,-101.63 724.21,-93.25 721.64,-85.17"/>
<polygon fill="black" stroke="black" points="725.04,-84.3 718.67,-75.84 718.37,-86.43 725.04,-84.3"/>
</g>
<!-- 13 -->
<g id="node14" class="node">
<title>13</title>
<polygon fill="none" stroke="black" points="918.5,-74 772.75,-74 772.75,0 918.5,0 918.5,-74"/>
<text text-anchor="middle" x="845.62" y="-56.7" font-family="Helvetica,sans-Serif" font-size="14.00">gini = 0.017</text>
<text text-anchor="middle" x="845.62" y="-40.2" font-family="Helvetica,sans-Serif" font-size="14.00">samples = 22306</text>
<text text-anchor="middle" x="845.62" y="-23.7" font-family="Helvetica,sans-Serif" font-size="14.00">value = [192, 22114]</text>
<text text-anchor="middle" x="845.62" y="-7.2" font-family="Helvetica,sans-Serif" font-size="14.00">class = approve</text>
</g>
<!-- 11&#45;&gt;13 -->
<g id="edge13" class="edge">
<title>11&#45;&gt;13</title>
<path fill="none" stroke="black" d="M782.77,-109.64C790.44,-100.9 798.49,-91.73 806.16,-82.97"/>
<polygon fill="black" stroke="black" points="808.73,-85.36 812.69,-75.53 803.47,-80.74 808.73,-85.36"/>
</g>
<!-- 15 -->
<g id="node16" class="node">
<title>15</title>
<polygon fill="none" stroke="black" points="1081.62,-327 963.62,-327 963.62,-236.5 1081.62,-236.5 1081.62,-327"/>
<text text-anchor="middle" x="1022.62" y="-309.7" font-family="Helvetica,sans-Serif" font-size="14.00">company &lt;= 3.5</text>
<text text-anchor="middle" x="1022.62" y="-293.2" font-family="Helvetica,sans-Serif" font-size="14.00">gini = 0.053</text>
<text text-anchor="middle" x="1022.62" y="-276.7" font-family="Helvetica,sans-Serif" font-size="14.00">samples = 148</text>
<text text-anchor="middle" x="1022.62" y="-260.2" font-family="Helvetica,sans-Serif" font-size="14.00">value = [4, 144]</text>
<text text-anchor="middle" x="1022.62" y="-243.7" font-family="Helvetica,sans-Serif" font-size="14.00">class = approve</text>
</g>
<!-- 14&#45;&gt;15 -->
<g id="edge15" class="edge">
<title>14&#45;&gt;15</title>
<path fill="none" stroke="black" d="M1022.62,-362.65C1022.62,-354.97 1022.62,-346.89 1022.62,-338.94"/>
<polygon fill="black" stroke="black" points="1026.13,-338.97 1022.63,-328.97 1019.13,-338.97 1026.13,-338.97"/>
</g>
<!-- 20 -->
<g id="node21" class="node">
<title>20</title>
<polygon fill="none" stroke="black" points="1446.38,-327 1308.88,-327 1308.88,-236.5 1446.38,-236.5 1446.38,-327"/>
<text text-anchor="middle" x="1377.62" y="-309.7" font-family="Helvetica,sans-Serif" font-size="14.00">loan_term &lt;= 0.5</text>
<text text-anchor="middle" x="1377.62" y="-293.2" font-family="Helvetica,sans-Serif" font-size="14.00">gini = 0.001</text>
<text text-anchor="middle" x="1377.62" y="-276.7" font-family="Helvetica,sans-Serif" font-size="14.00">samples = 36481</text>
<text text-anchor="middle" x="1377.62" y="-260.2" font-family="Helvetica,sans-Serif" font-size="14.00">value = [27, 36454]</text>
<text text-anchor="middle" x="1377.62" y="-243.7" font-family="Helvetica,sans-Serif" font-size="14.00">class = approve</text>
</g>
<!-- 14&#45;&gt;20 -->
<g id="edge20" class="edge">
<title>14&#45;&gt;20</title>
<path fill="none" stroke="black" d="M1091.49,-383.1C1150.68,-362.34 1236.04,-332.4 1298.12,-310.63"/>
<polygon fill="black" stroke="black" points="1298.94,-314.05 1307.22,-307.44 1296.62,-307.45 1298.94,-314.05"/>
</g>
<!-- 16 -->
<g id="node17" class="node">
<title>16</title>
<polygon fill="none" stroke="black" points="969.88,-192.25 853.38,-192.25 853.38,-118.25 969.88,-118.25 969.88,-192.25"/>
<text text-anchor="middle" x="911.62" y="-174.95" font-family="Helvetica,sans-Serif" font-size="14.00">gini = 0.0</text>
<text text-anchor="middle" x="911.62" y="-158.45" font-family="Helvetica,sans-Serif" font-size="14.00">samples = 115</text>
<text text-anchor="middle" x="911.62" y="-141.95" font-family="Helvetica,sans-Serif" font-size="14.00">value = [0, 115]</text>
<text text-anchor="middle" x="911.62" y="-125.45" font-family="Helvetica,sans-Serif" font-size="14.00">class = approve</text>
</g>
<!-- 15&#45;&gt;16 -->
<g id="edge16" class="edge">
<title>15&#45;&gt;16</title>
<path fill="none" stroke="black" d="M982.86,-236.15C972.65,-224.7 961.67,-212.38 951.45,-200.92"/>
<polygon fill="black" stroke="black" points="954.09,-198.62 944.82,-193.49 948.87,-203.28 954.09,-198.62"/>
</g>
<!-- 17 -->
<g id="node18" class="node">
<title>17</title>
<polygon fill="none" stroke="black" points="1278.88,-200.5 988.38,-200.5 988.38,-110 1278.88,-110 1278.88,-200.5"/>
<text text-anchor="middle" x="1133.62" y="-183.2" font-family="Helvetica,sans-Serif" font-size="14.00">tract_median_age_of_housing_units &lt;= 0.5</text>
<text text-anchor="middle" x="1133.62" y="-166.7" font-family="Helvetica,sans-Serif" font-size="14.00">gini = 0.213</text>
<text text-anchor="middle" x="1133.62" y="-150.2" font-family="Helvetica,sans-Serif" font-size="14.00">samples = 33</text>
<text text-anchor="middle" x="1133.62" y="-133.7" font-family="Helvetica,sans-Serif" font-size="14.00">value = [4, 29]</text>
<text text-anchor="middle" x="1133.62" y="-117.2" font-family="Helvetica,sans-Serif" font-size="14.00">class = approve</text>
</g>
<!-- 15&#45;&gt;17 -->
<g id="edge17" class="edge">
<title>15&#45;&gt;17</title>
<path fill="none" stroke="black" d="M1062.39,-236.15C1070.12,-227.48 1078.29,-218.31 1086.24,-209.4"/>
<polygon fill="black" stroke="black" points="1088.72,-211.88 1092.76,-202.08 1083.49,-207.22 1088.72,-211.88"/>
</g>
<!-- 18 -->
<g id="node19" class="node">
<title>18</title>
<polygon fill="none" stroke="black" points="1059.75,-74 963.5,-74 963.5,0 1059.75,0 1059.75,-74"/>
<text text-anchor="middle" x="1011.62" y="-56.7" font-family="Helvetica,sans-Serif" font-size="14.00">gini = 0.0</text>
<text text-anchor="middle" x="1011.62" y="-40.2" font-family="Helvetica,sans-Serif" font-size="14.00">samples = 1</text>
<text text-anchor="middle" x="1011.62" y="-23.7" font-family="Helvetica,sans-Serif" font-size="14.00">value = [1, 0]</text>
<text text-anchor="middle" x="1011.62" y="-7.2" font-family="Helvetica,sans-Serif" font-size="14.00">class = deny</text>
</g>
<!-- 17&#45;&gt;18 -->
<g id="edge18" class="edge">
<title>17&#45;&gt;18</title>
<path fill="none" stroke="black" d="M1086.81,-109.64C1077.35,-100.62 1067.41,-91.15 1057.96,-82.15"/>
<polygon fill="black" stroke="black" points="1060.57,-79.8 1050.91,-75.44 1055.74,-84.87 1060.57,-79.8"/>
</g>
<!-- 19 -->
<g id="node20" class="node">
<title>19</title>
<polygon fill="none" stroke="black" points="1193.88,-74 1077.38,-74 1077.38,0 1193.88,0 1193.88,-74"/>
<text text-anchor="middle" x="1135.62" y="-56.7" font-family="Helvetica,sans-Serif" font-size="14.00">gini = 0.17</text>
<text text-anchor="middle" x="1135.62" y="-40.2" font-family="Helvetica,sans-Serif" font-size="14.00">samples = 32</text>
<text text-anchor="middle" x="1135.62" y="-23.7" font-family="Helvetica,sans-Serif" font-size="14.00">value = [3, 29]</text>
<text text-anchor="middle" x="1135.62" y="-7.2" font-family="Helvetica,sans-Serif" font-size="14.00">class = approve</text>
</g>
<!-- 17&#45;&gt;19 -->
<g id="edge19" class="edge">
<title>17&#45;&gt;19</title>
<path fill="none" stroke="black" d="M1134.39,-109.64C1134.53,-101.81 1134.67,-93.63 1134.8,-85.72"/>
<polygon fill="black" stroke="black" points="1138.3,-85.97 1134.97,-75.91 1131.3,-85.85 1138.3,-85.97"/>
</g>
<!-- 21 -->
<g id="node22" class="node">
<title>21</title>
<polygon fill="none" stroke="black" points="1458,-200.5 1297.25,-200.5 1297.25,-110 1458,-110 1458,-200.5"/>
<text text-anchor="middle" x="1377.62" y="-183.2" font-family="Helvetica,sans-Serif" font-size="14.00">tract_population &lt;= 1.0</text>
<text text-anchor="middle" x="1377.62" y="-166.7" font-family="Helvetica,sans-Serif" font-size="14.00">gini = 0.153</text>
<text text-anchor="middle" x="1377.62" y="-150.2" font-family="Helvetica,sans-Serif" font-size="14.00">samples = 12</text>
<text text-anchor="middle" x="1377.62" y="-133.7" font-family="Helvetica,sans-Serif" font-size="14.00">value = [1, 11]</text>
<text text-anchor="middle" x="1377.62" y="-117.2" font-family="Helvetica,sans-Serif" font-size="14.00">class = approve</text>
</g>
<!-- 20&#45;&gt;21 -->
<g id="edge21" class="edge">
<title>20&#45;&gt;21</title>
<path fill="none" stroke="black" d="M1377.62,-236.15C1377.62,-228.47 1377.62,-220.39 1377.62,-212.44"/>
<polygon fill="black" stroke="black" points="1381.13,-212.47 1377.63,-202.47 1374.13,-212.47 1381.13,-212.47"/>
</g>
<!-- 24 -->
<g id="node25" class="node">
<title>24</title>
<polygon fill="none" stroke="black" points="1613.38,-200.5 1475.88,-200.5 1475.88,-110 1613.38,-110 1613.38,-200.5"/>
<text text-anchor="middle" x="1544.62" y="-183.2" font-family="Helvetica,sans-Serif" font-size="14.00">company &lt;= 3.5</text>
<text text-anchor="middle" x="1544.62" y="-166.7" font-family="Helvetica,sans-Serif" font-size="14.00">gini = 0.001</text>
<text text-anchor="middle" x="1544.62" y="-150.2" font-family="Helvetica,sans-Serif" font-size="14.00">samples = 36469</text>
<text text-anchor="middle" x="1544.62" y="-133.7" font-family="Helvetica,sans-Serif" font-size="14.00">value = [26, 36443]</text>
<text text-anchor="middle" x="1544.62" y="-117.2" font-family="Helvetica,sans-Serif" font-size="14.00">class = approve</text>
</g>
<!-- 20&#45;&gt;24 -->
<g id="edge24" class="edge">
<title>20&#45;&gt;24</title>
<path fill="none" stroke="black" d="M1437.44,-236.15C1449.8,-226.95 1462.9,-217.18 1475.55,-207.75"/>
<polygon fill="black" stroke="black" points="1477.52,-210.64 1483.45,-201.86 1473.34,-205.03 1477.52,-210.64"/>
</g>
<!-- 22 -->
<g id="node23" class="node">
<title>22</title>
<polygon fill="none" stroke="black" points="1316.75,-74 1220.5,-74 1220.5,0 1316.75,0 1316.75,-74"/>
<text text-anchor="middle" x="1268.62" y="-56.7" font-family="Helvetica,sans-Serif" font-size="14.00">gini = 0.0</text>
<text text-anchor="middle" x="1268.62" y="-40.2" font-family="Helvetica,sans-Serif" font-size="14.00">samples = 1</text>
<text text-anchor="middle" x="1268.62" y="-23.7" font-family="Helvetica,sans-Serif" font-size="14.00">value = [1, 0]</text>
<text text-anchor="middle" x="1268.62" y="-7.2" font-family="Helvetica,sans-Serif" font-size="14.00">class = deny</text>
</g>
<!-- 21&#45;&gt;22 -->
<g id="edge22" class="edge">
<title>21&#45;&gt;22</title>
<path fill="none" stroke="black" d="M1335.79,-109.64C1327.51,-100.81 1318.82,-91.53 1310.54,-82.7"/>
<polygon fill="black" stroke="black" points="1313.18,-80.4 1303.78,-75.5 1308.07,-85.19 1313.18,-80.4"/>
</g>
<!-- 23 -->
<g id="node24" class="node">
<title>23</title>
<polygon fill="none" stroke="black" points="1450.88,-74 1334.38,-74 1334.38,0 1450.88,0 1450.88,-74"/>
<text text-anchor="middle" x="1392.62" y="-56.7" font-family="Helvetica,sans-Serif" font-size="14.00">gini = 0.0</text>
<text text-anchor="middle" x="1392.62" y="-40.2" font-family="Helvetica,sans-Serif" font-size="14.00">samples = 11</text>
<text text-anchor="middle" x="1392.62" y="-23.7" font-family="Helvetica,sans-Serif" font-size="14.00">value = [0, 11]</text>
<text text-anchor="middle" x="1392.62" y="-7.2" font-family="Helvetica,sans-Serif" font-size="14.00">class = approve</text>
</g>
<!-- 21&#45;&gt;23 -->
<g id="edge23" class="edge">
<title>21&#45;&gt;23</title>
<path fill="none" stroke="black" d="M1383.38,-109.64C1384.39,-101.81 1385.45,-93.63 1386.47,-85.72"/>
<polygon fill="black" stroke="black" points="1389.93,-86.26 1387.74,-75.89 1382.98,-85.36 1389.93,-86.26"/>
</g>
<!-- 25 -->
<g id="node26" class="node">
<title>25</title>
<polygon fill="none" stroke="black" points="1610.38,-74 1472.88,-74 1472.88,0 1610.38,0 1610.38,-74"/>
<text text-anchor="middle" x="1541.62" y="-56.7" font-family="Helvetica,sans-Serif" font-size="14.00">gini = 0.001</text>
<text text-anchor="middle" x="1541.62" y="-40.2" font-family="Helvetica,sans-Serif" font-size="14.00">samples = 31795</text>
<text text-anchor="middle" x="1541.62" y="-23.7" font-family="Helvetica,sans-Serif" font-size="14.00">value = [10, 31785]</text>
<text text-anchor="middle" x="1541.62" y="-7.2" font-family="Helvetica,sans-Serif" font-size="14.00">class = approve</text>
</g>
<!-- 24&#45;&gt;25 -->
<g id="edge25" class="edge">
<title>24&#45;&gt;25</title>
<path fill="none" stroke="black" d="M1543.47,-109.64C1543.27,-101.81 1543.06,-93.63 1542.86,-85.72"/>
<polygon fill="black" stroke="black" points="1546.36,-85.81 1542.6,-75.91 1539.36,-85.99 1546.36,-85.81"/>
</g>
<!-- 26 -->
<g id="node27" class="node">
<title>26</title>
<polygon fill="none" stroke="black" points="1757.25,-74 1628,-74 1628,0 1757.25,0 1757.25,-74"/>
<text text-anchor="middle" x="1692.62" y="-56.7" font-family="Helvetica,sans-Serif" font-size="14.00">gini = 0.007</text>
<text text-anchor="middle" x="1692.62" y="-40.2" font-family="Helvetica,sans-Serif" font-size="14.00">samples = 4674</text>
<text text-anchor="middle" x="1692.62" y="-23.7" font-family="Helvetica,sans-Serif" font-size="14.00">value = [16, 4658]</text>
<text text-anchor="middle" x="1692.62" y="-7.2" font-family="Helvetica,sans-Serif" font-size="14.00">class = approve</text>
</g>
<!-- 24&#45;&gt;26 -->
<g id="edge26" class="edge">
<title>24&#45;&gt;26</title>
<path fill="none" stroke="black" d="M1601.42,-109.64C1613.24,-100.35 1625.69,-90.58 1637.45,-81.34"/>
<polygon fill="black" stroke="black" points="1639.4,-84.26 1645.1,-75.33 1635.08,-78.75 1639.4,-84.26"/>
</g>
</g>
</svg>
