<?xml version="1.0" encoding="UTF-8" standalone="no"?>
<!DOCTYPE svg PUBLIC "-//W3C//DTD SVG 1.1//EN"
 "http://www.w3.org/Graphics/SVG/1.1/DTD/svg11.dtd">
<!-- Generated by graphviz version 10.0.1 (20240210.2158)
 -->
<!-- Title: Tree Pages: 1 -->
<svg width="1760pt" height="588pt"
 viewBox="0.00 0.00 1759.88 588.00" xmlns="http://www.w3.org/2000/svg" xmlns:xlink="http://www.w3.org/1999/xlink">
<g id="graph0" class="graph" transform="scale(1 1) rotate(0) translate(4 584)">
<title>Tree</title>
<polygon fill="white" stroke="none" points="-4,4 -4,-584 1755.88,-584 1755.88,4 -4,4"/>
<!-- 0 -->
<g id="node1" class="node">
<title>0</title>
<polygon fill="none" stroke="black" points="960.12,-580 779.12,-580 779.12,-489.5 960.12,-489.5 960.12,-580"/>
<text text-anchor="middle" x="869.62" y="-562.7" font-family="Helvetica,sans-Serif" font-size="14.00">aus_Not applicable &lt;= 0.5</text>
<text text-anchor="middle" x="869.62" y="-546.2" font-family="Helvetica,sans-Serif" font-size="14.00">gini = 0.248</text>
<text text-anchor="middle" x="869.62" y="-529.7" font-family="Helvetica,sans-Serif" font-size="14.00">samples = 162656</text>
<text text-anchor="middle" x="869.62" y="-513.2" font-family="Helvetica,sans-Serif" font-size="14.00">value = [23538, 139118]</text>
<text text-anchor="middle" x="869.62" y="-496.7" font-family="Helvetica,sans-Serif" font-size="14.00">class = approve</text>
</g>
<!-- 1 -->
<g id="node2" class="node">
<title>1</title>
<polygon fill="none" stroke="black" points="855.88,-453.5 685.38,-453.5 685.38,-363 855.88,-363 855.88,-453.5"/>
<text text-anchor="middle" x="770.62" y="-436.2" font-family="Helvetica,sans-Serif" font-size="14.00">interest_rate &lt;= 2.5</text>
<text text-anchor="middle" x="770.62" y="-419.7" font-family="Helvetica,sans-Serif" font-size="14.00">gini = 0.221</text>
<text text-anchor="middle" x="770.62" y="-403.2" font-family="Helvetica,sans-Serif" font-size="14.00">samples = 155311</text>
<text text-anchor="middle" x="770.62" y="-386.7" font-family="Helvetica,sans-Serif" font-size="14.00">value = [19628, 135683]</text>
<text text-anchor="middle" x="770.62" y="-370.2" font-family="Helvetica,sans-Serif" font-size="14.00">class = approve</text>
</g>
<!-- 0&#45;&gt;1 -->
<g id="edge1" class="edge">
<title>0&#45;&gt;1</title>
<path fill="none" stroke="black" d="M834.16,-489.15C827.41,-480.66 820.28,-471.69 813.33,-462.95"/>
<polygon fill="black" stroke="black" points="816.08,-460.79 807.11,-455.14 810.6,-465.14 816.08,-460.79"/>
<text text-anchor="middle" x="803.34" y="-473.74" font-family="Helvetica,sans-Serif" font-size="14.00">True</text>
</g>
<!-- 14 -->
<g id="node15" class="node">
<title>14</title>
<polygon fill="none" stroke="black" points="1055.5,-453.5 909.75,-453.5 909.75,-363 1055.5,-363 1055.5,-453.5"/>
<text text-anchor="middle" x="982.62" y="-436.2" font-family="Helvetica,sans-Serif" font-size="14.00">interest_rate &lt;= 2.5</text>
<text text-anchor="middle" x="982.62" y="-419.7" font-family="Helvetica,sans-Serif" font-size="14.00">gini = 0.498</text>
<text text-anchor="middle" x="982.62" y="-403.2" font-family="Helvetica,sans-Serif" font-size="14.00">samples = 7345</text>
<text text-anchor="middle" x="982.62" y="-386.7" font-family="Helvetica,sans-Serif" font-size="14.00">value = [3910, 3435]</text>
<text text-anchor="middle" x="982.62" y="-370.2" font-family="Helvetica,sans-Serif" font-size="14.00">class = deny</text>
</g>
<!-- 0&#45;&gt;14 -->
<g id="edge14" class="edge">
<title>0&#45;&gt;14</title>
<path fill="none" stroke="black" d="M910.1,-489.15C917.97,-480.48 926.29,-471.31 934.39,-462.4"/>
<polygon fill="black" stroke="black" points="936.91,-464.83 941.03,-455.07 931.72,-460.13 936.91,-464.83"/>
<text text-anchor="middle" x="943.26" y="-473.87" font-family="Helvetica,sans-Serif" font-size="14.00">False</text>
</g>
<!-- 2 -->
<g id="node3" class="node">
<title>2</title>
<polygon fill="none" stroke="black" points="570.75,-327 360.5,-327 360.5,-236.5 570.75,-236.5 570.75,-327"/>
<text text-anchor="middle" x="465.62" y="-309.7" font-family="Helvetica,sans-Serif" font-size="14.00">aus_Internal Proprietary &lt;= 0.5</text>
<text text-anchor="middle" x="465.62" y="-293.2" font-family="Helvetica,sans-Serif" font-size="14.00">gini = 0.274</text>
<text text-anchor="middle" x="465.62" y="-276.7" font-family="Helvetica,sans-Serif" font-size="14.00">samples = 119725</text>
<text text-anchor="middle" x="465.62" y="-260.2" font-family="Helvetica,sans-Serif" font-size="14.00">value = [19600, 100125]</text>
<text text-anchor="middle" x="465.62" y="-243.7" font-family="Helvetica,sans-Serif" font-size="14.00">class = approve</text>
</g>
<!-- 1&#45;&gt;2 -->
<g id="edge2" class="edge">
<title>1&#45;&gt;2</title>
<path fill="none" stroke="black" d="M685.26,-372.4C653.16,-359.3 616.1,-344.17 581.67,-330.12"/>
<polygon fill="black" stroke="black" points="583.06,-326.91 572.48,-326.37 580.42,-333.39 583.06,-326.91"/>
</g>
<!-- 9 -->
<g id="node10" class="node">
<title>9</title>
<polygon fill="none" stroke="black" points="878.38,-327 662.88,-327 662.88,-236.5 878.38,-236.5 878.38,-327"/>
<text text-anchor="middle" x="770.62" y="-309.7" font-family="Helvetica,sans-Serif" font-size="14.00">open&#45;end_line_of_credit &lt;= 0.5</text>
<text text-anchor="middle" x="770.62" y="-293.2" font-family="Helvetica,sans-Serif" font-size="14.00">gini = 0.002</text>
<text text-anchor="middle" x="770.62" y="-276.7" font-family="Helvetica,sans-Serif" font-size="14.00">samples = 35586</text>
<text text-anchor="middle" x="770.62" y="-260.2" font-family="Helvetica,sans-Serif" font-size="14.00">value = [28, 35558]</text>
<text text-anchor="middle" x="770.62" y="-243.7" font-family="Helvetica,sans-Serif" font-size="14.00">class = approve</text>
</g>
<!-- 1&#45;&gt;9 -->
<g id="edge9" class="edge">
<title>1&#45;&gt;9</title>
<path fill="none" stroke="black" d="M770.62,-362.65C770.62,-354.97 770.62,-346.89 770.62,-338.94"/>
<polygon fill="black" stroke="black" points="774.13,-338.97 770.63,-328.97 767.13,-338.97 774.13,-338.97"/>
</g>
<!-- 3 -->
<g id="node4" class="node">
<title>3</title>
<polygon fill="none" stroke="black" points="309.75,-200.5 147.5,-200.5 147.5,-110 309.75,-110 309.75,-200.5"/>
<text text-anchor="middle" x="228.62" y="-183.2" font-family="Helvetica,sans-Serif" font-size="14.00">income &lt;= 1.5</text>
<text text-anchor="middle" x="228.62" y="-166.7" font-family="Helvetica,sans-Serif" font-size="14.00">gini = 0.232</text>
<text text-anchor="middle" x="228.62" y="-150.2" font-family="Helvetica,sans-Serif" font-size="14.00">samples = 106319</text>
<text text-anchor="middle" x="228.62" y="-133.7" font-family="Helvetica,sans-Serif" font-size="14.00">value = [14265, 92054]</text>
<text text-anchor="middle" x="228.62" y="-117.2" font-family="Helvetica,sans-Serif" font-size="14.00">class = approve</text>
</g>
<!-- 2&#45;&gt;3 -->
<g id="edge3" class="edge">
<title>2&#45;&gt;3</title>
<path fill="none" stroke="black" d="M380.73,-236.15C361.07,-225.83 340.07,-214.8 320.15,-204.33"/>
<polygon fill="black" stroke="black" points="321.97,-201.33 311.49,-199.78 318.71,-207.53 321.97,-201.33"/>
</g>
<!-- 6 -->
<g id="node7" class="node">
<title>6</title>
<polygon fill="none" stroke="black" points="575.62,-200.5 355.62,-200.5 355.62,-110 575.62,-110 575.62,-200.5"/>
<text text-anchor="middle" x="465.62" y="-183.2" font-family="Helvetica,sans-Serif" font-size="14.00">aus_Desktop Underwriter &lt;= 0.5</text>
<text text-anchor="middle" x="465.62" y="-166.7" font-family="Helvetica,sans-Serif" font-size="14.00">gini = 0.479</text>
<text text-anchor="middle" x="465.62" y="-150.2" font-family="Helvetica,sans-Serif" font-size="14.00">samples = 13406</text>
<text text-anchor="middle" x="465.62" y="-133.7" font-family="Helvetica,sans-Serif" font-size="14.00">value = [5335, 8071]</text>
<text text-anchor="middle" x="465.62" y="-117.2" font-family="Helvetica,sans-Serif" font-size="14.00">class = approve</text>
</g>
<!-- 2&#45;&gt;6 -->
<g id="edge6" class="edge">
<title>2&#45;&gt;6</title>
<path fill="none" stroke="black" d="M465.62,-236.15C465.62,-228.47 465.62,-220.39 465.62,-212.44"/>
<polygon fill="black" stroke="black" points="469.13,-212.47 465.63,-202.47 462.13,-212.47 469.13,-212.47"/>
</g>
<!-- 4 -->
<g id="node5" class="node">
<title>4</title>
<polygon fill="none" stroke="black" points="129.25,-74 0,-74 0,0 129.25,0 129.25,-74"/>
<text text-anchor="middle" x="64.62" y="-56.7" font-family="Helvetica,sans-Serif" font-size="14.00">gini = 0.294</text>
<text text-anchor="middle" x="64.62" y="-40.2" font-family="Helvetica,sans-Serif" font-size="14.00">samples = 1104</text>
<text text-anchor="middle" x="64.62" y="-23.7" font-family="Helvetica,sans-Serif" font-size="14.00">value = [906, 198]</text>
<text text-anchor="middle" x="64.62" y="-7.2" font-family="Helvetica,sans-Serif" font-size="14.00">class = deny</text>
</g>
<!-- 3&#45;&gt;4 -->
<g id="edge4" class="edge">
<title>3&#45;&gt;4</title>
<path fill="none" stroke="black" d="M165.69,-109.64C152.33,-100.17 138.26,-90.19 125,-80.8"/>
<polygon fill="black" stroke="black" points="127.38,-78.2 117.2,-75.27 123.34,-83.91 127.38,-78.2"/>
</g>
<!-- 5 -->
<g id="node6" class="node">
<title>5</title>
<polygon fill="none" stroke="black" points="309.75,-74 147.5,-74 147.5,0 309.75,0 309.75,-74"/>
<text text-anchor="middle" x="228.62" y="-56.7" font-family="Helvetica,sans-Serif" font-size="14.00">gini = 0.222</text>
<text text-anchor="middle" x="228.62" y="-40.2" font-family="Helvetica,sans-Serif" font-size="14.00">samples = 105215</text>
<text text-anchor="middle" x="228.62" y="-23.7" font-family="Helvetica,sans-Serif" font-size="14.00">value = [13359, 91856]</text>
<text text-anchor="middle" x="228.62" y="-7.2" font-family="Helvetica,sans-Serif" font-size="14.00">class = approve</text>
</g>
<!-- 3&#45;&gt;5 -->
<g id="edge5" class="edge">
<title>3&#45;&gt;5</title>
<path fill="none" stroke="black" d="M228.62,-109.64C228.62,-101.81 228.62,-93.63 228.62,-85.72"/>
<polygon fill="black" stroke="black" points="232.13,-85.91 228.63,-75.91 225.13,-85.91 232.13,-85.91"/>
</g>
<!-- 7 -->
<g id="node8" class="node">
<title>7</title>
<polygon fill="none" stroke="black" points="473.5,-74 327.75,-74 327.75,0 473.5,0 473.5,-74"/>
<text text-anchor="middle" x="400.62" y="-56.7" font-family="Helvetica,sans-Serif" font-size="14.00">gini = 0.388</text>
<text text-anchor="middle" x="400.62" y="-40.2" font-family="Helvetica,sans-Serif" font-size="14.00">samples = 9504</text>
<text text-anchor="middle" x="400.62" y="-23.7" font-family="Helvetica,sans-Serif" font-size="14.00">value = [2498, 7006]</text>
<text text-anchor="middle" x="400.62" y="-7.2" font-family="Helvetica,sans-Serif" font-size="14.00">class = approve</text>
</g>
<!-- 6&#45;&gt;7 -->
<g id="edge7" class="edge">
<title>6&#45;&gt;7</title>
<path fill="none" stroke="black" d="M440.68,-109.64C436.05,-101.35 431.2,-92.68 426.54,-84.34"/>
<polygon fill="black" stroke="black" points="429.65,-82.73 421.71,-75.71 423.54,-86.15 429.65,-82.73"/>
</g>
<!-- 8 -->
<g id="node9" class="node">
<title>8</title>
<polygon fill="none" stroke="black" points="637.5,-74 491.75,-74 491.75,0 637.5,0 637.5,-74"/>
<text text-anchor="middle" x="564.62" y="-56.7" font-family="Helvetica,sans-Serif" font-size="14.00">gini = 0.397</text>
<text text-anchor="middle" x="564.62" y="-40.2" font-family="Helvetica,sans-Serif" font-size="14.00">samples = 3902</text>
<text text-anchor="middle" x="564.62" y="-23.7" font-family="Helvetica,sans-Serif" font-size="14.00">value = [2837, 1065]</text>
<text text-anchor="middle" x="564.62" y="-7.2" font-family="Helvetica,sans-Serif" font-size="14.00">class = deny</text>
</g>
<!-- 6&#45;&gt;8 -->
<g id="edge8" class="edge">
<title>6&#45;&gt;8</title>
<path fill="none" stroke="black" d="M503.62,-109.64C511.06,-100.9 518.87,-91.73 526.32,-82.97"/>
<polygon fill="black" stroke="black" points="528.83,-85.43 532.65,-75.55 523.5,-80.89 528.83,-85.43"/>
</g>
<!-- 10 -->
<g id="node11" class="node">
<title>10</title>
<polygon fill="none" stroke="black" points="711.75,-192.25 615.5,-192.25 615.5,-118.25 711.75,-118.25 711.75,-192.25"/>
<text text-anchor="middle" x="663.62" y="-174.95" font-family="Helvetica,sans-Serif" font-size="14.00">gini = 0.0</text>
<text text-anchor="middle" x="663.62" y="-158.45" font-family="Helvetica,sans-Serif" font-size="14.00">samples = 1</text>
<text text-anchor="middle" x="663.62" y="-141.95" font-family="Helvetica,sans-Serif" font-size="14.00">value = [1, 0]</text>
<text text-anchor="middle" x="663.62" y="-125.45" font-family="Helvetica,sans-Serif" font-size="14.00">class = deny</text>
</g>
<!-- 9&#45;&gt;10 -->
<g id="edge10" class="edge">
<title>9&#45;&gt;10</title>
<path fill="none" stroke="black" d="M732.3,-236.15C722.45,-224.7 711.86,-212.38 702.02,-200.92"/>
<polygon fill="black" stroke="black" points="704.81,-198.81 695.64,-193.5 699.51,-203.37 704.81,-198.81"/>
</g>
<!-- 11 -->
<g id="node12" class="node">
<title>11</title>
<polygon fill="none" stroke="black" points="867.38,-200.5 729.88,-200.5 729.88,-110 867.38,-110 867.38,-200.5"/>
<text text-anchor="middle" x="798.62" y="-183.2" font-family="Helvetica,sans-Serif" font-size="14.00">income &lt;= 1.5</text>
<text text-anchor="middle" x="798.62" y="-166.7" font-family="Helvetica,sans-Serif" font-size="14.00">gini = 0.002</text>
<text text-anchor="middle" x="798.62" y="-150.2" font-family="Helvetica,sans-Serif" font-size="14.00">samples = 35585</text>
<text text-anchor="middle" x="798.62" y="-133.7" font-family="Helvetica,sans-Serif" font-size="14.00">value = [27, 35558]</text>
<text text-anchor="middle" x="798.62" y="-117.2" font-family="Helvetica,sans-Serif" font-size="14.00">class = approve</text>
</g>
<!-- 9&#45;&gt;11 -->
<g id="edge11" class="edge">
<title>9&#45;&gt;11</title>
<path fill="none" stroke="black" d="M780.65,-236.15C782.4,-228.38 784.24,-220.2 786.05,-212.16"/>
<polygon fill="black" stroke="black" points="789.46,-212.95 788.24,-202.43 782.63,-211.42 789.46,-212.95"/>
</g>
<!-- 12 -->
<g id="node13" class="node">
<title>12</title>
<polygon fill="none" stroke="black" points="771.88,-74 655.38,-74 655.38,0 771.88,0 771.88,-74"/>
<text text-anchor="middle" x="713.62" y="-56.7" font-family="Helvetica,sans-Serif" font-size="14.00">gini = 0.064</text>
<text text-anchor="middle" x="713.62" y="-40.2" font-family="Helvetica,sans-Serif" font-size="14.00">samples = 121</text>
<text text-anchor="middle" x="713.62" y="-23.7" font-family="Helvetica,sans-Serif" font-size="14.00">value = [4, 117]</text>
<text text-anchor="middle" x="713.62" y="-7.2" font-family="Helvetica,sans-Serif" font-size="14.00">class = approve</text>
</g>
<!-- 11&#45;&gt;12 -->
<g id="edge12" class="edge">
<title>11&#45;&gt;12</title>
<path fill="none" stroke="black" d="M766,-109.64C759.75,-101.08 753.19,-92.11 746.91,-83.52"/>
<polygon fill="black" stroke="black" points="749.86,-81.62 741.13,-75.62 744.21,-85.75 749.86,-81.62"/>
</g>
<!-- 13 -->
<g id="node14" class="node">
<title>13</title>
<polygon fill="none" stroke="black" points="927.38,-74 789.88,-74 789.88,0 927.38,0 927.38,-74"/>
<text text-anchor="middle" x="858.62" y="-56.7" font-family="Helvetica,sans-Serif" font-size="14.00">gini = 0.001</text>
<text text-anchor="middle" x="858.62" y="-40.2" font-family="Helvetica,sans-Serif" font-size="14.00">samples = 35464</text>
<text text-anchor="middle" x="858.62" y="-23.7" font-family="Helvetica,sans-Serif" font-size="14.00">value = [23, 35441]</text>
<text text-anchor="middle" x="858.62" y="-7.2" font-family="Helvetica,sans-Serif" font-size="14.00">class = approve</text>
</g>
<!-- 11&#45;&gt;13 -->
<g id="edge13" class="edge">
<title>11&#45;&gt;13</title>
<path fill="none" stroke="black" d="M821.65,-109.64C825.88,-101.44 830.3,-92.87 834.56,-84.62"/>
<polygon fill="black" stroke="black" points="837.67,-86.23 839.15,-75.74 831.45,-83.02 837.67,-86.23"/>
</g>
<!-- 15 -->
<g id="node16" class="node">
<title>15</title>
<polygon fill="none" stroke="black" points="1055.5,-327 909.75,-327 909.75,-236.5 1055.5,-236.5 1055.5,-327"/>
<text text-anchor="middle" x="982.62" y="-309.7" font-family="Helvetica,sans-Serif" font-size="14.00">interest_rate &lt;= 1.5</text>
<text text-anchor="middle" x="982.62" y="-293.2" font-family="Helvetica,sans-Serif" font-size="14.00">gini = 0.471</text>
<text text-anchor="middle" x="982.62" y="-276.7" font-family="Helvetica,sans-Serif" font-size="14.00">samples = 6302</text>
<text text-anchor="middle" x="982.62" y="-260.2" font-family="Helvetica,sans-Serif" font-size="14.00">value = [3907, 2395]</text>
<text text-anchor="middle" x="982.62" y="-243.7" font-family="Helvetica,sans-Serif" font-size="14.00">class = deny</text>
</g>
<!-- 14&#45;&gt;15 -->
<g id="edge15" class="edge">
<title>14&#45;&gt;15</title>
<path fill="none" stroke="black" d="M982.62,-362.65C982.62,-354.97 982.62,-346.89 982.62,-338.94"/>
<polygon fill="black" stroke="black" points="986.13,-338.97 982.63,-328.97 979.13,-338.97 986.13,-338.97"/>
</g>
<!-- 20 -->
<g id="node21" class="node">
<title>20</title>
<polygon fill="none" stroke="black" points="1391.12,-327 1270.12,-327 1270.12,-236.5 1391.12,-236.5 1391.12,-327"/>
<text text-anchor="middle" x="1330.62" y="-309.7" font-family="Helvetica,sans-Serif" font-size="14.00">income &lt;= 3.5</text>
<text text-anchor="middle" x="1330.62" y="-293.2" font-family="Helvetica,sans-Serif" font-size="14.00">gini = 0.006</text>
<text text-anchor="middle" x="1330.62" y="-276.7" font-family="Helvetica,sans-Serif" font-size="14.00">samples = 1043</text>
<text text-anchor="middle" x="1330.62" y="-260.2" font-family="Helvetica,sans-Serif" font-size="14.00">value = [3, 1040]</text>
<text text-anchor="middle" x="1330.62" y="-243.7" font-family="Helvetica,sans-Serif" font-size="14.00">class = approve</text>
</g>
<!-- 14&#45;&gt;20 -->
<g id="edge20" class="edge">
<title>14&#45;&gt;20</title>
<path fill="none" stroke="black" d="M1055.58,-381.15C1115.34,-359.77 1199.43,-329.69 1258.86,-308.42"/>
<polygon fill="black" stroke="black" points="1260,-311.73 1268.24,-305.07 1257.64,-305.14 1260,-311.73"/>
</g>
<!-- 16 -->
<g id="node17" class="node">
<title>16</title>
<polygon fill="none" stroke="black" points="1012.88,-192.25 896.38,-192.25 896.38,-118.25 1012.88,-118.25 1012.88,-192.25"/>
<text text-anchor="middle" x="954.62" y="-174.95" font-family="Helvetica,sans-Serif" font-size="14.00">gini = 0.0</text>
<text text-anchor="middle" x="954.62" y="-158.45" font-family="Helvetica,sans-Serif" font-size="14.00">samples = 951</text>
<text text-anchor="middle" x="954.62" y="-141.95" font-family="Helvetica,sans-Serif" font-size="14.00">value = [0, 951]</text>
<text text-anchor="middle" x="954.62" y="-125.45" font-family="Helvetica,sans-Serif" font-size="14.00">class = approve</text>
</g>
<!-- 15&#45;&gt;16 -->
<g id="edge16" class="edge">
<title>15&#45;&gt;16</title>
<path fill="none" stroke="black" d="M972.6,-236.15C970.2,-225.49 967.63,-214.06 965.2,-203.29"/>
<polygon fill="black" stroke="black" points="968.69,-202.82 963.08,-193.83 961.86,-204.36 968.69,-202.82"/>
</g>
<!-- 17 -->
<g id="node18" class="node">
<title>17</title>
<polygon fill="none" stroke="black" points="1194.5,-200.5 1030.75,-200.5 1030.75,-110 1194.5,-110 1194.5,-200.5"/>
<text text-anchor="middle" x="1112.62" y="-183.2" font-family="Helvetica,sans-Serif" font-size="14.00">total_loan_costs &lt;= 1.5</text>
<text text-anchor="middle" x="1112.62" y="-166.7" font-family="Helvetica,sans-Serif" font-size="14.00">gini = 0.394</text>
<text text-anchor="middle" x="1112.62" y="-150.2" font-family="Helvetica,sans-Serif" font-size="14.00">samples = 5351</text>
<text text-anchor="middle" x="1112.62" y="-133.7" font-family="Helvetica,sans-Serif" font-size="14.00">value = [3907, 1444]</text>
<text text-anchor="middle" x="1112.62" y="-117.2" font-family="Helvetica,sans-Serif" font-size="14.00">class = deny</text>
</g>
<!-- 15&#45;&gt;17 -->
<g id="edge17" class="edge">
<title>15&#45;&gt;17</title>
<path fill="none" stroke="black" d="M1029.19,-236.15C1038.43,-227.3 1048.22,-217.93 1057.7,-208.85"/>
<polygon fill="black" stroke="black" points="1060.05,-211.44 1064.85,-202 1055.21,-206.39 1060.05,-211.44"/>
</g>
<!-- 18 -->
<g id="node19" class="node">
<title>18</title>
<polygon fill="none" stroke="black" points="1091.5,-74 945.75,-74 945.75,0 1091.5,0 1091.5,-74"/>
<text text-anchor="middle" x="1018.62" y="-56.7" font-family="Helvetica,sans-Serif" font-size="14.00">gini = 0.369</text>
<text text-anchor="middle" x="1018.62" y="-40.2" font-family="Helvetica,sans-Serif" font-size="14.00">samples = 5045</text>
<text text-anchor="middle" x="1018.62" y="-23.7" font-family="Helvetica,sans-Serif" font-size="14.00">value = [3815, 1230]</text>
<text text-anchor="middle" x="1018.62" y="-7.2" font-family="Helvetica,sans-Serif" font-size="14.00">class = deny</text>
</g>
<!-- 17&#45;&gt;18 -->
<g id="edge18" class="edge">
<title>17&#45;&gt;18</title>
<path fill="none" stroke="black" d="M1076.55,-109.64C1069.56,-100.99 1062.22,-91.92 1055.21,-83.25"/>
<polygon fill="black" stroke="black" points="1058.01,-81.15 1049,-75.57 1052.57,-85.55 1058.01,-81.15"/>
</g>
<!-- 19 -->
<g id="node20" class="node">
<title>19</title>
<polygon fill="none" stroke="black" points="1230.12,-74 1109.12,-74 1109.12,0 1230.12,0 1230.12,-74"/>
<text text-anchor="middle" x="1169.62" y="-56.7" font-family="Helvetica,sans-Serif" font-size="14.00">gini = 0.421</text>
<text text-anchor="middle" x="1169.62" y="-40.2" font-family="Helvetica,sans-Serif" font-size="14.00">samples = 306</text>
<text text-anchor="middle" x="1169.62" y="-23.7" font-family="Helvetica,sans-Serif" font-size="14.00">value = [92, 214]</text>
<text text-anchor="middle" x="1169.62" y="-7.2" font-family="Helvetica,sans-Serif" font-size="14.00">class = approve</text>
</g>
<!-- 17&#45;&gt;19 -->
<g id="edge19" class="edge">
<title>17&#45;&gt;19</title>
<path fill="none" stroke="black" d="M1134.5,-109.64C1138.52,-101.44 1142.72,-92.87 1146.77,-84.62"/>
<polygon fill="black" stroke="black" points="1149.85,-86.27 1151.11,-75.75 1143.57,-83.19 1149.85,-86.27"/>
</g>
<!-- 21 -->
<g id="node22" class="node">
<title>21</title>
<polygon fill="none" stroke="black" points="1443.62,-200.5 1217.62,-200.5 1217.62,-110 1443.62,-110 1443.62,-200.5"/>
<text text-anchor="middle" x="1330.62" y="-183.2" font-family="Helvetica,sans-Serif" font-size="14.00">co&#45;applicant_race_Filipino &lt;= 0.5</text>
<text text-anchor="middle" x="1330.62" y="-166.7" font-family="Helvetica,sans-Serif" font-size="14.00">gini = 0.002</text>
<text text-anchor="middle" x="1330.62" y="-150.2" font-family="Helvetica,sans-Serif" font-size="14.00">samples = 1014</text>
<text text-anchor="middle" x="1330.62" y="-133.7" font-family="Helvetica,sans-Serif" font-size="14.00">value = [1, 1013]</text>
<text text-anchor="middle" x="1330.62" y="-117.2" font-family="Helvetica,sans-Serif" font-size="14.00">class = approve</text>
</g>
<!-- 20&#45;&gt;21 -->
<g id="edge21" class="edge">
<title>20&#45;&gt;21</title>
<path fill="none" stroke="black" d="M1330.62,-236.15C1330.62,-228.47 1330.62,-220.39 1330.62,-212.44"/>
<polygon fill="black" stroke="black" points="1334.13,-212.47 1330.63,-202.47 1327.13,-212.47 1334.13,-212.47"/>
</g>
<!-- 24 -->
<g id="node25" class="node">
<title>24</title>
<polygon fill="none" stroke="black" points="1654.12,-200.5 1485.12,-200.5 1485.12,-110 1654.12,-110 1654.12,-200.5"/>
<text text-anchor="middle" x="1569.62" y="-183.2" font-family="Helvetica,sans-Serif" font-size="14.00">co&#45;applicant_age &lt;= 2.5</text>
<text text-anchor="middle" x="1569.62" y="-166.7" font-family="Helvetica,sans-Serif" font-size="14.00">gini = 0.128</text>
<text text-anchor="middle" x="1569.62" y="-150.2" font-family="Helvetica,sans-Serif" font-size="14.00">samples = 29</text>
<text text-anchor="middle" x="1569.62" y="-133.7" font-family="Helvetica,sans-Serif" font-size="14.00">value = [2, 27]</text>
<text text-anchor="middle" x="1569.62" y="-117.2" font-family="Helvetica,sans-Serif" font-size="14.00">class = approve</text>
</g>
<!-- 20&#45;&gt;24 -->
<g id="edge24" class="edge">
<title>20&#45;&gt;24</title>
<path fill="none" stroke="black" d="M1391.55,-249.01C1416.91,-235.8 1446.95,-220.15 1475.06,-205.51"/>
<polygon fill="black" stroke="black" points="1476.32,-208.8 1483.57,-201.08 1473.09,-202.59 1476.32,-208.8"/>
</g>
<!-- 22 -->
<g id="node23" class="node">
<title>22</title>
<polygon fill="none" stroke="black" points="1369.12,-74 1248.12,-74 1248.12,0 1369.12,0 1369.12,-74"/>
<text text-anchor="middle" x="1308.62" y="-56.7" font-family="Helvetica,sans-Serif" font-size="14.00">gini = 0.0</text>
<text text-anchor="middle" x="1308.62" y="-40.2" font-family="Helvetica,sans-Serif" font-size="14.00">samples = 1004</text>
<text text-anchor="middle" x="1308.62" y="-23.7" font-family="Helvetica,sans-Serif" font-size="14.00">value = [0, 1004]</text>
<text text-anchor="middle" x="1308.62" y="-7.2" font-family="Helvetica,sans-Serif" font-size="14.00">class = approve</text>
</g>
<!-- 21&#45;&gt;22 -->
<g id="edge22" class="edge">
<title>21&#45;&gt;22</title>
<path fill="none" stroke="black" d="M1322.18,-109.64C1320.68,-101.72 1319.12,-93.44 1317.6,-85.45"/>
<polygon fill="black" stroke="black" points="1321.09,-85.06 1315.79,-75.88 1314.21,-86.36 1321.09,-85.06"/>
</g>
<!-- 23 -->
<g id="node24" class="node">
<title>23</title>
<polygon fill="none" stroke="black" points="1503.88,-74 1387.38,-74 1387.38,0 1503.88,0 1503.88,-74"/>
<text text-anchor="middle" x="1445.62" y="-56.7" font-family="Helvetica,sans-Serif" font-size="14.00">gini = 0.18</text>
<text text-anchor="middle" x="1445.62" y="-40.2" font-family="Helvetica,sans-Serif" font-size="14.00">samples = 10</text>
<text text-anchor="middle" x="1445.62" y="-23.7" font-family="Helvetica,sans-Serif" font-size="14.00">value = [1, 9]</text>
<text text-anchor="middle" x="1445.62" y="-7.2" font-family="Helvetica,sans-Serif" font-size="14.00">class = approve</text>
</g>
<!-- 21&#45;&gt;23 -->
<g id="edge23" class="edge">
<title>21&#45;&gt;23</title>
<path fill="none" stroke="black" d="M1374.76,-109.64C1383.58,-100.72 1392.86,-91.34 1401.68,-82.43"/>
<polygon fill="black" stroke="black" points="1404.01,-85.04 1408.56,-75.47 1399.04,-80.12 1404.01,-85.04"/>
</g>
<!-- 25 -->
<g id="node26" class="node">
<title>25</title>
<polygon fill="none" stroke="black" points="1617.75,-74 1521.5,-74 1521.5,0 1617.75,0 1617.75,-74"/>
<text text-anchor="middle" x="1569.62" y="-56.7" font-family="Helvetica,sans-Serif" font-size="14.00">gini = 0.0</text>
<text text-anchor="middle" x="1569.62" y="-40.2" font-family="Helvetica,sans-Serif" font-size="14.00">samples = 1</text>
<text text-anchor="middle" x="1569.62" y="-23.7" font-family="Helvetica,sans-Serif" font-size="14.00">value = [1, 0]</text>
<text text-anchor="middle" x="1569.62" y="-7.2" font-family="Helvetica,sans-Serif" font-size="14.00">class = deny</text>
</g>
<!-- 24&#45;&gt;25 -->
<g id="edge25" class="edge">
<title>24&#45;&gt;25</title>
<path fill="none" stroke="black" d="M1569.62,-109.64C1569.62,-101.81 1569.62,-93.63 1569.62,-85.72"/>
<polygon fill="black" stroke="black" points="1573.13,-85.91 1569.63,-75.91 1566.13,-85.91 1573.13,-85.91"/>
</g>
<!-- 26 -->
<g id="node27" class="node">
<title>26</title>
<polygon fill="none" stroke="black" points="1751.88,-74 1635.38,-74 1635.38,0 1751.88,0 1751.88,-74"/>
<text text-anchor="middle" x="1693.62" y="-56.7" font-family="Helvetica,sans-Serif" font-size="14.00">gini = 0.069</text>
<text text-anchor="middle" x="1693.62" y="-40.2" font-family="Helvetica,sans-Serif" font-size="14.00">samples = 28</text>
<text text-anchor="middle" x="1693.62" y="-23.7" font-family="Helvetica,sans-Serif" font-size="14.00">value = [1, 27]</text>
<text text-anchor="middle" x="1693.62" y="-7.2" font-family="Helvetica,sans-Serif" font-size="14.00">class = approve</text>
</g>
<!-- 24&#45;&gt;26 -->
<g id="edge26" class="edge">
<title>24&#45;&gt;26</title>
<path fill="none" stroke="black" d="M1617.21,-109.64C1626.83,-100.62 1636.93,-91.15 1646.53,-82.15"/>
<polygon fill="black" stroke="black" points="1648.8,-84.82 1653.7,-75.43 1644.01,-79.71 1648.8,-84.82"/>
</g>
</g>
</svg>
