<?xml version="1.0" encoding="UTF-8" standalone="no"?>
<!DOCTYPE svg PUBLIC "-//W3C//DTD SVG 1.1//EN"
 "http://www.w3.org/Graphics/SVG/1.1/DTD/svg11.dtd">
<!-- Generated by graphviz version 10.0.1 (20240210.2158)
 -->
<!-- Title: Tree Pages: 1 -->
<svg width="1785pt" height="588pt"
 viewBox="0.00 0.00 1784.88 588.00" xmlns="http://www.w3.org/2000/svg" xmlns:xlink="http://www.w3.org/1999/xlink">
<g id="graph0" class="graph" transform="scale(1 1) rotate(0) translate(4 584)">
<title>Tree</title>
<polygon fill="white" stroke="none" points="-4,4 -4,-584 1780.88,-584 1780.88,4 -4,4"/>
<!-- 0 -->
<g id="node1" class="node">
<title>0</title>
<polygon fill="none" stroke="black" points="900.12,-580 719.12,-580 719.12,-489.5 900.12,-489.5 900.12,-580"/>
<text text-anchor="middle" x="809.62" y="-562.7" font-family="Helvetica,sans-Serif" font-size="14.00">aus_Not applicable &lt;= 0.5</text>
<text text-anchor="middle" x="809.62" y="-546.2" font-family="Helvetica,sans-Serif" font-size="14.00">gini = 0.248</text>
<text text-anchor="middle" x="809.62" y="-529.7" font-family="Helvetica,sans-Serif" font-size="14.00">samples = 162656</text>
<text text-anchor="middle" x="809.62" y="-513.2" font-family="Helvetica,sans-Serif" font-size="14.00">value = [23538, 139118]</text>
<text text-anchor="middle" x="809.62" y="-496.7" font-family="Helvetica,sans-Serif" font-size="14.00">class = approve</text>
</g>
<!-- 1 -->
<g id="node2" class="node">
<title>1</title>
<polygon fill="none" stroke="black" points="762.88,-453.5 592.38,-453.5 592.38,-363 762.88,-363 762.88,-453.5"/>
<text text-anchor="middle" x="677.62" y="-436.2" font-family="Helvetica,sans-Serif" font-size="14.00">interest_rate &lt;= 2.5</text>
<text text-anchor="middle" x="677.62" y="-419.7" font-family="Helvetica,sans-Serif" font-size="14.00">gini = 0.221</text>
<text text-anchor="middle" x="677.62" y="-403.2" font-family="Helvetica,sans-Serif" font-size="14.00">samples = 155311</text>
<text text-anchor="middle" x="677.62" y="-386.7" font-family="Helvetica,sans-Serif" font-size="14.00">value = [19628, 135683]</text>
<text text-anchor="middle" x="677.62" y="-370.2" font-family="Helvetica,sans-Serif" font-size="14.00">class = approve</text>
</g>
<!-- 0&#45;&gt;1 -->
<g id="edge1" class="edge">
<title>0&#45;&gt;1</title>
<path fill="none" stroke="black" d="M762.34,-489.15C752.96,-480.3 743.03,-470.93 733.39,-461.85"/>
<polygon fill="black" stroke="black" points="735.8,-459.31 726.12,-454.99 731,-464.4 735.8,-459.31"/>
<text text-anchor="middle" x="725.75" y="-473.89" font-family="Helvetica,sans-Serif" font-size="14.00">True</text>
</g>
<!-- 14 -->
<g id="node15" class="node">
<title>14</title>
<polygon fill="none" stroke="black" points="1067.5,-453.5 921.75,-453.5 921.75,-363 1067.5,-363 1067.5,-453.5"/>
<text text-anchor="middle" x="994.62" y="-436.2" font-family="Helvetica,sans-Serif" font-size="14.00">interest_rate &lt;= 2.5</text>
<text text-anchor="middle" x="994.62" y="-419.7" font-family="Helvetica,sans-Serif" font-size="14.00">gini = 0.498</text>
<text text-anchor="middle" x="994.62" y="-403.2" font-family="Helvetica,sans-Serif" font-size="14.00">samples = 7345</text>
<text text-anchor="middle" x="994.62" y="-386.7" font-family="Helvetica,sans-Serif" font-size="14.00">value = [3910, 3435]</text>
<text text-anchor="middle" x="994.62" y="-370.2" font-family="Helvetica,sans-Serif" font-size="14.00">class = deny</text>
</g>
<!-- 0&#45;&gt;14 -->
<g id="edge14" class="edge">
<title>0&#45;&gt;14</title>
<path fill="none" stroke="black" d="M875.89,-489.15C889.84,-479.77 904.66,-469.8 918.92,-460.2"/>
<polygon fill="black" stroke="black" points="920.6,-463.28 926.94,-454.8 916.69,-457.48 920.6,-463.28"/>
<text text-anchor="middle" x="923.4" y="-473.44" font-family="Helvetica,sans-Serif" font-size="14.00">False</text>
</g>
<!-- 2 -->
<g id="node3" class="node">
<title>2</title>
<polygon fill="none" stroke="black" points="546.75,-327 336.5,-327 336.5,-236.5 546.75,-236.5 546.75,-327"/>
<text text-anchor="middle" x="441.62" y="-309.7" font-family="Helvetica,sans-Serif" font-size="14.00">aus_Internal Proprietary &lt;= 0.5</text>
<text text-anchor="middle" x="441.62" y="-293.2" font-family="Helvetica,sans-Serif" font-size="14.00">gini = 0.274</text>
<text text-anchor="middle" x="441.62" y="-276.7" font-family="Helvetica,sans-Serif" font-size="14.00">samples = 119725</text>
<text text-anchor="middle" x="441.62" y="-260.2" font-family="Helvetica,sans-Serif" font-size="14.00">value = [19600, 100125]</text>
<text text-anchor="middle" x="441.62" y="-243.7" font-family="Helvetica,sans-Serif" font-size="14.00">class = approve</text>
</g>
<!-- 1&#45;&gt;2 -->
<g id="edge2" class="edge">
<title>1&#45;&gt;2</title>
<path fill="none" stroke="black" d="M593.09,-362.65C574.7,-352.95 555.14,-342.63 536.38,-332.74"/>
<polygon fill="black" stroke="black" points="538.18,-329.73 527.7,-328.16 534.91,-335.92 538.18,-329.73"/>
</g>
<!-- 9 -->
<g id="node10" class="node">
<title>9</title>
<polygon fill="none" stroke="black" points="746.38,-327 608.88,-327 608.88,-236.5 746.38,-236.5 746.38,-327"/>
<text text-anchor="middle" x="677.62" y="-309.7" font-family="Helvetica,sans-Serif" font-size="14.00">loan_term &lt;= 0.5</text>
<text text-anchor="middle" x="677.62" y="-293.2" font-family="Helvetica,sans-Serif" font-size="14.00">gini = 0.002</text>
<text text-anchor="middle" x="677.62" y="-276.7" font-family="Helvetica,sans-Serif" font-size="14.00">samples = 35586</text>
<text text-anchor="middle" x="677.62" y="-260.2" font-family="Helvetica,sans-Serif" font-size="14.00">value = [28, 35558]</text>
<text text-anchor="middle" x="677.62" y="-243.7" font-family="Helvetica,sans-Serif" font-size="14.00">class = approve</text>
</g>
<!-- 1&#45;&gt;9 -->
<g id="edge9" class="edge">
<title>1&#45;&gt;9</title>
<path fill="none" stroke="black" d="M677.62,-362.65C677.62,-354.97 677.62,-346.89 677.62,-338.94"/>
<polygon fill="black" stroke="black" points="681.13,-338.97 677.63,-328.97 674.13,-338.97 681.13,-338.97"/>
</g>
<!-- 3 -->
<g id="node4" class="node">
<title>3</title>
<polygon fill="none" stroke="black" points="309.75,-200.5 147.5,-200.5 147.5,-110 309.75,-110 309.75,-200.5"/>
<text text-anchor="middle" x="228.62" y="-183.2" font-family="Helvetica,sans-Serif" font-size="14.00">income &lt;= 1.5</text>
<text text-anchor="middle" x="228.62" y="-166.7" font-family="Helvetica,sans-Serif" font-size="14.00">gini = 0.232</text>
<text text-anchor="middle" x="228.62" y="-150.2" font-family="Helvetica,sans-Serif" font-size="14.00">samples = 106319</text>
<text text-anchor="middle" x="228.62" y="-133.7" font-family="Helvetica,sans-Serif" font-size="14.00">value = [14265, 92054]</text>
<text text-anchor="middle" x="228.62" y="-117.2" font-family="Helvetica,sans-Serif" font-size="14.00">class = approve</text>
</g>
<!-- 2&#45;&gt;3 -->
<g id="edge3" class="edge">
<title>2&#45;&gt;3</title>
<path fill="none" stroke="black" d="M365.33,-236.15C348.96,-226.59 331.56,-216.42 314.85,-206.65"/>
<polygon fill="black" stroke="black" points="316.81,-203.74 306.41,-201.72 313.28,-209.78 316.81,-203.74"/>
</g>
<!-- 6 -->
<g id="node7" class="node">
<title>6</title>
<polygon fill="none" stroke="black" points="551.62,-200.5 331.62,-200.5 331.62,-110 551.62,-110 551.62,-200.5"/>
<text text-anchor="middle" x="441.62" y="-183.2" font-family="Helvetica,sans-Serif" font-size="14.00">aus_Desktop Underwriter &lt;= 0.5</text>
<text text-anchor="middle" x="441.62" y="-166.7" font-family="Helvetica,sans-Serif" font-size="14.00">gini = 0.479</text>
<text text-anchor="middle" x="441.62" y="-150.2" font-family="Helvetica,sans-Serif" font-size="14.00">samples = 13406</text>
<text text-anchor="middle" x="441.62" y="-133.7" font-family="Helvetica,sans-Serif" font-size="14.00">value = [5335, 8071]</text>
<text text-anchor="middle" x="441.62" y="-117.2" font-family="Helvetica,sans-Serif" font-size="14.00">class = approve</text>
</g>
<!-- 2&#45;&gt;6 -->
<g id="edge6" class="edge">
<title>2&#45;&gt;6</title>
<path fill="none" stroke="black" d="M441.62,-236.15C441.62,-228.47 441.62,-220.39 441.62,-212.44"/>
<polygon fill="black" stroke="black" points="445.13,-212.47 441.63,-202.47 438.13,-212.47 445.13,-212.47"/>
</g>
<!-- 4 -->
<g id="node5" class="node">
<title>4</title>
<polygon fill="none" stroke="black" points="129.25,-74 0,-74 0,0 129.25,0 129.25,-74"/>
<text text-anchor="middle" x="64.62" y="-56.7" font-family="Helvetica,sans-Serif" font-size="14.00">gini = 0.294</text>
<text text-anchor="middle" x="64.62" y="-40.2" font-family="Helvetica,sans-Serif" font-size="14.00">samples = 1104</text>
<text text-anchor="middle" x="64.62" y="-23.7" font-family="Helvetica,sans-Serif" font-size="14.00">value = [906, 198]</text>
<text text-anchor="middle" x="64.62" y="-7.2" font-family="Helvetica,sans-Serif" font-size="14.00">class = deny</text>
</g>
<!-- 3&#45;&gt;4 -->
<g id="edge4" class="edge">
<title>3&#45;&gt;4</title>
<path fill="none" stroke="black" d="M165.69,-109.64C152.33,-100.17 138.26,-90.19 125,-80.8"/>
<polygon fill="black" stroke="black" points="127.38,-78.2 117.2,-75.27 123.34,-83.91 127.38,-78.2"/>
</g>
<!-- 5 -->
<g id="node6" class="node">
<title>5</title>
<polygon fill="none" stroke="black" points="309.75,-74 147.5,-74 147.5,0 309.75,0 309.75,-74"/>
<text text-anchor="middle" x="228.62" y="-56.7" font-family="Helvetica,sans-Serif" font-size="14.00">gini = 0.222</text>
<text text-anchor="middle" x="228.62" y="-40.2" font-family="Helvetica,sans-Serif" font-size="14.00">samples = 105215</text>
<text text-anchor="middle" x="228.62" y="-23.7" font-family="Helvetica,sans-Serif" font-size="14.00">value = [13359, 91856]</text>
<text text-anchor="middle" x="228.62" y="-7.2" font-family="Helvetica,sans-Serif" font-size="14.00">class = approve</text>
</g>
<!-- 3&#45;&gt;5 -->
<g id="edge5" class="edge">
<title>3&#45;&gt;5</title>
<path fill="none" stroke="black" d="M228.62,-109.64C228.62,-101.81 228.62,-93.63 228.62,-85.72"/>
<polygon fill="black" stroke="black" points="232.13,-85.91 228.63,-75.91 225.13,-85.91 232.13,-85.91"/>
</g>
<!-- 7 -->
<g id="node8" class="node">
<title>7</title>
<polygon fill="none" stroke="black" points="473.5,-74 327.75,-74 327.75,0 473.5,0 473.5,-74"/>
<text text-anchor="middle" x="400.62" y="-56.7" font-family="Helvetica,sans-Serif" font-size="14.00">gini = 0.388</text>
<text text-anchor="middle" x="400.62" y="-40.2" font-family="Helvetica,sans-Serif" font-size="14.00">samples = 9504</text>
<text text-anchor="middle" x="400.62" y="-23.7" font-family="Helvetica,sans-Serif" font-size="14.00">value = [2498, 7006]</text>
<text text-anchor="middle" x="400.62" y="-7.2" font-family="Helvetica,sans-Serif" font-size="14.00">class = approve</text>
</g>
<!-- 6&#45;&gt;7 -->
<g id="edge7" class="edge">
<title>6&#45;&gt;7</title>
<path fill="none" stroke="black" d="M425.89,-109.64C423.06,-101.63 420.11,-93.25 417.26,-85.17"/>
<polygon fill="black" stroke="black" points="420.59,-84.09 413.96,-75.82 413.99,-86.42 420.59,-84.09"/>
</g>
<!-- 8 -->
<g id="node9" class="node">
<title>8</title>
<polygon fill="none" stroke="black" points="637.5,-74 491.75,-74 491.75,0 637.5,0 637.5,-74"/>
<text text-anchor="middle" x="564.62" y="-56.7" font-family="Helvetica,sans-Serif" font-size="14.00">gini = 0.397</text>
<text text-anchor="middle" x="564.62" y="-40.2" font-family="Helvetica,sans-Serif" font-size="14.00">samples = 3902</text>
<text text-anchor="middle" x="564.62" y="-23.7" font-family="Helvetica,sans-Serif" font-size="14.00">value = [2837, 1065]</text>
<text text-anchor="middle" x="564.62" y="-7.2" font-family="Helvetica,sans-Serif" font-size="14.00">class = deny</text>
</g>
<!-- 6&#45;&gt;8 -->
<g id="edge8" class="edge">
<title>6&#45;&gt;8</title>
<path fill="none" stroke="black" d="M488.83,-109.64C498.36,-100.62 508.39,-91.15 517.91,-82.15"/>
<polygon fill="black" stroke="black" points="520.15,-84.85 525.02,-75.43 515.35,-79.76 520.15,-84.85"/>
</g>
<!-- 10 -->
<g id="node11" class="node">
<title>10</title>
<polygon fill="none" stroke="black" points="677.75,-192.25 581.5,-192.25 581.5,-118.25 677.75,-118.25 677.75,-192.25"/>
<text text-anchor="middle" x="629.62" y="-174.95" font-family="Helvetica,sans-Serif" font-size="14.00">gini = 0.0</text>
<text text-anchor="middle" x="629.62" y="-158.45" font-family="Helvetica,sans-Serif" font-size="14.00">samples = 1</text>
<text text-anchor="middle" x="629.62" y="-141.95" font-family="Helvetica,sans-Serif" font-size="14.00">value = [1, 0]</text>
<text text-anchor="middle" x="629.62" y="-125.45" font-family="Helvetica,sans-Serif" font-size="14.00">class = deny</text>
</g>
<!-- 9&#45;&gt;10 -->
<g id="edge10" class="edge">
<title>9&#45;&gt;10</title>
<path fill="none" stroke="black" d="M660.43,-236.15C656.28,-225.37 651.82,-213.82 647.63,-202.95"/>
<polygon fill="black" stroke="black" points="650.95,-201.84 644.09,-193.77 644.42,-204.36 650.95,-201.84"/>
</g>
<!-- 11 -->
<g id="node12" class="node">
<title>11</title>
<polygon fill="none" stroke="black" points="833.38,-200.5 695.88,-200.5 695.88,-110 833.38,-110 833.38,-200.5"/>
<text text-anchor="middle" x="764.62" y="-183.2" font-family="Helvetica,sans-Serif" font-size="14.00">income &lt;= 1.5</text>
<text text-anchor="middle" x="764.62" y="-166.7" font-family="Helvetica,sans-Serif" font-size="14.00">gini = 0.002</text>
<text text-anchor="middle" x="764.62" y="-150.2" font-family="Helvetica,sans-Serif" font-size="14.00">samples = 35585</text>
<text text-anchor="middle" x="764.62" y="-133.7" font-family="Helvetica,sans-Serif" font-size="14.00">value = [27, 35558]</text>
<text text-anchor="middle" x="764.62" y="-117.2" font-family="Helvetica,sans-Serif" font-size="14.00">class = approve</text>
</g>
<!-- 9&#45;&gt;11 -->
<g id="edge11" class="edge">
<title>9&#45;&gt;11</title>
<path fill="none" stroke="black" d="M708.79,-236.15C714.66,-227.75 720.86,-218.88 726.91,-210.23"/>
<polygon fill="black" stroke="black" points="729.66,-212.4 732.52,-202.19 723.92,-208.39 729.66,-212.4"/>
</g>
<!-- 12 -->
<g id="node13" class="node">
<title>12</title>
<polygon fill="none" stroke="black" points="771.88,-74 655.38,-74 655.38,0 771.88,0 771.88,-74"/>
<text text-anchor="middle" x="713.62" y="-56.7" font-family="Helvetica,sans-Serif" font-size="14.00">gini = 0.064</text>
<text text-anchor="middle" x="713.62" y="-40.2" font-family="Helvetica,sans-Serif" font-size="14.00">samples = 121</text>
<text text-anchor="middle" x="713.62" y="-23.7" font-family="Helvetica,sans-Serif" font-size="14.00">value = [4, 117]</text>
<text text-anchor="middle" x="713.62" y="-7.2" font-family="Helvetica,sans-Serif" font-size="14.00">class = approve</text>
</g>
<!-- 11&#45;&gt;12 -->
<g id="edge12" class="edge">
<title>11&#45;&gt;12</title>
<path fill="none" stroke="black" d="M745.05,-109.64C741.5,-101.53 737.78,-93.06 734.2,-84.89"/>
<polygon fill="black" stroke="black" points="737.42,-83.53 730.2,-75.78 731.01,-86.34 737.42,-83.53"/>
</g>
<!-- 13 -->
<g id="node14" class="node">
<title>13</title>
<polygon fill="none" stroke="black" points="927.38,-74 789.88,-74 789.88,0 927.38,0 927.38,-74"/>
<text text-anchor="middle" x="858.62" y="-56.7" font-family="Helvetica,sans-Serif" font-size="14.00">gini = 0.001</text>
<text text-anchor="middle" x="858.62" y="-40.2" font-family="Helvetica,sans-Serif" font-size="14.00">samples = 35464</text>
<text text-anchor="middle" x="858.62" y="-23.7" font-family="Helvetica,sans-Serif" font-size="14.00">value = [23, 35441]</text>
<text text-anchor="middle" x="858.62" y="-7.2" font-family="Helvetica,sans-Serif" font-size="14.00">class = approve</text>
</g>
<!-- 11&#45;&gt;13 -->
<g id="edge13" class="edge">
<title>11&#45;&gt;13</title>
<path fill="none" stroke="black" d="M800.7,-109.64C807.69,-100.99 815.03,-91.92 822.04,-83.25"/>
<polygon fill="black" stroke="black" points="824.68,-85.55 828.25,-75.57 819.24,-81.15 824.68,-85.55"/>
</g>
<!-- 15 -->
<g id="node16" class="node">
<title>15</title>
<polygon fill="none" stroke="black" points="1067.5,-327 921.75,-327 921.75,-236.5 1067.5,-236.5 1067.5,-327"/>
<text text-anchor="middle" x="994.62" y="-309.7" font-family="Helvetica,sans-Serif" font-size="14.00">interest_rate &lt;= 1.5</text>
<text text-anchor="middle" x="994.62" y="-293.2" font-family="Helvetica,sans-Serif" font-size="14.00">gini = 0.471</text>
<text text-anchor="middle" x="994.62" y="-276.7" font-family="Helvetica,sans-Serif" font-size="14.00">samples = 6302</text>
<text text-anchor="middle" x="994.62" y="-260.2" font-family="Helvetica,sans-Serif" font-size="14.00">value = [3907, 2395]</text>
<text text-anchor="middle" x="994.62" y="-243.7" font-family="Helvetica,sans-Serif" font-size="14.00">class = deny</text>
</g>
<!-- 14&#45;&gt;15 -->
<g id="edge15" class="edge">
<title>14&#45;&gt;15</title>
<path fill="none" stroke="black" d="M994.62,-362.65C994.62,-354.97 994.62,-346.89 994.62,-338.94"/>
<polygon fill="black" stroke="black" points="998.13,-338.97 994.63,-328.97 991.13,-338.97 998.13,-338.97"/>
</g>
<!-- 20 -->
<g id="node21" class="node">
<title>20</title>
<polygon fill="none" stroke="black" points="1367.12,-327 1246.12,-327 1246.12,-236.5 1367.12,-236.5 1367.12,-327"/>
<text text-anchor="middle" x="1306.62" y="-309.7" font-family="Helvetica,sans-Serif" font-size="14.00">income &lt;= 3.5</text>
<text text-anchor="middle" x="1306.62" y="-293.2" font-family="Helvetica,sans-Serif" font-size="14.00">gini = 0.006</text>
<text text-anchor="middle" x="1306.62" y="-276.7" font-family="Helvetica,sans-Serif" font-size="14.00">samples = 1043</text>
<text text-anchor="middle" x="1306.62" y="-260.2" font-family="Helvetica,sans-Serif" font-size="14.00">value = [3, 1040]</text>
<text text-anchor="middle" x="1306.62" y="-243.7" font-family="Helvetica,sans-Serif" font-size="14.00">class = approve</text>
</g>
<!-- 14&#45;&gt;20 -->
<g id="edge20" class="edge">
<title>14&#45;&gt;20</title>
<path fill="none" stroke="black" d="M1067.78,-378.06C1118.3,-357.9 1185.17,-331.21 1235.3,-311.21"/>
<polygon fill="black" stroke="black" points="1236.34,-314.57 1244.33,-307.61 1233.74,-308.06 1236.34,-314.57"/>
</g>
<!-- 16 -->
<g id="node17" class="node">
<title>16</title>
<polygon fill="none" stroke="black" points="973.88,-192.25 857.38,-192.25 857.38,-118.25 973.88,-118.25 973.88,-192.25"/>
<text text-anchor="middle" x="915.62" y="-174.95" font-family="Helvetica,sans-Serif" font-size="14.00">gini = 0.0</text>
<text text-anchor="middle" x="915.62" y="-158.45" font-family="Helvetica,sans-Serif" font-size="14.00">samples = 951</text>
<text text-anchor="middle" x="915.62" y="-141.95" font-family="Helvetica,sans-Serif" font-size="14.00">value = [0, 951]</text>
<text text-anchor="middle" x="915.62" y="-125.45" font-family="Helvetica,sans-Serif" font-size="14.00">class = approve</text>
</g>
<!-- 15&#45;&gt;16 -->
<g id="edge16" class="edge">
<title>15&#45;&gt;16</title>
<path fill="none" stroke="black" d="M966.33,-236.15C959.27,-225.04 951.7,-213.1 944.61,-201.93"/>
<polygon fill="black" stroke="black" points="947.66,-200.2 939.35,-193.63 941.75,-203.95 947.66,-200.2"/>
</g>
<!-- 17 -->
<g id="node18" class="node">
<title>17</title>
<polygon fill="none" stroke="black" points="1155.5,-200.5 991.75,-200.5 991.75,-110 1155.5,-110 1155.5,-200.5"/>
<text text-anchor="middle" x="1073.62" y="-183.2" font-family="Helvetica,sans-Serif" font-size="14.00">total_loan_costs &lt;= 1.5</text>
<text text-anchor="middle" x="1073.62" y="-166.7" font-family="Helvetica,sans-Serif" font-size="14.00">gini = 0.394</text>
<text text-anchor="middle" x="1073.62" y="-150.2" font-family="Helvetica,sans-Serif" font-size="14.00">samples = 5351</text>
<text text-anchor="middle" x="1073.62" y="-133.7" font-family="Helvetica,sans-Serif" font-size="14.00">value = [3907, 1444]</text>
<text text-anchor="middle" x="1073.62" y="-117.2" font-family="Helvetica,sans-Serif" font-size="14.00">class = deny</text>
</g>
<!-- 15&#45;&gt;17 -->
<g id="edge17" class="edge">
<title>15&#45;&gt;17</title>
<path fill="none" stroke="black" d="M1022.92,-236.15C1028.2,-227.84 1033.76,-219.07 1039.2,-210.5"/>
<polygon fill="black" stroke="black" points="1042.05,-212.55 1044.45,-202.23 1036.14,-208.8 1042.05,-212.55"/>
</g>
<!-- 18 -->
<g id="node19" class="node">
<title>18</title>
<polygon fill="none" stroke="black" points="1091.5,-74 945.75,-74 945.75,0 1091.5,0 1091.5,-74"/>
<text text-anchor="middle" x="1018.62" y="-56.7" font-family="Helvetica,sans-Serif" font-size="14.00">gini = 0.369</text>
<text text-anchor="middle" x="1018.62" y="-40.2" font-family="Helvetica,sans-Serif" font-size="14.00">samples = 5045</text>
<text text-anchor="middle" x="1018.62" y="-23.7" font-family="Helvetica,sans-Serif" font-size="14.00">value = [3815, 1230]</text>
<text text-anchor="middle" x="1018.62" y="-7.2" font-family="Helvetica,sans-Serif" font-size="14.00">class = deny</text>
</g>
<!-- 17&#45;&gt;18 -->
<g id="edge18" class="edge">
<title>17&#45;&gt;18</title>
<path fill="none" stroke="black" d="M1052.52,-109.64C1048.64,-101.44 1044.59,-92.87 1040.68,-84.62"/>
<polygon fill="black" stroke="black" points="1043.93,-83.3 1036.49,-75.76 1037.6,-86.3 1043.93,-83.3"/>
</g>
<!-- 19 -->
<g id="node20" class="node">
<title>19</title>
<polygon fill="none" stroke="black" points="1230.12,-74 1109.12,-74 1109.12,0 1230.12,0 1230.12,-74"/>
<text text-anchor="middle" x="1169.62" y="-56.7" font-family="Helvetica,sans-Serif" font-size="14.00">gini = 0.421</text>
<text text-anchor="middle" x="1169.62" y="-40.2" font-family="Helvetica,sans-Serif" font-size="14.00">samples = 306</text>
<text text-anchor="middle" x="1169.62" y="-23.7" font-family="Helvetica,sans-Serif" font-size="14.00">value = [92, 214]</text>
<text text-anchor="middle" x="1169.62" y="-7.2" font-family="Helvetica,sans-Serif" font-size="14.00">class = approve</text>
</g>
<!-- 17&#45;&gt;19 -->
<g id="edge19" class="edge">
<title>17&#45;&gt;19</title>
<path fill="none" stroke="black" d="M1110.47,-109.64C1117.61,-100.99 1125.1,-91.92 1132.26,-83.25"/>
<polygon fill="black" stroke="black" points="1134.94,-85.5 1138.61,-75.56 1129.54,-81.04 1134.94,-85.5"/>
</g>
<!-- 21 -->
<g id="node22" class="node">
<title>21</title>
<polygon fill="none" stroke="black" points="1436.5,-200.5 1176.75,-200.5 1176.75,-110 1436.5,-110 1436.5,-200.5"/>
<text text-anchor="middle" x="1306.62" y="-183.2" font-family="Helvetica,sans-Serif" font-size="14.00">co&#45;applicant_credit_score_type &lt;= 0.5</text>
<text text-anchor="middle" x="1306.62" y="-166.7" font-family="Helvetica,sans-Serif" font-size="14.00">gini = 0.002</text>
<text text-anchor="middle" x="1306.62" y="-150.2" font-family="Helvetica,sans-Serif" font-size="14.00">samples = 1014</text>
<text text-anchor="middle" x="1306.62" y="-133.7" font-family="Helvetica,sans-Serif" font-size="14.00">value = [1, 1013]</text>
<text text-anchor="middle" x="1306.62" y="-117.2" font-family="Helvetica,sans-Serif" font-size="14.00">class = approve</text>
</g>
<!-- 20&#45;&gt;21 -->
<g id="edge21" class="edge">
<title>20&#45;&gt;21</title>
<path fill="none" stroke="black" d="M1306.62,-236.15C1306.62,-228.47 1306.62,-220.39 1306.62,-212.44"/>
<polygon fill="black" stroke="black" points="1310.13,-212.47 1306.63,-202.47 1303.13,-212.47 1310.13,-212.47"/>
</g>
<!-- 24 -->
<g id="node25" class="node">
<title>24</title>
<polygon fill="none" stroke="black" points="1724.38,-200.5 1454.88,-200.5 1454.88,-110 1724.38,-110 1724.38,-200.5"/>
<text text-anchor="middle" x="1589.62" y="-183.2" font-family="Helvetica,sans-Serif" font-size="14.00">tract_one_to_four_family_homes &lt;= 3.5</text>
<text text-anchor="middle" x="1589.62" y="-166.7" font-family="Helvetica,sans-Serif" font-size="14.00">gini = 0.128</text>
<text text-anchor="middle" x="1589.62" y="-150.2" font-family="Helvetica,sans-Serif" font-size="14.00">samples = 29</text>
<text text-anchor="middle" x="1589.62" y="-133.7" font-family="Helvetica,sans-Serif" font-size="14.00">value = [2, 27]</text>
<text text-anchor="middle" x="1589.62" y="-117.2" font-family="Helvetica,sans-Serif" font-size="14.00">class = approve</text>
</g>
<!-- 20&#45;&gt;24 -->
<g id="edge24" class="edge">
<title>20&#45;&gt;24</title>
<path fill="none" stroke="black" d="M1367.34,-254.04C1399.48,-239.9 1439.98,-222.08 1477.58,-205.54"/>
<polygon fill="black" stroke="black" points="1478.97,-208.75 1486.71,-201.52 1476.15,-202.35 1478.97,-208.75"/>
</g>
<!-- 22 -->
<g id="node23" class="node">
<title>22</title>
<polygon fill="none" stroke="black" points="1364.88,-74 1248.38,-74 1248.38,0 1364.88,0 1364.88,-74"/>
<text text-anchor="middle" x="1306.62" y="-56.7" font-family="Helvetica,sans-Serif" font-size="14.00">gini = 0.03</text>
<text text-anchor="middle" x="1306.62" y="-40.2" font-family="Helvetica,sans-Serif" font-size="14.00">samples = 66</text>
<text text-anchor="middle" x="1306.62" y="-23.7" font-family="Helvetica,sans-Serif" font-size="14.00">value = [1, 65]</text>
<text text-anchor="middle" x="1306.62" y="-7.2" font-family="Helvetica,sans-Serif" font-size="14.00">class = approve</text>
</g>
<!-- 21&#45;&gt;22 -->
<g id="edge22" class="edge">
<title>21&#45;&gt;22</title>
<path fill="none" stroke="black" d="M1306.62,-109.64C1306.62,-101.81 1306.62,-93.63 1306.62,-85.72"/>
<polygon fill="black" stroke="black" points="1310.13,-85.91 1306.63,-75.91 1303.13,-85.91 1310.13,-85.91"/>
</g>
<!-- 23 -->
<g id="node24" class="node">
<title>23</title>
<polygon fill="none" stroke="black" points="1499.88,-74 1383.38,-74 1383.38,0 1499.88,0 1499.88,-74"/>
<text text-anchor="middle" x="1441.62" y="-56.7" font-family="Helvetica,sans-Serif" font-size="14.00">gini = 0.0</text>
<text text-anchor="middle" x="1441.62" y="-40.2" font-family="Helvetica,sans-Serif" font-size="14.00">samples = 948</text>
<text text-anchor="middle" x="1441.62" y="-23.7" font-family="Helvetica,sans-Serif" font-size="14.00">value = [0, 948]</text>
<text text-anchor="middle" x="1441.62" y="-7.2" font-family="Helvetica,sans-Serif" font-size="14.00">class = approve</text>
</g>
<!-- 21&#45;&gt;23 -->
<g id="edge23" class="edge">
<title>21&#45;&gt;23</title>
<path fill="none" stroke="black" d="M1358.43,-109.64C1369.01,-100.53 1380.12,-90.96 1390.67,-81.88"/>
<polygon fill="black" stroke="black" points="1392.92,-84.56 1398.21,-75.38 1388.35,-79.25 1392.92,-84.56"/>
</g>
<!-- 25 -->
<g id="node26" class="node">
<title>25</title>
<polygon fill="none" stroke="black" points="1641.88,-74 1525.38,-74 1525.38,0 1641.88,0 1641.88,-74"/>
<text text-anchor="middle" x="1583.62" y="-56.7" font-family="Helvetica,sans-Serif" font-size="14.00">gini = 0.0</text>
<text text-anchor="middle" x="1583.62" y="-40.2" font-family="Helvetica,sans-Serif" font-size="14.00">samples = 24</text>
<text text-anchor="middle" x="1583.62" y="-23.7" font-family="Helvetica,sans-Serif" font-size="14.00">value = [0, 24]</text>
<text text-anchor="middle" x="1583.62" y="-7.2" font-family="Helvetica,sans-Serif" font-size="14.00">class = approve</text>
</g>
<!-- 24&#45;&gt;25 -->
<g id="edge25" class="edge">
<title>24&#45;&gt;25</title>
<path fill="none" stroke="black" d="M1587.32,-109.64C1586.92,-101.81 1586.5,-93.63 1586.09,-85.72"/>
<polygon fill="black" stroke="black" points="1589.59,-85.71 1585.58,-75.91 1582.6,-86.07 1589.59,-85.71"/>
</g>
<!-- 26 -->
<g id="node27" class="node">
<title>26</title>
<polygon fill="none" stroke="black" points="1776.88,-74 1660.38,-74 1660.38,0 1776.88,0 1776.88,-74"/>
<text text-anchor="middle" x="1718.62" y="-56.7" font-family="Helvetica,sans-Serif" font-size="14.00">gini = 0.48</text>
<text text-anchor="middle" x="1718.62" y="-40.2" font-family="Helvetica,sans-Serif" font-size="14.00">samples = 5</text>
<text text-anchor="middle" x="1718.62" y="-23.7" font-family="Helvetica,sans-Serif" font-size="14.00">value = [2, 3]</text>
<text text-anchor="middle" x="1718.62" y="-7.2" font-family="Helvetica,sans-Serif" font-size="14.00">class = approve</text>
</g>
<!-- 24&#45;&gt;26 -->
<g id="edge26" class="edge">
<title>24&#45;&gt;26</title>
<path fill="none" stroke="black" d="M1639.13,-109.64C1649.23,-100.53 1659.86,-90.96 1669.93,-81.88"/>
<polygon fill="black" stroke="black" points="1672.03,-84.7 1677.12,-75.41 1667.34,-79.5 1672.03,-84.7"/>
</g>
</g>
</svg>
