<?xml version="1.0" encoding="UTF-8" standalone="no"?>
<!DOCTYPE svg PUBLIC "-//W3C//DTD SVG 1.1//EN"
 "http://www.w3.org/Graphics/SVG/1.1/DTD/svg11.dtd">
<!-- Generated by graphviz version 10.0.1 (20240210.2158)
 -->
<!-- Title: Tree Pages: 1 -->
<svg width="1760pt" height="588pt"
 viewBox="0.00 0.00 1759.88 588.00" xmlns="http://www.w3.org/2000/svg" xmlns:xlink="http://www.w3.org/1999/xlink">
<g id="graph0" class="graph" transform="scale(1 1) rotate(0) translate(4 584)">
<title>Tree</title>
<polygon fill="white" stroke="none" points="-4,4 -4,-584 1755.88,-584 1755.88,4 -4,4"/>
<!-- 0 -->
<g id="node1" class="node">
<title>0</title>
<polygon fill="none" stroke="black" points="925.12,-580 744.12,-580 744.12,-489.5 925.12,-489.5 925.12,-580"/>
<text text-anchor="middle" x="834.62" y="-562.7" font-family="Helvetica,sans-Serif" font-size="14.00">aus_Not applicable &lt;= 0.5</text>
<text text-anchor="middle" x="834.62" y="-546.2" font-family="Helvetica,sans-Serif" font-size="14.00">gini = 0.248</text>
<text text-anchor="middle" x="834.62" y="-529.7" font-family="Helvetica,sans-Serif" font-size="14.00">samples = 162656</text>
<text text-anchor="middle" x="834.62" y="-513.2" font-family="Helvetica,sans-Serif" font-size="14.00">value = [23538, 139118]</text>
<text text-anchor="middle" x="834.62" y="-496.7" font-family="Helvetica,sans-Serif" font-size="14.00">class = approve</text>
</g>
<!-- 1 -->
<g id="node2" class="node">
<title>1</title>
<polygon fill="none" stroke="black" points="787.88,-453.5 617.38,-453.5 617.38,-363 787.88,-363 787.88,-453.5"/>
<text text-anchor="middle" x="702.62" y="-436.2" font-family="Helvetica,sans-Serif" font-size="14.00">interest_rate &lt;= 2.5</text>
<text text-anchor="middle" x="702.62" y="-419.7" font-family="Helvetica,sans-Serif" font-size="14.00">gini = 0.221</text>
<text text-anchor="middle" x="702.62" y="-403.2" font-family="Helvetica,sans-Serif" font-size="14.00">samples = 155311</text>
<text text-anchor="middle" x="702.62" y="-386.7" font-family="Helvetica,sans-Serif" font-size="14.00">value = [19628, 135683]</text>
<text text-anchor="middle" x="702.62" y="-370.2" font-family="Helvetica,sans-Serif" font-size="14.00">class = approve</text>
</g>
<!-- 0&#45;&gt;1 -->
<g id="edge1" class="edge">
<title>0&#45;&gt;1</title>
<path fill="none" stroke="black" d="M787.34,-489.15C777.96,-480.3 768.03,-470.93 758.39,-461.85"/>
<polygon fill="black" stroke="black" points="760.8,-459.31 751.12,-454.99 756,-464.4 760.8,-459.31"/>
<text text-anchor="middle" x="750.75" y="-473.89" font-family="Helvetica,sans-Serif" font-size="14.00">True</text>
</g>
<!-- 14 -->
<g id="node15" class="node">
<title>14</title>
<polygon fill="none" stroke="black" points="1107.5,-453.5 961.75,-453.5 961.75,-363 1107.5,-363 1107.5,-453.5"/>
<text text-anchor="middle" x="1034.62" y="-436.2" font-family="Helvetica,sans-Serif" font-size="14.00">interest_rate &lt;= 2.5</text>
<text text-anchor="middle" x="1034.62" y="-419.7" font-family="Helvetica,sans-Serif" font-size="14.00">gini = 0.498</text>
<text text-anchor="middle" x="1034.62" y="-403.2" font-family="Helvetica,sans-Serif" font-size="14.00">samples = 7345</text>
<text text-anchor="middle" x="1034.62" y="-386.7" font-family="Helvetica,sans-Serif" font-size="14.00">value = [3910, 3435]</text>
<text text-anchor="middle" x="1034.62" y="-370.2" font-family="Helvetica,sans-Serif" font-size="14.00">class = deny</text>
</g>
<!-- 0&#45;&gt;14 -->
<g id="edge14" class="edge">
<title>0&#45;&gt;14</title>
<path fill="none" stroke="black" d="M906.26,-489.15C921.49,-479.68 937.67,-469.61 953.22,-459.92"/>
<polygon fill="black" stroke="black" points="954.89,-463.01 961.53,-454.75 951.19,-457.07 954.89,-463.01"/>
<text text-anchor="middle" x="957.15" y="-473.25" font-family="Helvetica,sans-Serif" font-size="14.00">False</text>
</g>
<!-- 2 -->
<g id="node3" class="node">
<title>2</title>
<polygon fill="none" stroke="black" points="571.75,-327 361.5,-327 361.5,-236.5 571.75,-236.5 571.75,-327"/>
<text text-anchor="middle" x="466.62" y="-309.7" font-family="Helvetica,sans-Serif" font-size="14.00">aus_Internal Proprietary &lt;= 0.5</text>
<text text-anchor="middle" x="466.62" y="-293.2" font-family="Helvetica,sans-Serif" font-size="14.00">gini = 0.274</text>
<text text-anchor="middle" x="466.62" y="-276.7" font-family="Helvetica,sans-Serif" font-size="14.00">samples = 119725</text>
<text text-anchor="middle" x="466.62" y="-260.2" font-family="Helvetica,sans-Serif" font-size="14.00">value = [19600, 100125]</text>
<text text-anchor="middle" x="466.62" y="-243.7" font-family="Helvetica,sans-Serif" font-size="14.00">class = approve</text>
</g>
<!-- 1&#45;&gt;2 -->
<g id="edge2" class="edge">
<title>1&#45;&gt;2</title>
<path fill="none" stroke="black" d="M618.09,-362.65C599.7,-352.95 580.14,-342.63 561.38,-332.74"/>
<polygon fill="black" stroke="black" points="563.18,-329.73 552.7,-328.16 559.91,-335.92 563.18,-329.73"/>
</g>
<!-- 9 -->
<g id="node10" class="node">
<title>9</title>
<polygon fill="none" stroke="black" points="771.38,-327 633.88,-327 633.88,-236.5 771.38,-236.5 771.38,-327"/>
<text text-anchor="middle" x="702.62" y="-309.7" font-family="Helvetica,sans-Serif" font-size="14.00">loan_term &lt;= 0.5</text>
<text text-anchor="middle" x="702.62" y="-293.2" font-family="Helvetica,sans-Serif" font-size="14.00">gini = 0.002</text>
<text text-anchor="middle" x="702.62" y="-276.7" font-family="Helvetica,sans-Serif" font-size="14.00">samples = 35586</text>
<text text-anchor="middle" x="702.62" y="-260.2" font-family="Helvetica,sans-Serif" font-size="14.00">value = [28, 35558]</text>
<text text-anchor="middle" x="702.62" y="-243.7" font-family="Helvetica,sans-Serif" font-size="14.00">class = approve</text>
</g>
<!-- 1&#45;&gt;9 -->
<g id="edge9" class="edge">
<title>1&#45;&gt;9</title>
<path fill="none" stroke="black" d="M702.62,-362.65C702.62,-354.97 702.62,-346.89 702.62,-338.94"/>
<polygon fill="black" stroke="black" points="706.13,-338.97 702.63,-328.97 699.13,-338.97 706.13,-338.97"/>
</g>
<!-- 3 -->
<g id="node4" class="node">
<title>3</title>
<polygon fill="none" stroke="black" points="309.75,-200.5 147.5,-200.5 147.5,-110 309.75,-110 309.75,-200.5"/>
<text text-anchor="middle" x="228.62" y="-183.2" font-family="Helvetica,sans-Serif" font-size="14.00">income &lt;= 1.5</text>
<text text-anchor="middle" x="228.62" y="-166.7" font-family="Helvetica,sans-Serif" font-size="14.00">gini = 0.232</text>
<text text-anchor="middle" x="228.62" y="-150.2" font-family="Helvetica,sans-Serif" font-size="14.00">samples = 106319</text>
<text text-anchor="middle" x="228.62" y="-133.7" font-family="Helvetica,sans-Serif" font-size="14.00">value = [14265, 92054]</text>
<text text-anchor="middle" x="228.62" y="-117.2" font-family="Helvetica,sans-Serif" font-size="14.00">class = approve</text>
</g>
<!-- 2&#45;&gt;3 -->
<g id="edge3" class="edge">
<title>2&#45;&gt;3</title>
<path fill="none" stroke="black" d="M381.37,-236.15C361.52,-225.77 340.3,-214.67 320.18,-204.15"/>
<polygon fill="black" stroke="black" points="321.92,-201.1 311.44,-199.57 318.68,-207.31 321.92,-201.1"/>
</g>
<!-- 6 -->
<g id="node7" class="node">
<title>6</title>
<polygon fill="none" stroke="black" points="576.62,-200.5 356.62,-200.5 356.62,-110 576.62,-110 576.62,-200.5"/>
<text text-anchor="middle" x="466.62" y="-183.2" font-family="Helvetica,sans-Serif" font-size="14.00">aus_Desktop Underwriter &lt;= 0.5</text>
<text text-anchor="middle" x="466.62" y="-166.7" font-family="Helvetica,sans-Serif" font-size="14.00">gini = 0.479</text>
<text text-anchor="middle" x="466.62" y="-150.2" font-family="Helvetica,sans-Serif" font-size="14.00">samples = 13406</text>
<text text-anchor="middle" x="466.62" y="-133.7" font-family="Helvetica,sans-Serif" font-size="14.00">value = [5335, 8071]</text>
<text text-anchor="middle" x="466.62" y="-117.2" font-family="Helvetica,sans-Serif" font-size="14.00">class = approve</text>
</g>
<!-- 2&#45;&gt;6 -->
<g id="edge6" class="edge">
<title>2&#45;&gt;6</title>
<path fill="none" stroke="black" d="M466.62,-236.15C466.62,-228.47 466.62,-220.39 466.62,-212.44"/>
<polygon fill="black" stroke="black" points="470.13,-212.47 466.63,-202.47 463.13,-212.47 470.13,-212.47"/>
</g>
<!-- 4 -->
<g id="node5" class="node">
<title>4</title>
<polygon fill="none" stroke="black" points="129.25,-74 0,-74 0,0 129.25,0 129.25,-74"/>
<text text-anchor="middle" x="64.62" y="-56.7" font-family="Helvetica,sans-Serif" font-size="14.00">gini = 0.294</text>
<text text-anchor="middle" x="64.62" y="-40.2" font-family="Helvetica,sans-Serif" font-size="14.00">samples = 1104</text>
<text text-anchor="middle" x="64.62" y="-23.7" font-family="Helvetica,sans-Serif" font-size="14.00">value = [906, 198]</text>
<text text-anchor="middle" x="64.62" y="-7.2" font-family="Helvetica,sans-Serif" font-size="14.00">class = deny</text>
</g>
<!-- 3&#45;&gt;4 -->
<g id="edge4" class="edge">
<title>3&#45;&gt;4</title>
<path fill="none" stroke="black" d="M165.69,-109.64C152.33,-100.17 138.26,-90.19 125,-80.8"/>
<polygon fill="black" stroke="black" points="127.38,-78.2 117.2,-75.27 123.34,-83.91 127.38,-78.2"/>
</g>
<!-- 5 -->
<g id="node6" class="node">
<title>5</title>
<polygon fill="none" stroke="black" points="309.75,-74 147.5,-74 147.5,0 309.75,0 309.75,-74"/>
<text text-anchor="middle" x="228.62" y="-56.7" font-family="Helvetica,sans-Serif" font-size="14.00">gini = 0.222</text>
<text text-anchor="middle" x="228.62" y="-40.2" font-family="Helvetica,sans-Serif" font-size="14.00">samples = 105215</text>
<text text-anchor="middle" x="228.62" y="-23.7" font-family="Helvetica,sans-Serif" font-size="14.00">value = [13359, 91856]</text>
<text text-anchor="middle" x="228.62" y="-7.2" font-family="Helvetica,sans-Serif" font-size="14.00">class = approve</text>
</g>
<!-- 3&#45;&gt;5 -->
<g id="edge5" class="edge">
<title>3&#45;&gt;5</title>
<path fill="none" stroke="black" d="M228.62,-109.64C228.62,-101.81 228.62,-93.63 228.62,-85.72"/>
<polygon fill="black" stroke="black" points="232.13,-85.91 228.63,-75.91 225.13,-85.91 232.13,-85.91"/>
</g>
<!-- 7 -->
<g id="node8" class="node">
<title>7</title>
<polygon fill="none" stroke="black" points="473.5,-74 327.75,-74 327.75,0 473.5,0 473.5,-74"/>
<text text-anchor="middle" x="400.62" y="-56.7" font-family="Helvetica,sans-Serif" font-size="14.00">gini = 0.388</text>
<text text-anchor="middle" x="400.62" y="-40.2" font-family="Helvetica,sans-Serif" font-size="14.00">samples = 9504</text>
<text text-anchor="middle" x="400.62" y="-23.7" font-family="Helvetica,sans-Serif" font-size="14.00">value = [2498, 7006]</text>
<text text-anchor="middle" x="400.62" y="-7.2" font-family="Helvetica,sans-Serif" font-size="14.00">class = approve</text>
</g>
<!-- 6&#45;&gt;7 -->
<g id="edge7" class="edge">
<title>6&#45;&gt;7</title>
<path fill="none" stroke="black" d="M441.3,-109.64C436.59,-101.35 431.67,-92.68 426.94,-84.34"/>
<polygon fill="black" stroke="black" points="430.02,-82.68 422.03,-75.71 423.93,-86.13 430.02,-82.68"/>
</g>
<!-- 8 -->
<g id="node9" class="node">
<title>8</title>
<polygon fill="none" stroke="black" points="637.5,-74 491.75,-74 491.75,0 637.5,0 637.5,-74"/>
<text text-anchor="middle" x="564.62" y="-56.7" font-family="Helvetica,sans-Serif" font-size="14.00">gini = 0.397</text>
<text text-anchor="middle" x="564.62" y="-40.2" font-family="Helvetica,sans-Serif" font-size="14.00">samples = 3902</text>
<text text-anchor="middle" x="564.62" y="-23.7" font-family="Helvetica,sans-Serif" font-size="14.00">value = [2837, 1065]</text>
<text text-anchor="middle" x="564.62" y="-7.2" font-family="Helvetica,sans-Serif" font-size="14.00">class = deny</text>
</g>
<!-- 6&#45;&gt;8 -->
<g id="edge8" class="edge">
<title>6&#45;&gt;8</title>
<path fill="none" stroke="black" d="M504.23,-109.64C511.6,-100.9 519.33,-91.73 526.71,-82.97"/>
<polygon fill="black" stroke="black" points="529.2,-85.45 532.97,-75.55 523.85,-80.94 529.2,-85.45"/>
</g>
<!-- 10 -->
<g id="node11" class="node">
<title>10</title>
<polygon fill="none" stroke="black" points="712.75,-192.25 616.5,-192.25 616.5,-118.25 712.75,-118.25 712.75,-192.25"/>
<text text-anchor="middle" x="664.62" y="-174.95" font-family="Helvetica,sans-Serif" font-size="14.00">gini = 0.0</text>
<text text-anchor="middle" x="664.62" y="-158.45" font-family="Helvetica,sans-Serif" font-size="14.00">samples = 1</text>
<text text-anchor="middle" x="664.62" y="-141.95" font-family="Helvetica,sans-Serif" font-size="14.00">value = [1, 0]</text>
<text text-anchor="middle" x="664.62" y="-125.45" font-family="Helvetica,sans-Serif" font-size="14.00">class = deny</text>
</g>
<!-- 9&#45;&gt;10 -->
<g id="edge10" class="edge">
<title>9&#45;&gt;10</title>
<path fill="none" stroke="black" d="M689.01,-236.15C685.76,-225.49 682.27,-214.06 678.98,-203.29"/>
<polygon fill="black" stroke="black" points="682.35,-202.35 676.09,-193.8 675.66,-204.39 682.35,-202.35"/>
</g>
<!-- 11 -->
<g id="node12" class="node">
<title>11</title>
<polygon fill="none" stroke="black" points="868.38,-200.5 730.88,-200.5 730.88,-110 868.38,-110 868.38,-200.5"/>
<text text-anchor="middle" x="799.62" y="-183.2" font-family="Helvetica,sans-Serif" font-size="14.00">income &lt;= 1.5</text>
<text text-anchor="middle" x="799.62" y="-166.7" font-family="Helvetica,sans-Serif" font-size="14.00">gini = 0.002</text>
<text text-anchor="middle" x="799.62" y="-150.2" font-family="Helvetica,sans-Serif" font-size="14.00">samples = 35585</text>
<text text-anchor="middle" x="799.62" y="-133.7" font-family="Helvetica,sans-Serif" font-size="14.00">value = [27, 35558]</text>
<text text-anchor="middle" x="799.62" y="-117.2" font-family="Helvetica,sans-Serif" font-size="14.00">class = approve</text>
</g>
<!-- 9&#45;&gt;11 -->
<g id="edge11" class="edge">
<title>9&#45;&gt;11</title>
<path fill="none" stroke="black" d="M737.37,-236.15C743.99,-227.66 750.98,-218.69 757.79,-209.95"/>
<polygon fill="black" stroke="black" points="760.48,-212.19 763.87,-202.15 754.96,-207.88 760.48,-212.19"/>
</g>
<!-- 12 -->
<g id="node13" class="node">
<title>12</title>
<polygon fill="none" stroke="black" points="771.88,-74 655.38,-74 655.38,0 771.88,0 771.88,-74"/>
<text text-anchor="middle" x="713.62" y="-56.7" font-family="Helvetica,sans-Serif" font-size="14.00">gini = 0.064</text>
<text text-anchor="middle" x="713.62" y="-40.2" font-family="Helvetica,sans-Serif" font-size="14.00">samples = 121</text>
<text text-anchor="middle" x="713.62" y="-23.7" font-family="Helvetica,sans-Serif" font-size="14.00">value = [4, 117]</text>
<text text-anchor="middle" x="713.62" y="-7.2" font-family="Helvetica,sans-Serif" font-size="14.00">class = approve</text>
</g>
<!-- 11&#45;&gt;12 -->
<g id="edge12" class="edge">
<title>11&#45;&gt;12</title>
<path fill="none" stroke="black" d="M766.62,-109.64C760.29,-101.08 753.65,-92.11 747.3,-83.52"/>
<polygon fill="black" stroke="black" points="750.21,-81.57 741.45,-75.61 744.58,-85.73 750.21,-81.57"/>
</g>
<!-- 13 -->
<g id="node14" class="node">
<title>13</title>
<polygon fill="none" stroke="black" points="927.38,-74 789.88,-74 789.88,0 927.38,0 927.38,-74"/>
<text text-anchor="middle" x="858.62" y="-56.7" font-family="Helvetica,sans-Serif" font-size="14.00">gini = 0.001</text>
<text text-anchor="middle" x="858.62" y="-40.2" font-family="Helvetica,sans-Serif" font-size="14.00">samples = 35464</text>
<text text-anchor="middle" x="858.62" y="-23.7" font-family="Helvetica,sans-Serif" font-size="14.00">value = [23, 35441]</text>
<text text-anchor="middle" x="858.62" y="-7.2" font-family="Helvetica,sans-Serif" font-size="14.00">class = approve</text>
</g>
<!-- 11&#45;&gt;13 -->
<g id="edge13" class="edge">
<title>11&#45;&gt;13</title>
<path fill="none" stroke="black" d="M822.27,-109.64C826.43,-101.44 830.78,-92.87 834.96,-84.62"/>
<polygon fill="black" stroke="black" points="838.06,-86.24 839.47,-75.74 831.82,-83.08 838.06,-86.24"/>
</g>
<!-- 15 -->
<g id="node16" class="node">
<title>15</title>
<polygon fill="none" stroke="black" points="1107.5,-327 961.75,-327 961.75,-236.5 1107.5,-236.5 1107.5,-327"/>
<text text-anchor="middle" x="1034.62" y="-309.7" font-family="Helvetica,sans-Serif" font-size="14.00">interest_rate &lt;= 1.5</text>
<text text-anchor="middle" x="1034.62" y="-293.2" font-family="Helvetica,sans-Serif" font-size="14.00">gini = 0.471</text>
<text text-anchor="middle" x="1034.62" y="-276.7" font-family="Helvetica,sans-Serif" font-size="14.00">samples = 6302</text>
<text text-anchor="middle" x="1034.62" y="-260.2" font-family="Helvetica,sans-Serif" font-size="14.00">value = [3907, 2395]</text>
<text text-anchor="middle" x="1034.62" y="-243.7" font-family="Helvetica,sans-Serif" font-size="14.00">class = deny</text>
</g>
<!-- 14&#45;&gt;15 -->
<g id="edge15" class="edge">
<title>14&#45;&gt;15</title>
<path fill="none" stroke="black" d="M1034.62,-362.65C1034.62,-354.97 1034.62,-346.89 1034.62,-338.94"/>
<polygon fill="black" stroke="black" points="1038.13,-338.97 1034.63,-328.97 1031.13,-338.97 1038.13,-338.97"/>
</g>
<!-- 20 -->
<g id="node21" class="node">
<title>20</title>
<polygon fill="none" stroke="black" points="1392.12,-327 1271.12,-327 1271.12,-236.5 1392.12,-236.5 1392.12,-327"/>
<text text-anchor="middle" x="1331.62" y="-309.7" font-family="Helvetica,sans-Serif" font-size="14.00">income &lt;= 3.5</text>
<text text-anchor="middle" x="1331.62" y="-293.2" font-family="Helvetica,sans-Serif" font-size="14.00">gini = 0.006</text>
<text text-anchor="middle" x="1331.62" y="-276.7" font-family="Helvetica,sans-Serif" font-size="14.00">samples = 1043</text>
<text text-anchor="middle" x="1331.62" y="-260.2" font-family="Helvetica,sans-Serif" font-size="14.00">value = [3, 1040]</text>
<text text-anchor="middle" x="1331.62" y="-243.7" font-family="Helvetica,sans-Serif" font-size="14.00">class = approve</text>
</g>
<!-- 14&#45;&gt;20 -->
<g id="edge20" class="edge">
<title>14&#45;&gt;20</title>
<path fill="none" stroke="black" d="M1107.66,-376.63C1154.19,-357.13 1214.18,-331.98 1260.36,-312.62"/>
<polygon fill="black" stroke="black" points="1261.62,-315.89 1269.49,-308.8 1258.92,-309.43 1261.62,-315.89"/>
</g>
<!-- 16 -->
<g id="node17" class="node">
<title>16</title>
<polygon fill="none" stroke="black" points="1013.88,-192.25 897.38,-192.25 897.38,-118.25 1013.88,-118.25 1013.88,-192.25"/>
<text text-anchor="middle" x="955.62" y="-174.95" font-family="Helvetica,sans-Serif" font-size="14.00">gini = 0.0</text>
<text text-anchor="middle" x="955.62" y="-158.45" font-family="Helvetica,sans-Serif" font-size="14.00">samples = 951</text>
<text text-anchor="middle" x="955.62" y="-141.95" font-family="Helvetica,sans-Serif" font-size="14.00">value = [0, 951]</text>
<text text-anchor="middle" x="955.62" y="-125.45" font-family="Helvetica,sans-Serif" font-size="14.00">class = approve</text>
</g>
<!-- 15&#45;&gt;16 -->
<g id="edge16" class="edge">
<title>15&#45;&gt;16</title>
<path fill="none" stroke="black" d="M1006.33,-236.15C999.27,-225.04 991.7,-213.1 984.61,-201.93"/>
<polygon fill="black" stroke="black" points="987.66,-200.2 979.35,-193.63 981.75,-203.95 987.66,-200.2"/>
</g>
<!-- 17 -->
<g id="node18" class="node">
<title>17</title>
<polygon fill="none" stroke="black" points="1195.5,-200.5 1031.75,-200.5 1031.75,-110 1195.5,-110 1195.5,-200.5"/>
<text text-anchor="middle" x="1113.62" y="-183.2" font-family="Helvetica,sans-Serif" font-size="14.00">total_loan_costs &lt;= 1.5</text>
<text text-anchor="middle" x="1113.62" y="-166.7" font-family="Helvetica,sans-Serif" font-size="14.00">gini = 0.394</text>
<text text-anchor="middle" x="1113.62" y="-150.2" font-family="Helvetica,sans-Serif" font-size="14.00">samples = 5351</text>
<text text-anchor="middle" x="1113.62" y="-133.7" font-family="Helvetica,sans-Serif" font-size="14.00">value = [3907, 1444]</text>
<text text-anchor="middle" x="1113.62" y="-117.2" font-family="Helvetica,sans-Serif" font-size="14.00">class = deny</text>
</g>
<!-- 15&#45;&gt;17 -->
<g id="edge17" class="edge">
<title>15&#45;&gt;17</title>
<path fill="none" stroke="black" d="M1062.92,-236.15C1068.2,-227.84 1073.76,-219.07 1079.2,-210.5"/>
<polygon fill="black" stroke="black" points="1082.05,-212.55 1084.45,-202.23 1076.14,-208.8 1082.05,-212.55"/>
</g>
<!-- 18 -->
<g id="node19" class="node">
<title>18</title>
<polygon fill="none" stroke="black" points="1091.5,-74 945.75,-74 945.75,0 1091.5,0 1091.5,-74"/>
<text text-anchor="middle" x="1018.62" y="-56.7" font-family="Helvetica,sans-Serif" font-size="14.00">gini = 0.369</text>
<text text-anchor="middle" x="1018.62" y="-40.2" font-family="Helvetica,sans-Serif" font-size="14.00">samples = 5045</text>
<text text-anchor="middle" x="1018.62" y="-23.7" font-family="Helvetica,sans-Serif" font-size="14.00">value = [3815, 1230]</text>
<text text-anchor="middle" x="1018.62" y="-7.2" font-family="Helvetica,sans-Serif" font-size="14.00">class = deny</text>
</g>
<!-- 17&#45;&gt;18 -->
<g id="edge18" class="edge">
<title>17&#45;&gt;18</title>
<path fill="none" stroke="black" d="M1077.17,-109.64C1070.1,-100.99 1062.69,-91.92 1055.6,-83.25"/>
<polygon fill="black" stroke="black" points="1058.36,-81.09 1049.32,-75.57 1052.94,-85.52 1058.36,-81.09"/>
</g>
<!-- 19 -->
<g id="node20" class="node">
<title>19</title>
<polygon fill="none" stroke="black" points="1230.12,-74 1109.12,-74 1109.12,0 1230.12,0 1230.12,-74"/>
<text text-anchor="middle" x="1169.62" y="-56.7" font-family="Helvetica,sans-Serif" font-size="14.00">gini = 0.421</text>
<text text-anchor="middle" x="1169.62" y="-40.2" font-family="Helvetica,sans-Serif" font-size="14.00">samples = 306</text>
<text text-anchor="middle" x="1169.62" y="-23.7" font-family="Helvetica,sans-Serif" font-size="14.00">value = [92, 214]</text>
<text text-anchor="middle" x="1169.62" y="-7.2" font-family="Helvetica,sans-Serif" font-size="14.00">class = approve</text>
</g>
<!-- 17&#45;&gt;19 -->
<g id="edge19" class="edge">
<title>17&#45;&gt;19</title>
<path fill="none" stroke="black" d="M1135.12,-109.64C1139.06,-101.44 1143.19,-92.87 1147.17,-84.62"/>
<polygon fill="black" stroke="black" points="1150.25,-86.29 1151.44,-75.76 1143.94,-83.25 1150.25,-86.29"/>
</g>
<!-- 21 -->
<g id="node22" class="node">
<title>21</title>
<polygon fill="none" stroke="black" points="1444.62,-200.5 1218.62,-200.5 1218.62,-110 1444.62,-110 1444.62,-200.5"/>
<text text-anchor="middle" x="1331.62" y="-183.2" font-family="Helvetica,sans-Serif" font-size="14.00">co&#45;applicant_race_Filipino &lt;= 0.5</text>
<text text-anchor="middle" x="1331.62" y="-166.7" font-family="Helvetica,sans-Serif" font-size="14.00">gini = 0.002</text>
<text text-anchor="middle" x="1331.62" y="-150.2" font-family="Helvetica,sans-Serif" font-size="14.00">samples = 1014</text>
<text text-anchor="middle" x="1331.62" y="-133.7" font-family="Helvetica,sans-Serif" font-size="14.00">value = [1, 1013]</text>
<text text-anchor="middle" x="1331.62" y="-117.2" font-family="Helvetica,sans-Serif" font-size="14.00">class = approve</text>
</g>
<!-- 20&#45;&gt;21 -->
<g id="edge21" class="edge">
<title>20&#45;&gt;21</title>
<path fill="none" stroke="black" d="M1331.62,-236.15C1331.62,-228.47 1331.62,-220.39 1331.62,-212.44"/>
<polygon fill="black" stroke="black" points="1335.13,-212.47 1331.63,-202.47 1328.13,-212.47 1335.13,-212.47"/>
</g>
<!-- 24 -->
<g id="node25" class="node">
<title>24</title>
<polygon fill="none" stroke="black" points="1653.38,-200.5 1485.88,-200.5 1485.88,-110 1653.38,-110 1653.38,-200.5"/>
<text text-anchor="middle" x="1569.62" y="-183.2" font-family="Helvetica,sans-Serif" font-size="14.00">co&#45;applicant_sex &lt;= 0.5</text>
<text text-anchor="middle" x="1569.62" y="-166.7" font-family="Helvetica,sans-Serif" font-size="14.00">gini = 0.128</text>
<text text-anchor="middle" x="1569.62" y="-150.2" font-family="Helvetica,sans-Serif" font-size="14.00">samples = 29</text>
<text text-anchor="middle" x="1569.62" y="-133.7" font-family="Helvetica,sans-Serif" font-size="14.00">value = [2, 27]</text>
<text text-anchor="middle" x="1569.62" y="-117.2" font-family="Helvetica,sans-Serif" font-size="14.00">class = approve</text>
</g>
<!-- 20&#45;&gt;24 -->
<g id="edge24" class="edge">
<title>20&#45;&gt;24</title>
<path fill="none" stroke="black" d="M1392.61,-248.85C1417.75,-235.7 1447.47,-220.15 1475.31,-205.59"/>
<polygon fill="black" stroke="black" points="1476.89,-208.71 1484.13,-200.97 1473.65,-202.51 1476.89,-208.71"/>
</g>
<!-- 22 -->
<g id="node23" class="node">
<title>22</title>
<polygon fill="none" stroke="black" points="1369.12,-74 1248.12,-74 1248.12,0 1369.12,0 1369.12,-74"/>
<text text-anchor="middle" x="1308.62" y="-56.7" font-family="Helvetica,sans-Serif" font-size="14.00">gini = 0.0</text>
<text text-anchor="middle" x="1308.62" y="-40.2" font-family="Helvetica,sans-Serif" font-size="14.00">samples = 1004</text>
<text text-anchor="middle" x="1308.62" y="-23.7" font-family="Helvetica,sans-Serif" font-size="14.00">value = [0, 1004]</text>
<text text-anchor="middle" x="1308.62" y="-7.2" font-family="Helvetica,sans-Serif" font-size="14.00">class = approve</text>
</g>
<!-- 21&#45;&gt;22 -->
<g id="edge22" class="edge">
<title>21&#45;&gt;22</title>
<path fill="none" stroke="black" d="M1322.8,-109.64C1321.23,-101.72 1319.59,-93.44 1318.01,-85.45"/>
<polygon fill="black" stroke="black" points="1321.49,-85.01 1316.12,-75.88 1314.63,-86.37 1321.49,-85.01"/>
</g>
<!-- 23 -->
<g id="node24" class="node">
<title>23</title>
<polygon fill="none" stroke="black" points="1503.88,-74 1387.38,-74 1387.38,0 1503.88,0 1503.88,-74"/>
<text text-anchor="middle" x="1445.62" y="-56.7" font-family="Helvetica,sans-Serif" font-size="14.00">gini = 0.18</text>
<text text-anchor="middle" x="1445.62" y="-40.2" font-family="Helvetica,sans-Serif" font-size="14.00">samples = 10</text>
<text text-anchor="middle" x="1445.62" y="-23.7" font-family="Helvetica,sans-Serif" font-size="14.00">value = [1, 9]</text>
<text text-anchor="middle" x="1445.62" y="-7.2" font-family="Helvetica,sans-Serif" font-size="14.00">class = approve</text>
</g>
<!-- 21&#45;&gt;23 -->
<g id="edge23" class="edge">
<title>21&#45;&gt;23</title>
<path fill="none" stroke="black" d="M1375.37,-109.64C1384.12,-100.72 1393.31,-91.34 1402.06,-82.43"/>
<polygon fill="black" stroke="black" points="1404.37,-85.06 1408.88,-75.47 1399.38,-80.16 1404.37,-85.06"/>
</g>
<!-- 25 -->
<g id="node26" class="node">
<title>25</title>
<polygon fill="none" stroke="black" points="1617.75,-74 1521.5,-74 1521.5,0 1617.75,0 1617.75,-74"/>
<text text-anchor="middle" x="1569.62" y="-56.7" font-family="Helvetica,sans-Serif" font-size="14.00">gini = 0.0</text>
<text text-anchor="middle" x="1569.62" y="-40.2" font-family="Helvetica,sans-Serif" font-size="14.00">samples = 1</text>
<text text-anchor="middle" x="1569.62" y="-23.7" font-family="Helvetica,sans-Serif" font-size="14.00">value = [1, 0]</text>
<text text-anchor="middle" x="1569.62" y="-7.2" font-family="Helvetica,sans-Serif" font-size="14.00">class = deny</text>
</g>
<!-- 24&#45;&gt;25 -->
<g id="edge25" class="edge">
<title>24&#45;&gt;25</title>
<path fill="none" stroke="black" d="M1569.62,-109.64C1569.62,-101.81 1569.62,-93.63 1569.62,-85.72"/>
<polygon fill="black" stroke="black" points="1573.13,-85.91 1569.63,-75.91 1566.13,-85.91 1573.13,-85.91"/>
</g>
<!-- 26 -->
<g id="node27" class="node">
<title>26</title>
<polygon fill="none" stroke="black" points="1751.88,-74 1635.38,-74 1635.38,0 1751.88,0 1751.88,-74"/>
<text text-anchor="middle" x="1693.62" y="-56.7" font-family="Helvetica,sans-Serif" font-size="14.00">gini = 0.069</text>
<text text-anchor="middle" x="1693.62" y="-40.2" font-family="Helvetica,sans-Serif" font-size="14.00">samples = 28</text>
<text text-anchor="middle" x="1693.62" y="-23.7" font-family="Helvetica,sans-Serif" font-size="14.00">value = [1, 27]</text>
<text text-anchor="middle" x="1693.62" y="-7.2" font-family="Helvetica,sans-Serif" font-size="14.00">class = approve</text>
</g>
<!-- 24&#45;&gt;26 -->
<g id="edge26" class="edge">
<title>24&#45;&gt;26</title>
<path fill="none" stroke="black" d="M1617.21,-109.64C1626.83,-100.62 1636.93,-91.15 1646.53,-82.15"/>
<polygon fill="black" stroke="black" points="1648.8,-84.82 1653.7,-75.43 1644.01,-79.71 1648.8,-84.82"/>
</g>
</g>
</svg>
